<?xml version="1.0" standalone="no"?>
<!DOCTYPE svg PUBLIC "-//W3C//DTD SVG 1.1//EN" "http://www.w3.org/Graphics/SVG/1.1/DTD/svg11.dtd" >
<svg>
<metadata>
Created by FontForge 20090622 at Sun May 10 06:17:16 2020
 By deploy user
Copyright 2015-2018 Indian Type Foundry. All rights reserved.
</metadata>
<defs>
<font id="KohinoorBangla-Regular" horiz-adv-x="0" >
  <font-face 
    font-family="Kohinoor Bangla"
    font-weight="400"
    font-stretch="normal"
    units-per-em="1000"
    panose-1="0 0 5 0 0 0 0 0 0 0"
    ascent="800"
    descent="-200"
    x-height="544"
    cap-height="701"
    bbox="-546 -379 1448 1119"
    underline-thickness="50"
    underline-position="-50"
    unicode-range="U+0020-U+FB02"
  />
<missing-glyph horiz-adv-x="500" 
d="M0 0v700h500v-700h-500zM250 395l170 255h-340zM280 350l170 -255v510zM80 50h340l-170 255zM50 605v-510l170 255z" />
    <glyph glyph-name="fi" unicode="fi" horiz-adv-x="596" 
d="M196 0h-78v483h-90v61h91v61q0 162 206 162q52 0 100.5 -9.5t71.5 -21.5l-21 -62q-65 27 -159 27q-65 0 -92.5 -23t-27.5 -73v-61h316v-544h-78v483h-239v-483z" />
    <glyph glyph-name="fl" unicode="fl" horiz-adv-x="635" 
d="M196 0h-78v483h-90v61h91v61q0 162 206 162q123 0 188 -41v-597q0 -36 13 -52.5t43 -16.5q24 0 46 11v-66q-27 -12 -68 -12q-55 0 -83.5 30.5t-28.5 84.5v578q-47 15 -118 15q-65 0 -92.5 -23t-27.5 -73v-61h126v-61h-127v-483z" />
    <glyph glyph-name=".notdef" horiz-adv-x="500" 
d="M0 0v700h500v-700h-500zM250 395l170 255h-340zM280 350l170 -255v510zM80 50h340l-170 255zM50 605v-510l170 255z" />
    <glyph glyph-name=".null" 
 />
    <glyph glyph-name="nonmarkingreturn" horiz-adv-x="333" 
 />
    <glyph glyph-name="space" unicode=" " horiz-adv-x="288" 
 />
    <glyph glyph-name="exclam" unicode="!" horiz-adv-x="283" 
d="M170 246h-61q-1 30 -8.5 203t-12.5 259h102l-9.5 -228.5t-10.5 -233.5zM202 59q0 -24 -18 -41.5t-44 -17.5q-24 0 -41.5 17.5t-17.5 41.5q0 26 17.5 44t41.5 18q26 0 44 -18t18 -44z" />
    <glyph glyph-name="quotedbl" unicode="&#x22;" horiz-adv-x="326" 
d="M266 496h-57l-16 221h89zM116 496h-56l-16 221h89z" />
    <glyph glyph-name="numbersign" unicode="#" horiz-adv-x="671" 
d="M186 0h-70l34 201h-109l3 64h116l29 170h-111l3 64h119l33 192h70l-33 -192h195l33 192h70l-33 -192h95l-3 -64h-102l-29 -170h97l-3 -64h-105l-34 -201h-70l34 201h-195zM260 435l-30 -170h195l30 170h-195z" />
    <glyph glyph-name="dollar" unicode="$" horiz-adv-x="529" 
d="M297 -138h-72l2 141q-116 6 -196 70l48 65q74 -65 177 -65q74 0 109 30t35 78q0 44 -31 71t-95 56l-60 27q-69 31 -107 72t-38 107q0 72 49 118t124 57l-2 138h72l-2 -136q95 -7 156 -55l-52 -62q-49 47 -135 47q-61 0 -95.5 -27.5t-34.5 -75.5q0 -43 29 -70t89 -55
l56 -26q80 -38 119 -75t39 -104q0 -68 -48 -120t-138 -63z" />
    <glyph glyph-name="percent" unicode="%" horiz-adv-x="828" 
d="M693 639l-495 -618l-48 39l496 618zM350 513q0 -95 -42 -144t-111 -49q-70 0 -109.5 47t-39.5 143q0 92 42.5 141.5t111.5 49.5q68 0 108 -47.5t40 -140.5zM116 511q0 -135 85 -135q41 0 61.5 31.5t20.5 102.5q0 134 -86 134q-81 0 -81 -133zM780 184q0 -95 -42 -144.5
t-111 -49.5t-109 47.5t-40 143.5q0 92 42.5 141t111.5 49q68 0 108 -47t40 -140zM546 182q0 -135 85 -135q41 0 61.5 31.5t20.5 101.5q0 135 -86 135q-81 0 -81 -133z" />
    <glyph glyph-name="ampersand" unicode="&#x26;" horiz-adv-x="679" 
d="M507 72q-86 -86 -232 -86q-115 0 -175 58.5t-60 134.5q0 138 168 193q-68 75 -68 155q0 70 49.5 117.5t128.5 47.5q77 0 123.5 -47t46.5 -116q0 -139 -164 -186q67 -73 179 -173q51 79 51 191h71q-4 -139 -71 -235q39 -35 139 -115v-11h-98q-50 39 -88 72zM213 527
q0 -71 66 -134q79 21 108 54t29 81q0 42 -27 70t-72 28q-47 0 -75.5 -26.5t-28.5 -72.5zM114 184q0 -54 43 -94t123 -40q109 0 177 66q-139 128 -205 203q-138 -35 -138 -135z" />
    <glyph glyph-name="quotesingle" unicode="'" horiz-adv-x="176" 
d="M116 496h-56l-16 221h89z" />
    <glyph glyph-name="parenleft" unicode="(" horiz-adv-x="320" 
d="M368 -214h-83q-22 18 -52 57.5t-66 103.5t-60.5 157t-24.5 192q0 100 24.5 193.5t60.5 157t66 103t52 57.5h83v-7q-92 -86 -153 -216.5t-61 -287.5q0 -156 61 -286.5t153 -216.5v-7z" />
    <glyph glyph-name="parenright" unicode=")" horiz-adv-x="320" 
d="M34 -214h-82v7q92 86 153 216.5t61 286.5q0 157 -61 287.5t-153 216.5v7h83q22 -18 52 -57.5t66 -103t60.5 -157t24.5 -193.5q0 -99 -24.5 -192t-61 -157t-66.5 -103.5t-52 -57.5z" />
    <glyph glyph-name="asterisk" unicode="*" horiz-adv-x="403" 
d="M158 405l-33 -46l-54 40l33 47l53 61l-80 19l-54 18l20 64l55 -17l75 -31l-6 81v57h68v-57l-7 -82l76 32l54 18l21 -64l-54 -19l-80 -18l54 -63l34 -46l-55 -39l-35 46l-42 69z" />
    <glyph glyph-name="plus" unicode="+" horiz-adv-x="528" 
d="M299 107h-71v198h-198v69h198v199h71v-199h198v-69h-198v-198z" />
    <glyph glyph-name="comma" unicode="," horiz-adv-x="241" 
d="M193 30q0 -60 -39 -107t-87 -64l-25 41q74 32 74 82q0 24 -13.5 39.5t-43.5 30.5v7q0 26 17 43t44 17q32 0 52.5 -23.5t20.5 -65.5z" />
    <glyph glyph-name="hyphen" unicode="-" horiz-adv-x="339" 
d="M314 263h-289v70h289v-70z" />
    <glyph glyph-name="period" unicode="." horiz-adv-x="223" 
d="M173 60q0 -25 -18 -42.5t-45 -17.5q-25 0 -42.5 17.5t-17.5 42.5q0 27 17.5 45t42.5 18q27 0 45 -18t18 -45z" />
    <glyph glyph-name="slash" unicode="/" horiz-adv-x="340" 
d="M69 -135h-70l271 865h71z" />
    <glyph glyph-name="zero" unicode="0" horiz-adv-x="573" 
d="M513 348q0 -358 -230 -358q-116 0 -169.5 85t-53.5 265q0 359 230 359q116 0 169.5 -85t53.5 -266zM141 348q0 -145 34.5 -215.5t113.5 -70.5q78 0 110.5 66.5t32.5 211.5t-35 216t-113 71q-79 0 -111 -66.5t-32 -212.5z" />
    <glyph glyph-name="one" unicode="1" horiz-adv-x="430" 
d="M301 0h-78v416q2 126 4 187h-4l-73 -51l-87 -61l-46 65l200 133h84v-689z" />
    <glyph glyph-name="two" unicode="2" horiz-adv-x="499" 
d="M445 0h-399l-12 71q164 179 243 273q72 83 72 169q0 51 -30.5 81t-81.5 30q-48 0 -75.5 -28t-34.5 -71l-80 19q14 65 64.5 108t130.5 43q87 0 138 -48.5t51 -127.5q0 -111 -98 -224l-100 -113l-104 -108v-4q35 1 115 1h201v-71z" />
    <glyph glyph-name="three" unicode="3" horiz-adv-x="510" 
d="M447 196q0 -98 -57 -151t-162 -53q-69 0 -119.5 30t-75.5 74l69 43q45 -77 135 -77q134 0 134 130q0 65 -38 92t-119 27h-44v68h44q71 0 103 32.5t32 99.5q0 52 -29 84t-86 32q-92 0 -113 -91l-77 15q13 63 64.5 104.5t128.5 41.5q90 0 141 -46.5t51 -133.5
q0 -68 -29.5 -110t-74.5 -53v-4q54 -8 88 -44t34 -110z" />
    <glyph glyph-name="four" unicode="4" horiz-adv-x="527" 
d="M409 0h-77v166h-289l-19 69l283 454h102v-453h99v-70h-99v-166zM258 481l-151 -245h225v213q0 111 4 159h-4q-12 -26 -74 -127z" />
    <glyph glyph-name="five" unicode="5" horiz-adv-x="530" 
d="M478 221q0 -106 -59 -167.5t-159 -61.5q-141 0 -202 117l77 38q41 -85 132 -85q65 0 98 39.5t33 112.5q0 138 -130 138q-63 0 -97 -40l-85 29l30 348h330v-71h-261l-21 -233l5 -1q47 36 115 36q94 0 144 -50t50 -149z" />
    <glyph glyph-name="six" unicode="6" horiz-adv-x="534" 
d="M485 228q0 -109 -59 -173.5t-156 -64.5q-207 0 -207 257q0 147 70 264.5t167 177.5h112v-9q-88 -51 -146 -113t-94 -149l3 -3q43 28 117 28q89 0 141 -55t52 -160zM141 248q0 -99 37 -144t98 -45q129 0 129 157t-133 157q-71 0 -122 -34q-9 -34 -9 -91z" />
    <glyph glyph-name="seven" unicode="7" horiz-adv-x="453" 
d="M208 0h-78v33q0 96 23 194.5t59.5 176.5t64 126t52.5 83v4q-66 -3 -122 -3h-198v75h392l20 -78q-30 -39 -60 -88.5t-68 -127t-61.5 -173t-23.5 -189.5v-33z" />
    <glyph glyph-name="eight" unicode="8" horiz-adv-x="569" 
d="M507 190q0 -96 -59.5 -148t-164.5 -52q-107 0 -164 48t-57 145q0 69 34.5 110.5t86.5 57.5v4q-42 9 -71 48.5t-29 107.5q0 90 57 139t148 49t144.5 -46.5t53.5 -134.5q0 -125 -101 -160v-4q52 -10 87 -49.5t35 -114.5zM142 187q0 -62 36.5 -96t106.5 -34q142 0 142 129
q0 130 -146 130q-70 0 -104.5 -33.5t-34.5 -95.5zM159 515q0 -63 33 -97.5t92 -34.5q60 0 93 33t33 97q0 55 -33 86.5t-92 31.5q-60 0 -93 -30.5t-33 -85.5z" />
    <glyph glyph-name="nine" unicode="9" horiz-adv-x="526" 
d="M232 0h-113v9q182 109 239 270l-2 2q-44 -27 -118 -27q-88 0 -141 53.5t-53 156.5q0 108 60 171.5t156 63.5q206 0 206 -255q0 -146 -70 -265t-164 -179zM124 477q0 -153 134 -153q64 0 122 35q6 38 6 82q0 188 -132 188q-63 0 -96.5 -38.5t-33.5 -113.5z" />
    <glyph glyph-name="colon" unicode=":" horiz-adv-x="223" 
d="M173 467q0 -26 -18 -43.5t-45 -17.5q-25 0 -42.5 18t-17.5 43q0 26 17.5 44.5t42.5 18.5q27 0 45 -18.5t18 -44.5zM173 67q0 -25 -18 -42.5t-45 -17.5q-25 0 -42.5 17.5t-17.5 42.5q0 27 17.5 45t42.5 18q27 0 45 -18t18 -45z" />
    <glyph glyph-name="semicolon" unicode=";" horiz-adv-x="241" 
d="M191 30q0 -61 -39 -108t-86 -63l-24 38q75 32 75 85q0 24 -15.5 40t-44.5 30v7q0 26 17.5 43t43.5 17q32 0 52.5 -23.5t20.5 -65.5zM183 467q0 -25 -18 -42.5t-45 -17.5q-25 0 -43 17.5t-18 42.5q0 27 18 45t43 18q27 0 45 -18t18 -45z" />
    <glyph glyph-name="less" unicode="&#x3c;" horiz-adv-x="528" 
d="M497 177v-81l-467 214v72l467 214v-81l-241 -108l-144 -59v-4l144 -59z" />
    <glyph glyph-name="equal" unicode="=" horiz-adv-x="528" 
d="M497 417h-467v69h467v-69zM497 193h-467v69h467v-69z" />
    <glyph glyph-name="greater" unicode="&#x3e;" horiz-adv-x="528" 
d="M497 310l-467 -214v81l241 107l144 59v4l-144 60l-241 108v81l467 -213v-73z" />
    <glyph glyph-name="question" unicode="?" horiz-adv-x="402" 
d="M254 362l-118 -108q-36 13 -36 46q0 20 18.5 42.5t45 44t52.5 45t44.5 54.5t18.5 64q0 46 -27 71.5t-76 25.5q-72 0 -122 -50l-52 62q64 59 177 59q84 0 132.5 -41t48.5 -116q0 -63 -26 -106t-80 -93zM230 59q0 -25 -17.5 -42t-43.5 -17q-25 0 -42.5 17t-17.5 42
q0 26 17.5 44t42.5 18q26 0 43.5 -17.5t17.5 -44.5z" />
    <glyph glyph-name="at" unicode="@" horiz-adv-x="916" 
d="M628 -76q-85 -56 -216 -56q-166 0 -257.5 91t-91.5 249q0 185 128.5 316.5t313.5 131.5q157 0 252.5 -85.5t95.5 -226.5q0 -122 -60.5 -204t-157.5 -82q-74 0 -93 52h-4q-44 -54 -119 -54q-71 0 -106.5 43t-35.5 111q0 118 68.5 187t165.5 69q77 0 124 -29l-29 -189
q-8 -56 -8 -79q0 -47 46 -47q62 0 99 62t37 152q0 122 -76 188t-210 66q-147 0 -252.5 -112t-105.5 -263q0 -137 73.5 -209t214.5 -72q104 0 174 48zM349 224q0 -105 83 -105q33 0 60.5 17.5t38.5 43.5q3 42 5 52l23 162q-21 8 -54 8q-68 0 -112 -50.5t-44 -127.5z" />
    <glyph glyph-name="A" unicode="A" horiz-adv-x="594" 
d="M254 513l-76 -238h236l-75 236l-41 135h-4q-10 -35 -40 -133zM90 0h-82l227 701h124l227 -701h-84l-65 204h-282z" />
    <glyph glyph-name="B" unicode="B" horiz-adv-x="604" 
d="M307 0h-213v701h214q89 0 144 -43t55 -136q0 -63 -26 -105t-69 -53v-4q58 -7 94 -48.5t36 -113.5q0 -91 -57.5 -144.5t-177.5 -53.5zM172 318v-248h141q77 0 112.5 29.5t35.5 93.5q0 125 -152 125h-137zM172 631v-243h125q67 0 99 30t32 96q0 117 -135 117h-121z" />
    <glyph glyph-name="C" unicode="C" horiz-adv-x="569" 
d="M529 49q-61 -59 -192 -59q-140 0 -208 93.5t-68 261.5q0 174 74 270t213 96q119 0 186 -58l-50 -61q-56 47 -144 47q-94 0 -145.5 -71t-51.5 -216q0 -142 52 -215.5t153 -73.5q92 0 137 43z" />
    <glyph glyph-name="D" unicode="D" horiz-adv-x="645" 
d="M277 0h-183v701h184q158 0 232 -83.5t74 -260.5q0 -357 -307 -357zM174 630v-559h102q117 0 171.5 64.5t54.5 212.5q0 152 -57.5 217t-173.5 65h-97z" />
    <glyph glyph-name="E" unicode="E" horiz-adv-x="527" 
d="M480 0h-386v701h372v-71h-292v-239h257v-71h-257v-249h306v-71z" />
    <glyph glyph-name="F" unicode="F" horiz-adv-x="493" 
d="M175 0h-81v701h370v-71h-289v-258h254v-71h-254v-301z" />
    <glyph glyph-name="G" unicode="G" horiz-adv-x="636" 
d="M558 53q-77 -63 -220 -63q-136 0 -206.5 90t-70.5 268q0 181 84 272t217 91q130 0 193 -60l-52 -61q-50 48 -146 48q-42 0 -77 -12.5t-67.5 -42.5t-51 -88t-18.5 -140q0 -154 53 -224.5t159 -70.5q82 0 123 28v268h80v-303z" />
    <glyph glyph-name="H" unicode="H" horiz-adv-x="687" 
d="M174 0h-80v701h80v-311h339v311h80v-701h-80v319h-339v-319z" />
    <glyph glyph-name="I" unicode="I" horiz-adv-x="288" 
d="M184 0h-80v701h80v-701z" />
    <glyph glyph-name="J" unicode="J" horiz-adv-x="388" 
d="M293 145q0 -71 -41 -114.5t-127 -43.5q-70 0 -116 22l26 73q39 -23 95 -23q45 0 64.5 21t19.5 67v554h79v-556z" />
    <glyph glyph-name="K" unicode="K" horiz-adv-x="578" 
d="M563 0h-102l-261 347v4l247 350h93l-249 -350zM174 0h-80v701h80v-701z" />
    <glyph glyph-name="L" unicode="L" horiz-adv-x="491" 
d="M475 0h-381v701h80v-630h301v-71z" />
    <glyph glyph-name="M" unicode="M" horiz-adv-x="853" 
d="M171 0h-76v701h128l201 -500h6l201 500h127v-701h-77v607h-6l-207 -506h-85l-206 506h-6v-607z" />
    <glyph glyph-name="N" unicode="N" horiz-adv-x="699" 
d="M171 0h-76v701h112l236 -444q55 -104 81 -158h7q-2 64 -2 188v414h75v-701h-110l-238 447q-33 60 -80 159h-8q3 -90 3 -186v-420z" />
    <glyph glyph-name="O" unicode="O" horiz-adv-x="666" 
d="M605 354q0 -364 -276 -364q-130 0 -199 85t-69 272q0 364 276 364q268 0 268 -357zM143 354q0 -157 49.5 -224.5t141.5 -67.5q93 0 141 65t48 220q0 157 -49.5 224.5t-142.5 67.5q-92 0 -140 -65t-48 -220z" />
    <glyph glyph-name="P" unicode="P" horiz-adv-x="560" 
d="M174 0h-80v701h202q108 0 167.5 -49t59.5 -152q0 -107 -61.5 -165t-180.5 -58h-107v-277zM174 630v-283h107q85 0 122 36t37 108q0 73 -40 106t-122 33h-104z" />
    <glyph glyph-name="Q" unicode="Q" horiz-adv-x="672" 
d="M647 -106l-83 -46l-206 144q-81 -5 -139.5 19t-91.5 73.5t-48 114t-15 148.5q0 364 276 364q131 0 200 -85t69 -272q0 -277 -156 -339v-4zM146 354q0 -157 49.5 -224.5t142.5 -67.5t141 65t48 220q0 158 -49 225t-143 67q-92 0 -140.5 -65t-48.5 -220z" />
    <glyph glyph-name="R" unicode="R" horiz-adv-x="595" 
d="M174 0h-80v701h176q234 0 234 -197q0 -82 -45.5 -133t-112.5 -58v-4q44 -20 85 -90l129 -219h-95l-127 224q-39 67 -109 67h-55v-291zM174 630v-270h90q158 0 158 135q0 72 -40.5 103.5t-122.5 31.5h-85z" />
    <glyph glyph-name="S" unicode="S" horiz-adv-x="533" 
d="M484 184q0 -83 -62.5 -138.5t-171.5 -55.5q-137 0 -219 74l47 64q80 -66 179 -66q69 0 107.5 33t38.5 84q0 32 -18.5 57t-48 42t-65 33t-71 34t-65 40.5t-48 57.5t-18.5 80q0 80 61.5 134t155.5 54q109 0 181 -59l-49 -62q-60 48 -137 48q-60 0 -95.5 -30.5t-35.5 -79.5
q0 -33 18.5 -58.5t48 -43t65 -33.5t71 -34t65 -40t48 -56.5t18.5 -78.5z" />
    <glyph glyph-name="T" unicode="T" horiz-adv-x="477" 
d="M279 0h-80v630h-187v71h453v-71h-186v-630z" />
    <glyph glyph-name="U" unicode="U" horiz-adv-x="680" 
d="M589 244q0 -124 -67.5 -189t-187.5 -65q-117 0 -180 64t-63 178v469h80v-457q0 -92 45.5 -137t126.5 -45q166 0 166 172v467h80v-457z" />
    <glyph glyph-name="V" unicode="V" horiz-adv-x="600" 
d="M361 0h-122l-229 701h87l161 -504q38 -122 42 -136h4q7 26 22 73.5l20 62.5l162 504h82z" />
    <glyph glyph-name="W" unicode="W" horiz-adv-x="926" 
d="M305 0h-115l-181 701h83l112 -434q30 -117 45 -191h4q8 37 43 179l110 446h115l114 -451q22 -84 42 -173h4q26 115 43 181l113 443h79l-180 -701h-116l-112 448l-44 181h-4q-20 -94 -41 -175z" />
    <glyph glyph-name="X" unicode="X" horiz-adv-x="588" 
d="M108 0h-91l229 360l-216 341h95l168 -275h5l166 275h90l-214 -339l231 -362h-95l-183 296h-5z" />
    <glyph glyph-name="Y" unicode="Y" horiz-adv-x="541" 
d="M310 0h-79v253l-232 448h91l181 -366h4l181 366h86l-232 -448v-253z" />
    <glyph glyph-name="Z" unicode="Z" horiz-adv-x="516" 
d="M479 0h-438l-13 72l354 553v4h-322v72h403l13 -72l-352 -553v-4h355v-72z" />
    <glyph glyph-name="bracketleft" unicode="[" horiz-adv-x="310" 
d="M289 -215h-192v1021h192v-59h-119v-902h119v-60z" />
    <glyph glyph-name="backslash" unicode="\" horiz-adv-x="340" 
d="M341 -135h-70l-272 865h71z" />
    <glyph glyph-name="bracketright" unicode="]" horiz-adv-x="310" 
d="M212 -215h-191v60h119v902h-119v59h191v-1021z" />
    <glyph glyph-name="asciicircum" unicode="^" horiz-adv-x="531" 
d="M121 311h-78l175 390h95l175 -389h-79l-83 192l-59 143h-4l-59 -144z" />
    <glyph glyph-name="underscore" unicode="_" horiz-adv-x="487" 
d="M487 -118h-486v67h486v-67z" />
    <glyph glyph-name="grave" unicode="`" horiz-adv-x="502" 
d="M374 660l-48 -36l-198 122l75 42z" />
    <glyph glyph-name="a" unicode="a" horiz-adv-x="545" 
d="M372 62q-63 -73 -162 -73q-72 0 -114.5 43t-42.5 102q0 89 82 133.5t229 42.5v59q0 64 -29 89.5t-86 25.5q-83 0 -124 -66l-57 45q65 89 183 89q185 0 185 -165v-246q0 -82 53 -82h14v-57q-11 -6 -28 -6q-76 0 -99 66h-4zM130 140q0 -37 26 -62t72 -25q43 0 79 21.5
t57 52.5v122q-104 4 -169 -23t-65 -86z" />
    <glyph glyph-name="b" unicode="b" horiz-adv-x="557" 
d="M503 289q0 -137 -68 -218t-199 -81q-97 0 -153 29v740h77v-252h4q51 42 132 42q92 0 149.5 -64t57.5 -196zM161 73q35 -15 87 -15q82 0 129.5 56t47.5 164q0 109 -42.5 156t-107.5 47q-33 0 -64.5 -14.5t-49.5 -39.5v-354z" />
    <glyph glyph-name="c" unicode="c" horiz-adv-x="472" 
d="M435 49q-51 -58 -161 -58q-220 0 -220 273q0 144 63 216.5t168 72.5t155 -57l-52 -57q-43 45 -107 45q-147 0 -147 -210q0 -214 147 -214q68 0 106 43z" />
    <glyph glyph-name="d" unicode="d" horiz-adv-x="559" 
d="M397 55q-18 -27 -55.5 -46.5t-86.5 -19.5q-95 0 -148 64.5t-53 194.5q0 144 70 220t188 76q42 0 87 -9v224h77v-759h-58l-17 55h-4zM133 257q0 -106 39 -153.5t100 -47.5q91 0 127 88v319q-39 13 -83 13q-183 0 -183 -219z" />
    <glyph glyph-name="e" unicode="e" horiz-adv-x="543" 
d="M464 42q-65 -49 -171 -49q-120 0 -179.5 66.5t-59.5 215.5q0 139 66 208.5t165 69.5q95 0 146.5 -57t51.5 -156q0 -41 -6 -94h-346q5 -99 47 -142t125 -43q38 0 72.5 12t53.5 29zM278 486q-59 0 -100 -42t-46 -134h273q1 12 1 31q0 145 -128 145z" />
    <glyph glyph-name="f" unicode="f" horiz-adv-x="359" 
d="M196 0h-78v483h-90v61h91v82q0 65 39 103.5t116 38.5q48 0 84 -12l-16 -66q-29 10 -73 10q-38 0 -55 -18t-17 -55v-83h141v-61h-142v-483z" />
    <glyph glyph-name="g" unicode="g" horiz-adv-x="557" 
d="M474 -4q0 -105 -59.5 -159.5t-164.5 -54.5q-121 0 -179 58l45 62q51 -51 143 -51q73 0 106 35.5t33 109.5v50h-4q-49 -43 -133 -43q-91 0 -149 62t-58 193q0 135 67 213t198 78q97 0 155 -28v-525zM133 268q0 -197 149 -197q74 0 115 53v342q-38 15 -89 15
q-81 0 -128 -54t-47 -159z" />
    <glyph glyph-name="h" unicode="h" horiz-adv-x="574" 
d="M161 0h-78v759h78v-275h4q58 69 157 69q79 0 125.5 -47t46.5 -130v-376h-78v364q0 53 -28.5 86.5t-81.5 33.5q-52 0 -90.5 -28.5t-54.5 -67.5v-388z" />
    <glyph glyph-name="i" unicode="i" horiz-adv-x="289" 
d="M187 0h-78v544h78v-544zM201 703q0 -24 -16.5 -40t-41.5 -16q-23 0 -39.5 16t-16.5 40q0 25 16.5 41t39.5 16q25 0 41.5 -16t16.5 -41z" />
    <glyph glyph-name="j" unicode="j" horiz-adv-x="253" 
d="M166 34q0 -204 -165 -255l-27 65q55 19 84.5 59.5t29.5 132.5v508h78v-510zM180 703q0 -24 -16 -40t-41 -16q-24 0 -40 16t-16 40q0 25 16 41t40 16q25 0 41 -16t16 -41z" />
    <glyph glyph-name="k" unicode="k" horiz-adv-x="501" 
d="M480 0h-99l-205 279v4l195 261h97l-201 -259v-4zM161 0h-78v759h78v-759z" />
    <glyph glyph-name="l" unicode="l" horiz-adv-x="288" 
d="M268 5q-27 -12 -68 -12q-55 0 -83 30t-28 85v651h77v-630q0 -36 13.5 -52.5t43.5 -16.5q23 0 45 11v-66z" />
    <glyph glyph-name="m" unicode="m" horiz-adv-x="859" 
d="M161 0h-78v544h60l16 -58h4q45 69 141 69q109 0 144 -86h4q17 37 58 61.5t101 24.5q82 0 125 -45.5t43 -134.5v-375h-77v359q0 62 -28 94.5t-79 32.5q-47 0 -80 -27t-45 -64v-395h-78v353q0 65 -28 99t-80 34q-48 0 -81 -29t-42 -68v-389z" />
    <glyph glyph-name="n" unicode="n" horiz-adv-x="574" 
d="M161 0h-78v544h59l16 -57h4q18 22 58.5 45t96.5 23q83 0 129 -45.5t48 -134.5v-375h-78v357q0 62 -30 95.5t-87 33.5q-48 0 -85.5 -27.5t-52.5 -69.5v-389z" />
    <glyph glyph-name="o" unicode="o" horiz-adv-x="559" 
d="M505 276q0 -133 -55.5 -209t-173.5 -76q-222 0 -222 280q0 283 228 283q223 0 223 -278zM134 277q0 -111 35.5 -164.5t112.5 -53.5t110 51t33 160q0 111 -35.5 164t-113.5 53q-76 0 -109 -51t-33 -159z" />
    <glyph glyph-name="p" unicode="p" horiz-adv-x="559" 
d="M160 -194h-77v738h58l17 -55h4q48 65 141 65q96 0 149 -65t53 -195q0 -140 -70 -217.5t-189 -77.5q-46 0 -86 9v-202zM160 80q34 -12 82 -12q184 0 184 217q0 106 -40 154t-101 48q-84 0 -125 -76v-331z" />
    <glyph glyph-name="q" unicode="q" horiz-adv-x="557" 
d="M474 -194h-76v226h-4q-51 -42 -134 -42q-91 0 -148.5 64t-57.5 196q0 137 67 218t198 81q97 0 155 -29v-714zM133 260q0 -110 42 -156t107 -46q33 0 64.5 14.5t50.5 38.5v354q-35 16 -90 16q-81 0 -127.5 -57t-46.5 -164z" />
    <glyph glyph-name="r" unicode="r" horiz-adv-x="361" 
d="M160 0h-77v544h59l17 -60h4q19 31 55 50t82 19q35 0 55 -5v-81q-27 8 -61 8q-43 0 -79 -17.5t-55 -52.5v-405z" />
    <glyph glyph-name="s" unicode="s" horiz-adv-x="474" 
d="M416 146q0 -62 -51 -108.5t-143 -46.5q-63 0 -113.5 20t-78.5 49l48 58q58 -60 148 -60q54 0 83.5 24.5t29.5 61.5q0 34 -28.5 56t-68.5 36t-80.5 30.5t-69 50.5t-28.5 85q0 62 50.5 106.5t135.5 44.5q104 0 159 -58l-50 -54q-42 44 -111 44q-53 0 -80 -23t-27 -58
q0 -33 28.5 -55t68.5 -36t80.5 -30.5t69 -51t28.5 -85.5z" />
    <glyph glyph-name="t" unicode="t" horiz-adv-x="381" 
d="M361 20q-44 -25 -122 -25q-139 0 -139 150v336h-81v50l81 15l24 141h53v-143h150v-63h-150v-332q0 -86 79 -86q53 0 83 19z" />
    <glyph glyph-name="u" unicode="u" horiz-adv-x="575" 
d="M412 57q-17 -24 -56 -46t-99 -22q-173 0 -177 183v372h78v-356q0 -132 119 -132q60 0 98 34t39 97v357h78v-544h-61l-15 57h-4z" />
    <glyph glyph-name="v" unicode="v" horiz-adv-x="483" 
d="M288 0h-90l-187 544h85l106 -326q22 -66 40 -143h4q10 44 41 143l104 326h81z" />
    <glyph glyph-name="w" unicode="w" horiz-adv-x="756" 
d="M262 0h-105l-144 544h80l76 -300q26 -102 41 -175h4q20 96 35 154l82 321h100l80 -321q25 -105 35 -154h4q22 101 42 176l77 299h75l-146 -544h-105l-111 464h-4z" />
    <glyph glyph-name="x" unicode="x" horiz-adv-x="480" 
d="M109 0h-91l176 283l-166 261h90l122 -202h4l116 202h91l-165 -263l175 -281h-90l-131 221h-4z" />
    <glyph glyph-name="y" unicode="y" horiz-adv-x="498" 
d="M288 -38q-28 -83 -74 -127t-125 -44q-36 0 -62 10l12 69q25 -9 51 -9q51 0 81 28.5t48 91.5l-197 563h84l88 -267q41 -125 61 -198h4q15 67 56 198l84 267h81z" />
    <glyph glyph-name="z" unicode="z" horiz-adv-x="449" 
d="M403 0h-355l-12 77l272 395v4h-251v68h322l16 -77l-273 -395v-4h281v-68z" />
    <glyph glyph-name="braceleft" unicode="{" horiz-adv-x="331" 
d="M328 -210q-27 -10 -55 -10q-140 0 -140 151q0 43 12 118.5t12 108.5q0 44 -21.5 68.5t-69.5 32.5v76q48 7 69.5 31.5t21.5 69.5q0 32 -12 106.5t-12 117.5q0 151 138 151q30 0 57 -10l-13 -57q-21 8 -42 8q-67 0 -67 -94q0 -36 11.5 -111.5t11.5 -107.5q0 -113 -92 -140
v-4q92 -28 92 -141q0 -32 -11.5 -108.5t-11.5 -112.5q0 -94 67 -94q21 0 42 8z" />
    <glyph glyph-name="bar" unicode="|" horiz-adv-x="273" 
d="M167 -248h-61v1086h61v-1086z" />
    <glyph glyph-name="braceright" unicode="}" horiz-adv-x="331" 
d="M198 -69q0 -151 -140 -151q-29 0 -54 10l12 57q21 -8 42 -8q67 0 67 94q0 36 -11.5 112.5t-11.5 108.5q0 112 93 141v4q-93 27 -93 140q0 32 11.5 107.5t11.5 111.5q0 94 -67 94q-21 0 -42 -8l-12 57q25 10 56 10q138 0 138 -151q0 -43 -11.5 -117.5t-11.5 -106.5
q0 -45 21 -69.5t69 -31.5v-76q-48 -8 -69 -32.5t-21 -68.5q0 -33 11.5 -108.5t11.5 -118.5z" />
    <glyph glyph-name="asciitilde" unicode="~" horiz-adv-x="531" 
d="M90 276q0 -12 3 -26l-68 9q-2 14 -2 24q0 54 30 85t83 31q49 0 134.5 -37.5t120.5 -37.5q49 0 49 54q0 12 -3 26l68 -9q1 -9 1 -30q-2 -52 -31.5 -81.5t-79.5 -29.5t-136 38t-120 38q-49 0 -49 -54z" />
    <glyph glyph-name="exclamdown" unicode="&#xa1;" horiz-adv-x="283" 
d="M195 -154h-102l20 439h62zM202 495q0 -26 -17.5 -43.5t-41.5 -17.5q-26 0 -44 17.5t-18 43.5q0 25 18 42t44 17q24 0 41.5 -17t17.5 -42z" />
    <glyph glyph-name="cent" unicode="&#xa2;" horiz-adv-x="473" 
d="M177 -128h-58l51 141q-115 54 -115 251q0 144 63 216.5t167 72.5q41 0 78 -10l44 121h58l-52 -144q15 -11 27 -25l-57 -56l-136 -376q15 -3 35 -3q67 0 106 44l47 -55q-50 -58 -161 -58q-24 0 -51 5zM133 274q0 -139 62 -188h2l141 389q-21 10 -57 10q-148 0 -148 -211z
" />
    <glyph glyph-name="sterling" unicode="&#xa3;" horiz-adv-x="548" 
d="M514 0h-442l-14 72q35 19 52.5 50t21.5 85l7 103h-76v66h81l10 125q7 95 62.5 145t142.5 50q103 0 158 -63l-53 -56q-42 50 -117 50q-104 0 -113 -123l-10 -128h214v-66h-219l-7 -101q-8 -101 -64 -136v-4h366v-69z" />
    <glyph glyph-name="currency" unicode="&#xa4;" horiz-adv-x="528" 
d="M136 149l-59 -58l-50 49l58 58q-38 53 -38 126q0 72 40 128l-60 61l50 49l60 -61q57 41 130 41q70 0 126 -37l58 57l50 -49l-58 -58q38 -54 38 -125t-42 -129l62 -61l-50 -49l-62 61q-56 -39 -128 -39t-125 36zM115 328q0 -65 42 -107.5t107 -42.5t107 42t42 107
q0 64 -42 107t-107 43t-107 -42.5t-42 -106.5z" />
    <glyph glyph-name="yen" unicode="&#xa5;" horiz-adv-x="518" 
d="M299 0h-80v257h-197v68h159l-179 366h91l104 -223l62 -147h4l63 149l104 221h87l-181 -366h159v-68h-196v-257z" />
    <glyph glyph-name="brokenbar" unicode="&#xa6;" horiz-adv-x="273" 
d="M167 396h-61v342h61v-342zM167 -152h-61v342h61v-342z" />
    <glyph glyph-name="section" unicode="&#xa7;" horiz-adv-x="573" 
d="M513 127q0 -112 -84.5 -189.5t-224.5 -77.5q-49 0 -91 11l12 66q37 -14 83 -14q82 0 120.5 34.5t38.5 84.5q0 40 -31 77t-74.5 69t-87.5 68t-75 89t-31 116q0 113 80 194.5t210 81.5q46 0 81 -9l-12 -64q-37 11 -71 11q-72 0 -111 -31t-39 -82q0 -36 22.5 -70.5t57 -61.5
l74 -60t74 -65.5t57 -79t22.5 -98.5zM422 58q1 -20 -7 -47h5q34 49 34 116q0 52 -30.5 97t-74 78.5l-87.5 67t-75.5 77t-32.5 92.5q0 17 5 40h-4q-30 -46 -30 -114q0 -50 30.5 -94t73.5 -77l86.5 -66.5t74.5 -77t32 -92.5z" />
    <glyph glyph-name="dieresis" unicode="&#xa8;" horiz-adv-x="502" 
d="M396 710q0 -21 -14 -35t-35 -14t-35.5 14t-14.5 35t14.5 35t35.5 14t35 -14t14 -35zM204 710q0 -21 -14 -35t-35 -14q-22 0 -35.5 14t-13.5 35t13.5 35t35.5 14q21 0 35 -14t14 -35z" />
    <glyph glyph-name="copyright" unicode="&#xa9;" horiz-adv-x="834" 
d="M778 346q0 -155 -103 -256.5t-259 -101.5q-159 0 -259.5 99.5t-100.5 255.5t103 257.5t259 101.5q159 0 259.5 -100t100.5 -256zM539 185q-43 -40 -113 -40q-78 0 -121.5 49.5t-43.5 147.5t46.5 152.5t123.5 54.5q79 0 110 -41l-36 -47q-29 32 -77 32q-46 0 -74 -36
t-28 -110q0 -146 105 -146q45 0 74 31zM123 346q0 -128 83.5 -212t211.5 -84t210.5 83t82.5 210q0 129 -83 212.5t-212 83.5t-211 -82.5t-82 -210.5z" />
    <glyph glyph-name="guillemotleft" unicode="&#xab;" horiz-adv-x="493" 
d="M448 99l-51 -39l-153 210l153 212l51 -40l-118 -172zM249 99l-51 -39l-153 210l153 212l51 -40l-118 -172z" />
    <glyph glyph-name="logicalnot" unicode="&#xac;" horiz-adv-x="528" 
d="M507 192h-69v187h-418v66h487v-253z" />
    <glyph glyph-name="registered" unicode="&#xae;" horiz-adv-x="512" 
d="M466 503q0 -93 -59.5 -151.5t-151.5 -58.5t-151 57t-59 150q0 92 60 151t151 59q93 0 151.5 -57t58.5 -150zM91 502q0 -73 46.5 -120.5t116.5 -47.5q73 0 120 47t47 120t-47.5 120t-118.5 47q-72 0 -118 -46t-46 -120zM232 398h-42v218h69q75 0 75 -64q0 -52 -40 -62
l53 -92h-51l-42 81h-22v-81zM232 580v-65h24q35 0 35 33q0 32 -31 32h-28z" />
    <glyph glyph-name="macron" unicode="&#xaf;" horiz-adv-x="502" 
d="M403 668h-305v62h305v-62z" />
    <glyph glyph-name="degree" unicode="&#xb0;" horiz-adv-x="350" 
d="M317 564q0 -61 -41 -100.5t-103 -39.5t-101 37.5t-39 98.5q0 62 41 101.5t103 39.5t101 -37.5t39 -99.5zM89 563q0 -38 25.5 -64t62.5 -26q38 0 61 25.5t23 63.5t-25 64t-63 26q-37 0 -60.5 -25.5t-23.5 -63.5z" />
    <glyph glyph-name="plusminus" unicode="&#xb1;" horiz-adv-x="528" 
d="M497 42h-467v69h198v194h-198v69h198v199h71v-199h198v-69h-198v-194h198v-69z" />
    <glyph glyph-name="twosuperior" unicode="&#xb2;" horiz-adv-x="350" 
d="M310 394h-276l-9 49q16 17 50 50.5l63 63l52 54.5q45 51 45 91q0 63 -66 63q-29 0 -47 -17.5t-23 -42.5l-64 15q10 42 44 69t90 27q63 0 97 -29.5t34 -79.5q0 -63 -63 -131l-70 -73l-62 -57l80 1h125v-53z" />
    <glyph glyph-name="threesuperior" unicode="&#xb3;" horiz-adv-x="353" 
d="M314 511q0 -61 -39 -93.5t-112 -32.5q-92 0 -132 67l51 32q31 -48 88 -48q81 0 81 72q0 36 -24 52.5t-75 16.5h-33v47h34q85 0 85 76q0 28 -18 46.5t-53 18.5q-58 0 -71 -55l-60 12q8 41 43.5 67.5t89.5 26.5q62 0 97.5 -28.5t35.5 -81.5q0 -74 -60 -101q72 -16 72 -94z
" />
    <glyph glyph-name="acute" unicode="&#xb4;" horiz-adv-x="502" 
d="M374 746l-198 -122l-48 36l170 128z" />
    <glyph glyph-name="uni00B5" unicode="&#xb5;" horiz-adv-x="606" 
d="M160 -194h-77v738h78v-346q0 -72 29 -105.5t90 -33.5q63 0 100 36t37 106v343h77v-383q0 -53 14 -75t46 -22q3 0 13 2v-63q-18 -5 -33 -5q-80 0 -100 76h-4q-42 -83 -154 -83q-72 0 -116 44v-229z" />
    <glyph glyph-name="paragraph" unicode="&#xb6;" horiz-adv-x="566" 
d="M281 64q0 -152 -108 -236l-45 44q47 38 69 78.5t22 120.5v245q-4 0 -10.5 -0.5t-9.5 -0.5q-79 0 -125 46.5t-46 139.5q0 99 54 149.5t151 50.5h48v-637zM443 0h-61v701h61v-701z" />
    <glyph glyph-name="periodcentered" unicode="&#xb7;" horiz-adv-x="231" 
d="M177 351q0 -25 -18 -42.5t-45 -17.5q-25 0 -42.5 17.5t-17.5 42.5q0 27 17.5 45t42.5 18q27 0 45 -18t18 -45z" />
    <glyph glyph-name="cedilla" unicode="&#xb8;" horiz-adv-x="502" 
d="M313 -115q0 -88 -98 -122l-27 42q58 28 58 77q0 32 -23 63v4h72q18 -26 18 -64z" />
    <glyph glyph-name="onesuperior" unicode="&#xb9;" horiz-adv-x="291" 
d="M216 394h-64v251q0 25 0.5 48.5t1 37.5t0.5 16h-1l-45 -33l-62 -38l-33 51l137 80h66v-413z" />
    <glyph glyph-name="guillemotright" unicode="&#xbb;" horiz-adv-x="493" 
d="M448 270l-153 -210l-51 39l118 171l-118 172l51 40zM249 270l-153 -210l-51 39l118 171l-118 172l51 40z" />
    <glyph glyph-name="questiondown" unicode="&#xbf;" horiz-adv-x="402" 
d="M151 192l118 108q36 -13 36 -46q0 -20 -18.5 -42.5t-44.5 -44l-52.5 -45t-45 -54.5t-18.5 -64q0 -46 27 -71.5t76 -25.5q72 0 122 50l52 -62q-64 -59 -177 -59q-84 0 -132.5 41t-48.5 116q0 63 26 106t80 93zM175 495q0 25 17.5 42t43.5 17q25 0 42.5 -17t17.5 -42
q0 -26 -17.5 -44t-42.5 -18q-26 0 -43.5 17.5t-17.5 44.5z" />
    <glyph glyph-name="Agrave" unicode="&#xc0;" horiz-adv-x="594" 
d="M254 513l-76 -238h236l-75 236l-41 135h-4q-10 -35 -40 -133zM90 0h-82l227 701h124l227 -701h-84l-65 204h-282zM335 807l-48 -36l-198 122l75 42z" />
    <glyph glyph-name="Aacute" unicode="&#xc1;" horiz-adv-x="594" 
d="M254 513l-76 -238h236l-75 236l-41 135h-4q-10 -35 -40 -133zM90 0h-82l227 701h124l227 -701h-84l-65 204h-282zM492 909l-198 -122l-48 36l170 128z" />
    <glyph glyph-name="Acircumflex" unicode="&#xc2;" horiz-adv-x="594" 
d="M254 513l-76 -238h236l-75 236l-41 135h-4q-10 -35 -40 -133zM90 0h-82l227 701h124l227 -701h-84l-65 204h-282zM296 881l-163 -95l-29 46l192 125l193 -125l-29 -46z" />
    <glyph glyph-name="Atilde" unicode="&#xc3;" horiz-adv-x="594" 
d="M254 513l-76 -238h236l-75 236l-41 135h-4q-10 -35 -40 -133zM90 0h-82l227 701h124l227 -701h-84l-65 204h-282zM232 847q-41 0 -69 -29l-31 50q41 41 96 41q28 0 73.5 -17.5t64.5 -17.5q41 0 64 30l31 -49q-6 -13 -30.5 -28.5t-60.5 -15.5q-24 0 -71 18t-67 18z" />
    <glyph glyph-name="Adieresis" unicode="&#xc4;" horiz-adv-x="594" 
d="M254 513l-76 -238h236l-75 236l-41 135h-4q-10 -35 -40 -133zM90 0h-82l227 701h124l227 -701h-84l-65 204h-282zM250 873q0 -21 -14 -35t-35 -14q-22 0 -35.5 14t-13.5 35t13.5 35t35.5 14q21 0 35 -14t14 -35zM442 873q0 -21 -14 -35t-35 -14t-35.5 14t-14.5 35
t14.5 35t35.5 14t35 -14t14 -35z" />
    <glyph glyph-name="Aring" unicode="&#xc5;" horiz-adv-x="594" 
d="M254 513l-76 -238h236l-75 236l-41 135h-4q-10 -35 -40 -133zM90 0h-82l227 701h124l227 -701h-84l-65 204h-282zM237 879q0 -27 16.5 -44t44.5 -17q27 0 42 16t15 43q0 28 -16 44.5t-44 16.5q-27 0 -42.5 -16t-15.5 -43zM406 881q0 -48 -31 -78.5t-80 -30.5t-78 28
t-29 75q0 48 30.5 78.5t79.5 30.5t78.5 -28t29.5 -75z" />
    <glyph glyph-name="AE" unicode="&#xc6;" horiz-adv-x="850" 
d="M80 0h-85l386 701h407v-71h-279v-239h244v-71h-244v-249h294v-71h-369v216h-235zM430 641l-194 -355h198v355h-4z" />
    <glyph glyph-name="Ccedilla" unicode="&#xc7;" horiz-adv-x="569" 
d="M529 49q-61 -59 -192 -59q-140 0 -208 93.5t-68 261.5q0 174 74 270t213 96q119 0 186 -58l-50 -61q-56 47 -144 47q-94 0 -145.5 -71t-51.5 -216q0 -142 52 -215.5t153 -73.5q92 0 137 43zM394 -115q0 -88 -98 -122l-27 42q58 28 58 77q0 32 -23 63v4h72q18 -26 18 -64z
" />
    <glyph glyph-name="Egrave" unicode="&#xc8;" horiz-adv-x="527" 
d="M480 0h-386v701h372v-71h-292v-239h257v-71h-257v-249h306v-71zM329 823l-48 -36l-198 122l75 42z" />
    <glyph glyph-name="Eacute" unicode="&#xc9;" horiz-adv-x="527" 
d="M480 0h-386v701h372v-71h-292v-239h257v-71h-257v-249h306v-71zM482 909l-198 -122l-48 36l170 128z" />
    <glyph glyph-name="Ecircumflex" unicode="&#xca;" horiz-adv-x="527" 
d="M480 0h-386v701h372v-71h-292v-239h257v-71h-257v-249h306v-71zM273 881l-163 -95l-29 46l192 125l193 -125l-29 -46z" />
    <glyph glyph-name="Edieresis" unicode="&#xcb;" horiz-adv-x="527" 
d="M480 0h-386v701h372v-71h-292v-239h257v-71h-257v-249h306v-71zM424 873q0 -21 -14 -35t-35 -14t-35.5 14t-14.5 35t14.5 35t35.5 14t35 -14t14 -35zM232 873q0 -21 -14 -35t-35 -14q-22 0 -35.5 14t-13.5 35t13.5 35t35.5 14q21 0 35 -14t14 -35z" />
    <glyph glyph-name="Igrave" unicode="&#xcc;" horiz-adv-x="288" 
d="M184 0h-80v701h80v-701zM194 823l-48 -36l-198 122l75 42z" />
    <glyph glyph-name="Iacute" unicode="&#xcd;" horiz-adv-x="288" 
d="M184 0h-80v701h80v-701zM335 909l-198 -122l-48 36l170 128z" />
    <glyph glyph-name="Icircumflex" unicode="&#xce;" horiz-adv-x="288" 
d="M184 0h-80v701h80v-701zM143 881l-163 -95l-29 46l192 125l193 -125l-29 -46z" />
    <glyph glyph-name="Idieresis" unicode="&#xcf;" horiz-adv-x="288" 
d="M184 0h-80v701h80v-701zM289 873q0 -21 -14 -35t-35 -14t-35.5 14t-14.5 35t14.5 35t35.5 14t35 -14t14 -35zM97 873q0 -21 -14 -35t-35 -14q-22 0 -35.5 14t-13.5 35t13.5 35t35.5 14q21 0 35 -14t14 -35z" />
    <glyph glyph-name="Eth" unicode="&#xd0;" horiz-adv-x="652" 
d="M283 0h-182v330h-75v59h75v312h184q158 0 232 -83.5t74 -260.5q0 -357 -308 -357zM180 630v-241h161v-59h-161v-259h103q117 0 171.5 64.5t54.5 212.5q0 152 -57.5 217t-173.5 65h-98z" />
    <glyph glyph-name="Ntilde" unicode="&#xd1;" horiz-adv-x="699" 
d="M171 0h-76v701h112l236 -444q55 -104 81 -158h7q-2 64 -2 188v414h75v-701h-110l-238 447q-33 60 -80 159h-8q3 -90 3 -186v-420zM285 847q-41 0 -69 -29l-31 50q41 41 96 41q28 0 73.5 -17.5t64.5 -17.5q41 0 64 30l31 -49q-6 -13 -30.5 -28.5t-60.5 -15.5q-23 0 -70 18
t-68 18z" />
    <glyph glyph-name="Ograve" unicode="&#xd2;" horiz-adv-x="671" 
d="M608 354q0 -364 -276 -364q-130 0 -199 85t-69 272q0 364 276 364q268 0 268 -357zM146 354q0 -157 49.5 -224.5t141.5 -67.5q93 0 141 65t48 220q0 157 -49.5 224.5t-142.5 67.5q-92 0 -140 -65t-48 -220zM385 823l-48 -36l-198 122l75 42z" />
    <glyph glyph-name="Oacute" unicode="&#xd3;" horiz-adv-x="671" 
d="M608 354q0 -364 -276 -364q-130 0 -199 85t-69 272q0 364 276 364q268 0 268 -357zM146 354q0 -157 49.5 -224.5t141.5 -67.5q93 0 141 65t48 220q0 157 -49.5 224.5t-142.5 67.5q-92 0 -140 -65t-48 -220zM531 909l-198 -122l-48 36l170 128z" />
    <glyph glyph-name="Ocircumflex" unicode="&#xd4;" horiz-adv-x="671" 
d="M608 354q0 -364 -276 -364q-130 0 -199 85t-69 272q0 364 276 364q268 0 268 -357zM146 354q0 -157 49.5 -224.5t141.5 -67.5q93 0 141 65t48 220q0 157 -49.5 224.5t-142.5 67.5q-92 0 -140 -65t-48 -220zM335 881l-163 -95l-29 46l192 125l193 -125l-29 -46z" />
    <glyph glyph-name="Otilde" unicode="&#xd5;" horiz-adv-x="671" 
d="M608 354q0 -364 -276 -364q-130 0 -199 85t-69 272q0 364 276 364q268 0 268 -357zM146 354q0 -157 49.5 -224.5t141.5 -67.5q93 0 141 65t48 220q0 157 -49.5 224.5t-142.5 67.5q-92 0 -140 -65t-48 -220zM271 847q-41 0 -69 -29l-31 50q41 41 96 41q28 0 73.5 -17.5
t64.5 -17.5q41 0 64 30l31 -49q-6 -13 -30.5 -28.5t-60.5 -15.5q-23 0 -70 18t-68 18z" />
    <glyph glyph-name="Odieresis" unicode="&#xd6;" horiz-adv-x="671" 
d="M608 354q0 -364 -276 -364q-130 0 -199 85t-69 272q0 364 276 364q268 0 268 -357zM146 354q0 -157 49.5 -224.5t141.5 -67.5q93 0 141 65t48 220q0 157 -49.5 224.5t-142.5 67.5q-92 0 -140 -65t-48 -220zM481 873q0 -21 -14 -35t-35 -14t-35.5 14t-14.5 35t14.5 35
t35.5 14t35 -14t14 -35zM289 873q0 -21 -14 -35t-35 -14q-22 0 -35.5 14t-13.5 35t13.5 35t35.5 14q21 0 35 -14t14 -35z" />
    <glyph glyph-name="multiply" unicode="&#xd7;" horiz-adv-x="528" 
d="M264 293l-154 -155l-48 49l156 153l-156 154l48 47l153 -155l155 156l48 -49l-156 -153l156 -154l-48 -47z" />
    <glyph glyph-name="Oslash" unicode="&#xd8;" horiz-adv-x="671" 
d="M610 354q0 -364 -279 -364q-101 0 -163 49l-30 -48h-77v2l62 92q-62 86 -62 262q0 364 279 364q98 0 162 -49l33 49h75v-1l-62 -95q62 -90 62 -261zM214 107q45 -45 123 -45q93 0 142 65t49 220q0 119 -32 189zM143 354q0 -122 32 -189l283 429q-45 45 -124 45
q-93 0 -142 -65t-49 -220z" />
    <glyph glyph-name="Ugrave" unicode="&#xd9;" horiz-adv-x="680" 
d="M589 244q0 -124 -67.5 -189t-187.5 -65q-117 0 -180 64t-63 178v469h80v-457q0 -92 45.5 -137t126.5 -45q166 0 166 172v467h80v-457zM388 823l-48 -36l-198 122l75 42z" />
    <glyph glyph-name="Uacute" unicode="&#xda;" horiz-adv-x="680" 
d="M589 244q0 -124 -67.5 -189t-187.5 -65q-117 0 -180 64t-63 178v469h80v-457q0 -92 45.5 -137t126.5 -45q166 0 166 172v467h80v-457zM548 909l-198 -122l-48 36l170 128z" />
    <glyph glyph-name="Ucircumflex" unicode="&#xdb;" horiz-adv-x="680" 
d="M589 244q0 -124 -67.5 -189t-187.5 -65q-117 0 -180 64t-63 178v469h80v-457q0 -92 45.5 -137t126.5 -45q166 0 166 172v467h80v-457zM339 881l-163 -95l-29 46l192 125l193 -125l-29 -46z" />
    <glyph glyph-name="Udieresis" unicode="&#xdc;" horiz-adv-x="680" 
d="M589 244q0 -124 -67.5 -189t-187.5 -65q-117 0 -180 64t-63 178v469h80v-457q0 -92 45.5 -137t126.5 -45q166 0 166 172v467h80v-457zM485 873q0 -21 -14 -35t-35 -14t-35.5 14t-14.5 35t14.5 35t35.5 14t35 -14t14 -35zM293 873q0 -21 -14 -35t-35 -14q-22 0 -35.5 14
t-13.5 35t13.5 35t35.5 14q21 0 35 -14t14 -35z" />
    <glyph glyph-name="Yacute" unicode="&#xdd;" horiz-adv-x="541" 
d="M310 0h-79v253l-232 448h91l181 -366h4l181 366h86l-232 -448v-253zM478 909l-198 -122l-48 36l170 128z" />
    <glyph glyph-name="Thorn" unicode="&#xde;" horiz-adv-x="509" 
d="M171 0h-77v701h77v-142q39 12 93 12q92 0 147 -51.5t55 -155.5q0 -117 -57 -175t-161 -58q-45 0 -77 8v-139zM172 212q33 -9 69 -9q143 0 143 151q0 144 -140 144q-38 0 -72 -10v-276z" />
    <glyph glyph-name="germandbls" unicode="&#xdf;" horiz-adv-x="587" 
d="M548 149q0 -66 -48.5 -111.5t-139.5 -45.5q-88 0 -142 38l33 62q52 -33 114 -33q49 0 78 23t29 62q0 31 -21 56t-51 42l-60 34t-51 42.5t-21 58.5q0 27 19 54t41.5 47t41.5 51t19 65q0 46 -29.5 70t-78.5 24q-57 0 -89 -35t-32 -106v-547h-77v546q0 104 56.5 157
t146.5 53q83 0 131 -43.5t48 -114.5q0 -42 -18 -78.5t-40 -57t-40 -41.5t-18 -36q0 -19 20.5 -36.5t49.5 -34t58.5 -36.5t50 -53.5t20.5 -75.5z" />
    <glyph glyph-name="agrave" unicode="&#xe0;" horiz-adv-x="547" 
d="M372 62q-63 -73 -162 -73q-72 0 -114.5 43t-42.5 102q0 89 82 133.5t229 42.5v59q0 64 -29 89.5t-86 25.5q-83 0 -124 -66l-57 45q65 89 183 89q185 0 185 -165v-246q0 -82 53 -82h14v-57q-11 -6 -28 -6q-76 0 -99 66h-4zM130 140q0 -37 26 -62t72 -25q43 0 79 21.5
t57 52.5v122q-104 4 -169 -23t-65 -86zM305 660l-48 -36l-198 122l75 42z" />
    <glyph glyph-name="aacute" unicode="&#xe1;" horiz-adv-x="547" 
d="M372 62q-63 -73 -162 -73q-72 0 -114.5 43t-42.5 102q0 89 82 133.5t229 42.5v59q0 64 -29 89.5t-86 25.5q-83 0 -124 -66l-57 45q65 89 183 89q185 0 185 -165v-246q0 -82 53 -82h14v-57q-11 -6 -28 -6q-76 0 -99 66h-4zM130 140q0 -37 26 -62t72 -25q43 0 79 21.5
t57 52.5v122q-104 4 -169 -23t-65 -86zM460 746l-198 -122l-48 36l170 128z" />
    <glyph glyph-name="acircumflex" unicode="&#xe2;" horiz-adv-x="547" 
d="M372 62q-63 -73 -162 -73q-72 0 -114.5 43t-42.5 102q0 89 82 133.5t229 42.5v59q0 64 -29 89.5t-86 25.5q-83 0 -124 -66l-57 45q65 89 183 89q185 0 185 -165v-246q0 -82 53 -82h14v-57q-11 -6 -28 -6q-76 0 -99 66h-4zM130 140q0 -37 26 -62t72 -25q43 0 79 21.5
t57 52.5v122q-104 4 -169 -23t-65 -86zM262 718l-163 -95l-29 46l192 125l193 -125l-29 -46z" />
    <glyph glyph-name="atilde" unicode="&#xe3;" horiz-adv-x="547" 
d="M372 62q-63 -73 -162 -73q-72 0 -114.5 43t-42.5 102q0 89 82 133.5t229 42.5v59q0 64 -29 89.5t-86 25.5q-83 0 -124 -66l-57 45q65 89 183 89q185 0 185 -165v-246q0 -82 53 -82h14v-57q-11 -6 -28 -6q-76 0 -99 66h-4zM130 140q0 -37 26 -62t72 -25q43 0 79 21.5
t57 52.5v122q-104 4 -169 -23t-65 -86zM208 684q-41 0 -69 -29l-31 50q41 41 96 41q28 0 73.5 -17.5t64.5 -17.5q41 0 64 30l31 -49q-6 -13 -30.5 -28.5t-60.5 -15.5q-24 0 -71 18t-67 18z" />
    <glyph glyph-name="adieresis" unicode="&#xe4;" horiz-adv-x="547" 
d="M372 62q-63 -73 -162 -73q-72 0 -114.5 43t-42.5 102q0 89 82 133.5t229 42.5v59q0 64 -29 89.5t-86 25.5q-83 0 -124 -66l-57 45q65 89 183 89q185 0 185 -165v-246q0 -82 53 -82h14v-57q-11 -6 -28 -6q-76 0 -99 66h-4zM130 140q0 -37 26 -62t72 -25q43 0 79 21.5
t57 52.5v122q-104 4 -169 -23t-65 -86zM416 710q0 -21 -14 -35t-35 -14t-35.5 14t-14.5 35t14.5 35t35.5 14t35 -14t14 -35zM224 710q0 -21 -14 -35t-35 -14q-22 0 -35.5 14t-13.5 35t13.5 35t35.5 14q21 0 35 -14t14 -35z" />
    <glyph glyph-name="aring" unicode="&#xe5;" horiz-adv-x="547" 
d="M372 62q-63 -73 -162 -73q-72 0 -114.5 43t-42.5 102q0 89 82 133.5t229 42.5v59q0 64 -29 89.5t-86 25.5q-83 0 -124 -66l-57 45q65 89 183 89q185 0 185 -165v-246q0 -82 53 -82h14v-57q-11 -6 -28 -6q-76 0 -99 66h-4zM130 140q0 -37 26 -62t72 -25q43 0 79 21.5
t57 52.5v122q-104 4 -169 -23t-65 -86zM382 718q0 -48 -31 -78.5t-80 -30.5t-78 28t-29 75q0 48 30.5 78.5t79.5 30.5t78.5 -28t29.5 -75zM213 716q0 -27 16.5 -44t44.5 -17q27 0 42 16t15 43q0 28 -16 44.5t-44 16.5q-27 0 -42.5 -16t-15.5 -43z" />
    <glyph glyph-name="ae" unicode="&#xe6;" horiz-adv-x="849" 
d="M405 88q-42 -100 -187 -100q-89 0 -131.5 43.5t-42.5 105.5q0 31 8 56t29.5 48.5t56.5 39.5t92.5 25.5t133.5 9.5v55q0 113 -118 113q-82 0 -124 -63l-56 51q65 80 184 80q132 0 169 -83h4q59 84 166 84q96 0 148.5 -57.5t52.5 -157.5q0 -37 -6 -93h-346q6 -99 48 -141.5
t125 -42.5q82 0 135 49l38 -61q-61 -56 -183 -56q-141 0 -192 95h-4zM122 146q0 -41 29 -68.5t76 -27.5q137 0 137 138v68q-127 0 -184.5 -25t-57.5 -85zM580 486q-57 0 -96.5 -41t-45.5 -136h273q1 13 1 31q0 71 -34 108.5t-98 37.5z" />
    <glyph glyph-name="ccedilla" unicode="&#xe7;" horiz-adv-x="472" 
d="M435 49q-51 -58 -161 -58q-220 0 -220 273q0 144 63 216.5t168 72.5t155 -57l-52 -57q-43 45 -107 45q-147 0 -147 -210q0 -214 147 -214q68 0 106 43zM328 -115q0 -88 -98 -122l-27 42q58 28 58 77q0 32 -23 63v4h72q18 -26 18 -64z" />
    <glyph glyph-name="egrave" unicode="&#xe8;" horiz-adv-x="543" 
d="M464 42q-65 -49 -171 -49q-120 0 -179.5 66.5t-59.5 215.5q0 139 66 208.5t165 69.5q95 0 146.5 -57t51.5 -156q0 -41 -6 -94h-346q5 -99 47 -142t125 -43q38 0 72.5 12t53.5 29zM278 486q-59 0 -100 -42t-46 -134h273q1 12 1 31q0 145 -128 145zM329 660l-48 -36
l-198 122l75 42z" />
    <glyph glyph-name="eacute" unicode="&#xe9;" horiz-adv-x="543" 
d="M464 42q-65 -49 -171 -49q-120 0 -179.5 66.5t-59.5 215.5q0 139 66 208.5t165 69.5q95 0 146.5 -57t51.5 -156q0 -41 -6 -94h-346q5 -99 47 -142t125 -43q38 0 72.5 12t53.5 29zM278 486q-59 0 -100 -42t-46 -134h273q1 12 1 31q0 145 -128 145zM485 746l-198 -122
l-48 36l170 128z" />
    <glyph glyph-name="ecircumflex" unicode="&#xea;" horiz-adv-x="543" 
d="M464 42q-65 -49 -171 -49q-120 0 -179.5 66.5t-59.5 215.5q0 139 66 208.5t165 69.5q95 0 146.5 -57t51.5 -156q0 -41 -6 -94h-346q5 -99 47 -142t125 -43q38 0 72.5 12t53.5 29zM278 486q-59 0 -100 -42t-46 -134h273q1 12 1 31q0 145 -128 145zM270 718l-163 -95
l-29 46l192 125l193 -125l-29 -46z" />
    <glyph glyph-name="edieresis" unicode="&#xeb;" horiz-adv-x="543" 
d="M464 42q-65 -49 -171 -49q-120 0 -179.5 66.5t-59.5 215.5q0 139 66 208.5t165 69.5q95 0 146.5 -57t51.5 -156q0 -41 -6 -94h-346q5 -99 47 -142t125 -43q38 0 72.5 12t53.5 29zM278 486q-59 0 -100 -42t-46 -134h273q1 12 1 31q0 145 -128 145zM416 710q0 -21 -14 -35
t-35 -14t-35.5 14t-14.5 35t14.5 35t35.5 14t35 -14t14 -35zM224 710q0 -21 -14 -35t-35 -14q-22 0 -35.5 14t-13.5 35t13.5 35t35.5 14q21 0 35 -14t14 -35z" />
    <glyph glyph-name="igrave" unicode="&#xec;" horiz-adv-x="289" 
d="M187 0h-78v544h78v-544zM198 660l-48 -36l-198 122l75 42z" />
    <glyph glyph-name="iacute" unicode="&#xed;" horiz-adv-x="289" 
d="M187 0h-78v544h78v-544zM338 746l-198 -122l-48 36l170 128z" />
    <glyph glyph-name="icircumflex" unicode="&#xee;" horiz-adv-x="289" 
d="M187 0h-78v544h78v-544zM144 718l-163 -95l-29 46l192 125l193 -125l-29 -46z" />
    <glyph glyph-name="idieresis" unicode="&#xef;" horiz-adv-x="289" 
d="M187 0h-78v544h78v-544zM290 710q0 -21 -14 -35t-35 -14t-35.5 14t-14.5 35t14.5 35t35.5 14t35 -14t14 -35zM98 710q0 -21 -14 -35t-35 -14q-22 0 -35.5 14t-13.5 35t13.5 35t35.5 14q21 0 35 -14t14 -35z" />
    <glyph glyph-name="eth" unicode="&#xf0;" horiz-adv-x="526" 
d="M465 269q0 -127 -55 -199t-161 -72q-92 0 -147 59t-55 160q0 108 59.5 167t146.5 59q64 0 109 -24l2 2q-24 76 -77 138l-149 -83v62l109 62q-56 50 -134 94v7h114q42 -24 85 -67l126 71v-62l-88 -50q115 -144 115 -324zM124 224q0 -78 35.5 -117.5t98.5 -39.5
q131 0 131 191q0 47 -7 82q-51 37 -122 37q-64 0 -100 -37.5t-36 -115.5z" />
    <glyph glyph-name="ntilde" unicode="&#xf1;" horiz-adv-x="574" 
d="M161 0h-78v544h59l16 -57h4q18 22 58.5 45t96.5 23q83 0 129 -45.5t48 -134.5v-375h-78v357q0 62 -30 95.5t-87 33.5q-48 0 -85.5 -27.5t-52.5 -69.5v-389zM222 684q-41 0 -69 -29l-31 50q41 41 96 41q28 0 73.5 -17.5t64.5 -17.5q41 0 64 30l31 -49q-6 -13 -30.5 -28.5
t-60.5 -15.5q-24 0 -71 18t-67 18z" />
    <glyph glyph-name="ograve" unicode="&#xf2;" horiz-adv-x="559" 
d="M505 276q0 -133 -55.5 -209t-173.5 -76q-222 0 -222 280q0 283 228 283q223 0 223 -278zM134 277q0 -111 35.5 -164.5t112.5 -53.5t110 51t33 160q0 111 -35.5 164t-113.5 53q-76 0 -109 -51t-33 -159zM328 660l-48 -36l-198 122l75 42z" />
    <glyph glyph-name="oacute" unicode="&#xf3;" horiz-adv-x="559" 
d="M505 276q0 -133 -55.5 -209t-173.5 -76q-222 0 -222 280q0 283 228 283q223 0 223 -278zM134 277q0 -111 35.5 -164.5t112.5 -53.5t110 51t33 160q0 111 -35.5 164t-113.5 53q-76 0 -109 -51t-33 -159zM473 746l-198 -122l-48 36l170 128z" />
    <glyph glyph-name="ocircumflex" unicode="&#xf4;" horiz-adv-x="559" 
d="M505 276q0 -133 -55.5 -209t-173.5 -76q-222 0 -222 280q0 283 228 283q223 0 223 -278zM134 277q0 -111 35.5 -164.5t112.5 -53.5t110 51t33 160q0 111 -35.5 164t-113.5 53q-76 0 -109 -51t-33 -159zM279 718l-163 -95l-29 46l192 125l193 -125l-29 -46z" />
    <glyph glyph-name="otilde" unicode="&#xf5;" horiz-adv-x="559" 
d="M505 276q0 -133 -55.5 -209t-173.5 -76q-222 0 -222 280q0 283 228 283q223 0 223 -278zM134 277q0 -111 35.5 -164.5t112.5 -53.5t110 51t33 160q0 111 -35.5 164t-113.5 53q-76 0 -109 -51t-33 -159zM215 684q-41 0 -69 -29l-31 50q41 41 96 41q28 0 73.5 -17.5
t64.5 -17.5q41 0 64 30l31 -49q-6 -13 -30.5 -28.5t-60.5 -15.5q-23 0 -70 18t-68 18z" />
    <glyph glyph-name="odieresis" unicode="&#xf6;" horiz-adv-x="559" 
d="M505 276q0 -133 -55.5 -209t-173.5 -76q-222 0 -222 280q0 283 228 283q223 0 223 -278zM134 277q0 -111 35.5 -164.5t112.5 -53.5t110 51t33 160q0 111 -35.5 164t-113.5 53q-76 0 -109 -51t-33 -159zM425 710q0 -21 -14 -35t-35 -14t-35.5 14t-14.5 35t14.5 35t35.5 14
t35 -14t14 -35zM233 710q0 -21 -14 -35t-35 -14q-22 0 -35.5 14t-13.5 35t13.5 35t35.5 14q21 0 35 -14t14 -35z" />
    <glyph glyph-name="divide" unicode="&#xf7;" horiz-adv-x="528" 
d="M497 305h-467v69h467v-69zM321 159q0 -24 -17 -40.5t-42 -16.5q-24 0 -40.5 17t-16.5 40q0 25 16.5 42t40.5 17q25 0 42 -17t17 -42zM321 520q0 -24 -17 -41t-42 -17q-24 0 -40.5 17t-16.5 41q0 25 16.5 42t40.5 17q25 0 42 -17t17 -42z" />
    <glyph glyph-name="oslash" unicode="&#xf8;" horiz-adv-x="559" 
d="M125 -9h-70v3l49 72q-50 69 -50 205q0 283 228 283q79 0 129 -35l23 35h69v-3l-49 -72q51 -69 51 -203q0 -133 -55.5 -209t-173.5 -76q-78 0 -127 35zM191 88q33 -29 91 -29q77 0 110.5 51t33.5 160q0 81 -22 133zM133 277q0 -88 22 -136l213 316q-33 30 -92 30
q-76 0 -109.5 -51t-33.5 -159z" />
    <glyph glyph-name="ugrave" unicode="&#xf9;" horiz-adv-x="575" 
d="M412 57q-17 -24 -56 -46t-99 -22q-173 0 -177 183v372h78v-356q0 -132 119 -132q60 0 98 34t39 97v357h78v-544h-61l-15 57h-4zM335 660l-48 -36l-198 122l75 42z" />
    <glyph glyph-name="uacute" unicode="&#xfa;" horiz-adv-x="575" 
d="M412 57q-17 -24 -56 -46t-99 -22q-173 0 -177 183v372h78v-356q0 -132 119 -132q60 0 98 34t39 97v357h78v-544h-61l-15 57h-4zM493 746l-198 -122l-48 36l170 128z" />
    <glyph glyph-name="ucircumflex" unicode="&#xfb;" horiz-adv-x="575" 
d="M412 57q-17 -24 -56 -46t-99 -22q-173 0 -177 183v372h78v-356q0 -132 119 -132q60 0 98 34t39 97v357h78v-544h-61l-15 57h-4zM287 718l-163 -95l-29 46l192 125l193 -125l-29 -46z" />
    <glyph glyph-name="udieresis" unicode="&#xfc;" horiz-adv-x="575" 
d="M412 57q-17 -24 -56 -46t-99 -22q-173 0 -177 183v372h78v-356q0 -132 119 -132q60 0 98 34t39 97v357h78v-544h-61l-15 57h-4zM432 710q0 -21 -14 -35t-35 -14t-35.5 14t-14.5 35t14.5 35t35.5 14t35 -14t14 -35zM240 710q0 -21 -14 -35t-35 -14q-22 0 -35.5 14
t-13.5 35t13.5 35t35.5 14q21 0 35 -14t14 -35z" />
    <glyph glyph-name="yacute" unicode="&#xfd;" horiz-adv-x="498" 
d="M288 -38q-28 -83 -74 -127t-125 -44q-36 0 -62 10l12 69q25 -9 51 -9q51 0 81 28.5t48 91.5l-197 563h84l88 -267q41 -125 61 -198h4q15 67 56 198l84 267h81zM462 746l-198 -122l-48 36l170 128z" />
    <glyph glyph-name="thorn" unicode="&#xfe;" horiz-adv-x="558" 
d="M160 -190h-77v943h77v-251h4q45 48 134 48q91 0 148.5 -65t57.5 -196q0 -140 -67 -219t-189 -79q-52 0 -88 12v-193zM160 74q39 -14 91 -14q80 0 127 55.5t47 165.5q0 109 -42 155t-106 46q-32 0 -65 -15t-52 -41v-352z" />
    <glyph glyph-name="ydieresis" unicode="&#xff;" horiz-adv-x="498" 
d="M288 -38q-28 -83 -74 -127t-125 -44q-36 0 -62 10l12 69q25 -9 51 -9q51 0 81 28.5t48 91.5l-197 563h84l88 -267q41 -125 61 -198h4q15 67 56 198l84 267h81zM394 710q0 -21 -14 -35t-35 -14t-35.5 14t-14.5 35t14.5 35t35.5 14t35 -14t14 -35zM202 710q0 -21 -14 -35
t-35 -14q-22 0 -35.5 14t-13.5 35t13.5 35t35.5 14q21 0 35 -14t14 -35z" />
    <glyph glyph-name="dotlessi" unicode="&#x131;" horiz-adv-x="289" 
d="M187 0h-78v544h78v-544z" />
    <glyph glyph-name="Lslash" unicode="&#x141;" horiz-adv-x="496" 
d="M481 0h-381v290l-62 -45v68l62 45v343h80v-285l141 103v-67l-141 -103v-278h301v-71z" />
    <glyph glyph-name="lslash" unicode="&#x142;" horiz-adv-x="300" 
d="M273 5q-27 -12 -68 -12q-55 0 -83 30t-28 85v206l-56 -43v67l56 43v378h77v-318l99 77v-67l-99 -77v-245q0 -36 13.5 -52.5t43.5 -16.5q23 0 45 11v-66z" />
    <glyph glyph-name="OE" unicode="&#x152;" horiz-adv-x="963" 
d="M533 88q-58 -98 -202 -98q-270 0 -270 357q0 187 73.5 275.5t205.5 88.5q137 0 193 -92h3v82h366v-71h-294v-239h258v-71h-258v-249h308v-71h-380v88h-3zM143 354q0 -156 50.5 -224t144.5 -68q93 0 143 65t50 220q0 156 -51.5 224t-145.5 68q-93 0 -142 -65t-49 -220z
" />
    <glyph glyph-name="oe" unicode="&#x153;" horiz-adv-x="914" 
d="M462 98q-53 -107 -186 -107q-222 0 -222 280q0 283 228 283q137 0 182 -106h5q54 105 186 105q96 0 148 -57.5t52 -157.5q0 -37 -6 -93h-347q0 -1 0.5 -3l0.5 -2q7 -96 50 -137.5t124 -41.5t134 49l38 -61q-61 -56 -182 -56q-151 0 -201 105h-4zM134 277
q0 -111 35.5 -164.5t113.5 -53.5t111 51.5t33 165.5q0 211 -151 211q-76 0 -109 -51t-33 -159zM503 315v-6h273q1 13 1 31q0 71 -33.5 108.5t-97.5 37.5q-56 0 -96 -39.5t-47 -131.5z" />
    <glyph glyph-name="Scaron" unicode="&#x160;" horiz-adv-x="533" 
d="M484 184q0 -83 -62.5 -138.5t-171.5 -55.5q-137 0 -219 74l47 64q80 -66 179 -66q69 0 107.5 33t38.5 84q0 32 -18.5 57t-48 42t-65 33t-71 34t-65 40.5t-48 57.5t-18.5 80q0 80 61.5 134t155.5 54q109 0 181 -59l-49 -62q-60 48 -137 48q-60 0 -95.5 -30.5t-35.5 -79.5
q0 -33 18.5 -58.5t48 -43t65 -33.5t71 -34t65 -40t48 -56.5t18.5 -78.5zM470 911l-193 -125l-192 125l29 46l163 -95l164 95z" />
    <glyph glyph-name="scaron" unicode="&#x161;" horiz-adv-x="474" 
d="M416 146q0 -62 -51 -108.5t-143 -46.5q-63 0 -113.5 20t-78.5 49l48 58q58 -60 148 -60q54 0 83.5 24.5t29.5 61.5q0 34 -28.5 56t-68.5 36t-80.5 30.5t-69 50.5t-28.5 85q0 62 50.5 106.5t135.5 44.5q104 0 159 -58l-50 -54q-42 44 -111 44q-53 0 -80 -23t-27 -58
q0 -33 28.5 -55t68.5 -36t80.5 -30.5t69 -51t28.5 -85.5zM429 748l-193 -125l-192 125l29 46l163 -95l164 95z" />
    <glyph glyph-name="Ydieresis" unicode="&#x178;" horiz-adv-x="541" 
d="M310 0h-79v253l-232 448h91l181 -366h4l181 366h86l-232 -448v-253zM416 873q0 -21 -14 -35t-35 -14t-35.5 14t-14.5 35t14.5 35t35.5 14t35 -14t14 -35zM224 873q0 -21 -14 -35t-35 -14q-22 0 -35.5 14t-13.5 35t13.5 35t35.5 14q21 0 35 -14t14 -35z" />
    <glyph glyph-name="Zcaron" unicode="&#x17d;" horiz-adv-x="516" 
d="M479 0h-438l-13 72l354 553v4h-322v72h403l13 -72l-352 -553v-4h355v-72zM450 911l-193 -125l-192 125l29 46l163 -95l164 95z" />
    <glyph glyph-name="zcaron" unicode="&#x17e;" horiz-adv-x="449" 
d="M403 0h-355l-12 77l272 395v4h-251v68h322l16 -77l-273 -395v-4h281v-68zM417 748l-193 -125l-192 125l29 46l163 -95l164 95z" />
    <glyph glyph-name="florin" unicode="&#x192;" horiz-adv-x="507" 
d="M225 -22q-10 -77 -56.5 -123.5t-123.5 -46.5q-60 0 -84 15l26 69q27 -16 66 -16q81 0 95 102l45 355h-99v66h107l16 127q9 77 55.5 123.5t123.5 46.5q59 0 84 -15l-26 -68q-23 14 -66 14q-81 0 -94 -101l-15 -127h130v-66h-138z" />
    <glyph glyph-name="circumflex" unicode="&#x2c6;" horiz-adv-x="502" 
d="M250 718l-163 -95l-29 46l192 125l193 -125l-29 -46z" />
    <glyph glyph-name="caron" unicode="&#x2c7;" horiz-adv-x="502" 
d="M443 748l-193 -125l-192 125l29 46l163 -95l164 95z" />
    <glyph glyph-name="breve" unicode="&#x2d8;" horiz-adv-x="502" 
d="M420 736q-57 -97 -169 -97t-169 97l52 33q4 -8 10.5 -17t20 -22.5t36.5 -22t50 -8.5q79 0 117 70z" />
    <glyph glyph-name="dotaccent" unicode="&#x2d9;" horiz-adv-x="502" 
d="M308 705q0 -24 -16.5 -40.5t-41.5 -16.5q-24 0 -40.5 16.5t-16.5 40.5q0 25 16.5 41.5t40.5 16.5q25 0 41.5 -16.5t16.5 -41.5z" />
    <glyph glyph-name="ring" unicode="&#x2da;" horiz-adv-x="502" 
d="M360 718q0 -48 -31 -78.5t-80 -30.5t-78 28t-29 75q0 48 30.5 78.5t79.5 30.5t78.5 -28t29.5 -75zM191 716q0 -27 16.5 -44t44.5 -17q27 0 42 16t15 43q0 28 -16 44.5t-44 16.5q-27 0 -42.5 -16t-15.5 -43z" />
    <glyph glyph-name="ogonek" unicode="&#x2db;" horiz-adv-x="502" 
d="M351 -219q-31 -12 -78 -12q-62 0 -92.5 30t-30.5 78q0 100 150 172l31 -38q-43 -22 -78 -55.5t-35 -70.5q0 -58 73 -58q28 0 48 10z" />
    <glyph glyph-name="tilde" unicode="&#x2dc;" horiz-adv-x="502" 
d="M186 684q-41 0 -69 -29l-31 50q41 41 96 41q28 0 73.5 -17.5t64.5 -17.5q41 0 64 30l31 -49q-6 -13 -30.5 -28.5t-60.5 -15.5q-24 0 -70.5 18t-67.5 18z" />
    <glyph glyph-name="hungarumlaut" unicode="&#x2dd;" horiz-adv-x="502" 
d="M262 745l-191 -126l-46 38l172 133zM476 735l-199 -116l-41 42l180 123z" />
    <glyph glyph-name="danda" unicode="&#x964;" horiz-adv-x="477" 
d="M277 0h-77v642h77v-642z" />
    <glyph glyph-name="doubledanda" unicode="&#x965;" horiz-adv-x="743" 
d="M543 0h-77v642h77v-642zM277 0h-77v642h77v-642z" />
    <glyph glyph-name="bnAnji" unicode="&#x980;" horiz-adv-x="565" 
d="M591 42q-38 -42 -102 -42q-123 0 -123 141v344q0 87 -86 87q-63 0 -109 -47t-46 -111q0 -95 114 -95q32 0 64 10l14 -63q-43 -17 -87 -17q-77 0 -128.5 41.5t-51.5 124.5q0 94 65.5 160.5t167.5 66.5q76 0 116.5 -41t40.5 -114v-335q0 -43 9.5 -63t38.5 -20q36 0 61 29z
" />
    <glyph glyph-name="bnCandrabindu" unicode="&#x981;" 
d="M67 832q-30 -52 -83 -82.5t-120 -30.5q-68 0 -121 30.5t-83 82.5l55 33q51 -83 149 -83q97 0 148 83zM-91 903q0 -20 -13 -33t-32 -13q-21 0 -33.5 13t-12.5 33q0 21 12.5 34t33.5 13q19 0 32 -13.5t13 -33.5z" />
    <glyph glyph-name="bnAnusvara" unicode="&#x982;" horiz-adv-x="437" 
d="M393 27l-51 -37l-306 239l68 46zM374 502q0 -63 -45.5 -106t-109.5 -43q-66 0 -110.5 40t-44.5 104q0 63 46 106.5t109 43.5q66 0 110.5 -40.5t44.5 -104.5zM133 503q0 -40 24.5 -65.5t63.5 -25.5q36 0 59.5 24.5t23.5 60.5q0 38 -24.5 64.5t-61.5 26.5t-60.5 -25
t-24.5 -60z" />
    <glyph glyph-name="bnVisarga" unicode="&#x983;" horiz-adv-x="428" 
d="M354 508q0 -56 -41 -95.5t-99 -39.5q-60 0 -100 36.5t-40 94.5q0 57 41 96.5t99 39.5q60 0 100 -36.5t40 -95.5zM354 129q0 -56 -41 -95.5t-99 -39.5q-60 0 -100 36.5t-40 94.5q0 57 41 96.5t99 39.5q60 0 100 -37t40 -95zM139 130q0 -34 21.5 -56.5t55.5 -22.5
q31 0 51.5 21.5t20.5 52.5q0 33 -21 56t-54 23q-32 0 -53 -21.5t-21 -52.5zM139 509q0 -34 21.5 -56.5t55.5 -22.5q31 0 51.5 21.5t20.5 52.5q0 33 -21 56t-54 23q-32 0 -53 -21.5t-21 -52.5z" />
    <glyph glyph-name="bnA" unicode="&#x985;" horiz-adv-x="893" 
d="M913 578h-119v-519l38 -27l-55 -45l-231 171q-67 -65 -170 -65q-141 0 -227.5 103t-121.5 279l67 30q30 -159 99 -253t183 -94q74 0 117 46t43 117q0 60 -27 93t-73 33q-36 0 -57 -20t-21 -56q0 -46 43 -70l-53 -39q-30 16 -47 47t-17 67q0 60 40.5 100t109.5 40
q77 0 126 -55.5t49 -140.5q0 -57 -24 -107l138 -105l4 1q-6 80 -6 199v270h-741v64h933v-64z" />
    <glyph glyph-name="bnAA" unicode="&#x986;" horiz-adv-x="1167" 
d="M1066 0h-73v495q0 83 -80 83h-119v-519l38 -27l-55 -45l-231 171q-67 -65 -170 -65q-141 0 -227.5 103t-121.5 279l67 30q30 -159 99 -253t183 -94q74 0 117 46t43 117q0 60 -27 93t-73 33q-36 0 -57 -20t-21 -56q0 -46 43 -70l-53 -39q-30 16 -47 47t-17 67
q0 60 40.5 100t109.5 40q77 0 126 -55.5t49 -140.5q0 -57 -24 -107l138 -105l4 1q-6 80 -6 199v270h-741v64h945q53 0 78 -35h5q-14 37 -14 105v29h72v-99h120v-64h-120v-578z" />
    <glyph glyph-name="bnI" unicode="&#x987;" horiz-adv-x="494" 
d="M468 6l-51 -49q-192 116 -240.5 140.5t-107.5 32.5v63h65q111 0 162.5 41.5t51.5 108.5q0 47 -30.5 76t-79.5 29q-43 0 -68.5 -23.5t-25.5 -62.5q0 -45 43 -72l-53 -40q-63 38 -63 115q0 66 46 108.5t120 42.5q81 0 132 -49t51 -127q0 -83 -52.5 -133t-145.5 -61v-4
q40 -11 140 -72zM419 687q0 -13 -4 -45h99v-64h-534v64h362q4 19 4 40q0 43 -26.5 61.5t-85.5 18.5h-58q-86 0 -122.5 36t-36.5 92q0 20 2 30l69 15q-3 -33 -3 -35q0 -33 20.5 -53t75.5 -20h64q77 0 125.5 -36.5t48.5 -103.5z" />
    <glyph glyph-name="bnII" unicode="&#x988;" horiz-adv-x="658" 
d="M569 -1h-70q-21 79 -21 175q0 124 32 204l-132 -120q-10 -83 -52.5 -136.5t-119.5 -53.5q-59 0 -100 31.5t-56 70.5l56 39q32 -74 101 -74q54 0 79 47t25 120q0 149 -97 149q-36 0 -57 -19.5t-21 -51.5q0 -43 32 -64l-52 -37q-51 31 -51 104q0 59 40.5 95.5t107.5 36.5
q73 0 114 -45t50 -123l168 150l63 -35q-59 -112 -59 -286q0 -82 20 -177zM678 578h-698v64h523q4 19 4 40q0 43 -26.5 61.5t-85.5 18.5h-171q-86 0 -123.5 36.5t-37.5 92.5q0 19 2 29l70 15q-3 -17 -3 -33q0 -75 98 -75h176q77 0 125.5 -36.5t48.5 -103.5q0 -18 -5 -45h103
v-64z" />
    <glyph glyph-name="bnU" unicode="&#x989;" horiz-adv-x="668" 
d="M595 687q0 -18 -5 -45h86v-64h-352v-158q0 -55 47 -55q29 0 76 21t95 66q29 -19 52 -61.5t23 -94.5q0 -105 -70 -170t-187 -65q-144 0 -229.5 103t-92.5 255l70 15q5 -142 74.5 -223.5t178.5 -81.5q83 0 133.5 45.5t50.5 119.5q0 43 -17 65q-74 -62 -162 -62
q-54 0 -85 33.5t-31 85.5v162h-258v64h526q4 28 4 40q0 43 -26.5 61.5t-85.5 18.5h-216q-87 0 -124.5 36.5t-37.5 92.5q0 19 2 29l70 15q-3 -17 -3 -33q0 -75 98 -75h222q77 0 125.5 -36.5t48.5 -103.5z" />
    <glyph glyph-name="bnUU" unicode="&#x98a;" horiz-adv-x="683" 
d="M618 687q0 -24 -4 -45h89v-64h-354v-151q0 -55 53 -55q60 0 155 85q75 -60 75 -167q0 -102 -67 -166.5t-182 -64.5q-87 0 -156 30t-109.5 78.5t-62.5 102t-25 108.5l53 14q2 -36 10.5 -71.5t26 -73t51 -69.5t79.5 -52l4 4q-66 37 -103 123.5t-28 195.5l58 12
q-15 -141 38 -238t166 -97q83 0 129.5 45.5t46.5 117.5q0 50 -17 76q-74 -61 -148 -61q-57 0 -89 33t-32 87v154h-295v64h561q5 23 5 40q0 42 -27 61t-85 19h-225q-86 0 -123.5 36.5t-37.5 92.5q0 19 2 29l69 15l-3 -33q0 -75 98 -75h231q77 0 125 -36.5t48 -103.5z" />
    <glyph glyph-name="bnvR" unicode="&#x98b;" horiz-adv-x="752" 
d="M127 258l233 -152h4q-7 95 -7 195v93q-63 -16 -127 -55t-103 -81zM667 163l-68 -35l-171 117v-181l42 -27l-51 -50l-366 236v69q56 57 141.5 107t170.5 71v4l-94 80q-51 -100 -152 -100q-58 0 -92 32.5t-34 80.5q0 44 17 75h73q-20 -38 -20 -68q0 -25 15.5 -40.5
t43.5 -15.5q39 0 68.5 27.5t51.5 98.5h28q50 -42 92 -81q-5 40 -5 126v52h71v-412l172 -119l3 2q-8 48 -8 152v377h72v-99h105v-64h-105v-415z" />
    <glyph glyph-name="bnvL" unicode="&#x98c;" horiz-adv-x="614" 
d="M559 262q0 -121 -79 -191.5t-207 -73.5l-40 52q79 83 79 191q0 50 -25 78.5t-71 28.5q-44 0 -70 -22.5t-26 -64.5q0 -71 84 -84l-22 -63q-59 10 -96.5 47.5t-37.5 99.5q0 76 47 115.5t119 39.5q73 0 120 -49t47 -125q0 -94 -48 -170q76 16 114.5 67t38.5 126
q0 54 -19 94.5t-50 64.5t-68 43.5l-74.5 37.5t-68.5 40.5t-50 59.5t-19 87q0 19 5 34l72 13q-5 -18 -5 -34q0 -40 19.5 -69.5t50 -48.5t68 -36t75 -39.5t68 -52t50 -79.5t19.5 -117z" />
    <glyph glyph-name="bnE" unicode="&#x98f;" horiz-adv-x="707" 
d="M607 0h-66q-4 41 -37.5 61.5t-106.5 20.5q-15 0 -61.5 -1.5t-63.5 -1.5q-102 0 -159.5 46t-57.5 121q0 63 33 107l70 -29q-29 -32 -29 -79q0 -45 37.5 -72t117.5 -27q22 0 64.5 1.5t57.5 1.5q94 0 131 -34h4q-6 42 -6 207v219q0 43 -45 43q-62 0 -122 -61t-60 -119
q0 -60 61 -60q39 0 65 23l29 -58q-41 -31 -97 -31q-61 0 -96.5 34.5t-35.5 90.5q0 85 81 167t178 82q55 0 84.5 -29.5t29.5 -82.5v-540z" />
    <glyph glyph-name="bnAI" unicode="&#x990;" horiz-adv-x="758" 
d="M776 590q0 -65 -46.5 -113t-122.5 -55v-422h-66q-4 41 -37.5 61.5t-106.5 20.5q-15 0 -61.5 -1.5t-63.5 -1.5q-102 0 -159.5 46t-57.5 121q0 63 33 107l70 -29q-29 -32 -29 -79q0 -45 37.5 -72t117.5 -27q22 0 64.5 1.5t57.5 1.5q94 0 131 -34h4q-6 42 -6 207v219
q0 43 -45 43q-62 0 -122 -61t-60 -119q0 -60 61 -60q39 0 65 23l29 -58q-41 -31 -97 -31q-61 0 -96.5 34.5t-35.5 90.5q0 85 81 167t178 82q55 0 84.5 -29.5t29.5 -82.5v-52q41 6 68 33t27 70q0 86 -128 126l-202 62q-77 25 -119.5 69t-42.5 106q0 49 31 84l68 -25
q-24 -26 -24 -61q0 -39 30.5 -66.5t105.5 -51.5l161 -50q194 -62 194 -194z" />
    <glyph glyph-name="bnO" unicode="&#x993;" horiz-adv-x="601" 
d="M492 496q0 -79 -58 -131q107 -66 107 -171q0 -75 -50.5 -126t-139.5 -51q-61 0 -116 31t-95 83.5t-69 111.5t-47 124l66 27q33 -130 103.5 -219t157.5 -89q55 0 85.5 31.5t30.5 78.5q0 79 -94 129q-32 -15 -74 -25l-36 62q156 27 156 134q0 40 -26 64.5t-70 24.5
q-62 0 -115 -59l-52 50q70 75 166 75q71 0 120.5 -43.5t49.5 -111.5z" />
    <glyph glyph-name="bnAU" unicode="&#x994;" horiz-adv-x="711" 
d="M681 565q0 -94 -65 -144.5t-157 -50.5h-19q-4 -4 -6 -5q107 -66 107 -171q0 -75 -50.5 -126t-139.5 -51q-61 0 -116 31t-95 83.5t-69 111.5t-47 124l66 27q33 -130 103.5 -219t157.5 -89q55 0 85.5 31.5t30.5 78.5q0 79 -94 129q-32 -15 -74 -25l-36 62q156 27 156 134
q0 40 -26 64.5t-70 24.5q-62 0 -115 -59l-52 50q70 75 166 75q71 0 120.5 -43.5t49.5 -111.5q0 -37 -12 -67q58 9 93 44.5t35 94.5q0 35 -17.5 65t-46 52t-62.5 43l-68.5 43t-63 46t-46 58t-17.5 74q0 39 22 73l71 -25q-18 -22 -18 -53q0 -38 33 -71t80 -61t93.5 -59
t79.5 -79.5t33 -108.5z" />
    <glyph glyph-name="bnKA" unicode="&#x995;" horiz-adv-x="691" 
d="M456 34l-57 -44l-348 287v64q140 120 292 141v96h-363v64h731v-64h-296v-92q104 -2 165 -59t61 -135q0 -56 -28 -101.5t-73 -69.5l-51 53q34 14 57 46.5t23 72.5q0 54 -40.5 89t-113.5 36v-351zM124 307l222 -187h4q-7 84 -7 201v91q-110 -16 -219 -105z" />
    <glyph glyph-name="bnKHA" unicode="&#x996;" horiz-adv-x="657" 
d="M601 40l-48 -53l-508 255v71q131 9 196.5 53t65.5 113q0 44 -32 73q-24 -52 -63 -79.5t-87 -27.5q-58 0 -93.5 32.5t-35.5 82.5q0 44 21 82h75q-23 -38 -23 -79q0 -24 15 -38.5t44 -14.5q37 0 66 30t53 102h33q96 -69 96 -163q0 -84 -56.5 -137t-160.5 -74v-4l328 -168
l4 1q-6 92 -6 218v426h73v-99h119v-64h-119v-516z" />
    <glyph glyph-name="bnGA" unicode="&#x997;" horiz-adv-x="632" 
d="M532 0h-73v370q0 82 -53.5 142.5t-140.5 60.5q-58 0 -100 -29.5t-63 -67.5q38 19 91 19q61 0 102.5 -37t41.5 -102q0 -61 -40 -116.5t-107 -96.5l-57 53q129 74 129 162q0 38 -24 57.5t-63 19.5q-55 0 -102 -25l-52 53q22 75 89 127t151 52q45 0 83.5 -12t63 -31.5
t39 -35.5t23.5 -32h4q-2 5 -5.5 25t-7 57t-3.5 74v54h74v-99h120v-64h-120v-578z" />
    <glyph glyph-name="bnGHA" unicode="&#x998;" horiz-adv-x="624" 
d="M567 42l-45 -55l-456 221v66l57 35q17 11 33.5 20t25.5 13l17.5 7.5t9.5 4.5v4q-73 7 -110.5 42t-37.5 90q0 52 31 88h-112v64h664v-64h-120v-515zM454 96h4q-8 89 -8 202v280h-273q-43 -35 -43 -87q0 -39 29 -62t77 -23t103 32l31 -59l-224 -134z" />
    <glyph glyph-name="bnNGA" unicode="&#x999;" horiz-adv-x="687" 
d="M390 444q83 0 83 72q0 28 -20.5 47.5t-55.5 19.5q-73 0 -73 -89v-37q32 -13 66 -13zM639 230q0 -96 -72.5 -163.5t-189.5 -67.5q-145 0 -237 102t-96 244l70 14q4 -136 80.5 -213t183.5 -77q85 0 137 47t52 111q0 43 -15 65q-95 -67 -174 -67q-58 0 -91.5 34t-33.5 90v76
q-82 55 -125 153h-148v64h198q23 -81 78 -138q2 68 39.5 104.5t100.5 36.5q62 0 104 -38t42 -93q0 -62 -42 -97t-109 -35q-37 0 -67 10v-41q0 -58 56 -58q73 0 185 94q30 -21 52 -62.5t22 -94.5z" />
    <glyph glyph-name="bnCA" unicode="&#x99a;" horiz-adv-x="525" 
d="M473 248q0 -93 -72.5 -171t-166.5 -78q-63 0 -99 34t-36 91v454h-119v64h565v-64h-377v-27q0 -77 88 -110l82 -31q68 -25 101.5 -63.5t33.5 -98.5zM171 126q0 -60 64 -60q55 0 109.5 57t54.5 126q0 32 -18.5 55t-67.5 41l-65 24q-49 18 -78 52h-4q5 -23 5 -157v-138z" />
    <glyph glyph-name="bnCHA" unicode="&#x99b;" horiz-adv-x="595" 
d="M146 366q0 -50 52 -50q38 0 63.5 27t25.5 62q0 26 -24 40t-61.5 25.5t-55.5 26.5v-131zM355 404q0 -60 -45 -105.5t-113 -45.5q-57 0 -89 31t-32 81v213h-96v64h635v-64h-477q8 -16 29.5 -27.5t58.5 -24t55 -21.5q34 8 64 8q78 0 131 -48.5t53 -126.5q0 -195 -272 -207
v-4q43 -12 136 -60l157 -82l-48 -54q-226 124 -295.5 155t-129.5 37v63h116q264 0 264 152q0 50 -31 78.5t-80 31.5q9 -20 9 -44z" />
    <glyph glyph-name="bnJA" unicode="&#x99c;" horiz-adv-x="796" 
d="M695 -3h-73v164q0 47 11 94t19.5 67t15.5 32q-87 3 -148.5 54.5t-75.5 120.5q-130 -83 -130 -144q0 -42 55 -44l119 -3q49 -41 49 -112q0 -72 -52.5 -122.5t-141.5 -50.5q-129 0 -216 106.5t-92 257.5l70 20q2 -131 69 -222t168 -91q58 0 89 29t31 70q0 31 -16 52l-88 2
q-55 2 -88 28.5t-33 75.5q0 98 167 197h-424v64h836v-64h-317q11 -66 57 -113t140 -47h20l33 -52q-54 -97 -54 -208v-161z" />
    <glyph glyph-name="bnJHA" unicode="&#x99d;" horiz-adv-x="769" 
d="M471 37l-51 -50l-372 251v67q54 55 137.5 107.5t172.5 75.5v90h-378v64h450v-312l170 -117h4q-8 88 -8 201v327h73v-99h120v-64h-120v-414l-68 -34l-171 117v-182zM122 273l239 -164h4q-7 78 -7 201v105q-65 -19 -130.5 -60t-105.5 -82z" />
    <glyph glyph-name="bnNYA" unicode="&#x99e;" horiz-adv-x="948" 
d="M608 0h-70q0 60 -48.5 91t-164.5 33q-146 2 -216.5 51t-70.5 134q0 49 26 99l73 -19q-24 -42 -24 -83q0 -55 48.5 -84.5t167.5 -30.5q69 -1 117 -13.5t65 -24.5t34 -30h4q-14 91 -14 202v177q0 37 -15 55t-50 18q-63 0 -116.5 -51.5t-53.5 -107.5q0 -29 16.5 -45.5
t47.5 -16.5q39 0 65 23l29 -58q-38 -30 -98 -30q-62 0 -98 34.5t-36 90.5q0 84 75.5 157t172.5 73q50 0 79.5 -22.5t38.5 -57.5q15 29 53 55.5t92 26.5q62 0 100 -35t38 -90q0 -38 -20.5 -65.5t-52.5 -39.5v-4q35 -10 60 -38t25 -71q0 -57 -39.5 -94.5t-105.5 -37.5
q-46 0 -85 23.5t-54 47.5q5 -18 5 -109v-133zM605 413q0 -79 35.5 -128t96.5 -49q36 0 56 20t20 49q0 35 -23.5 54.5t-66.5 19.5h-22v64h19q38 0 60 20.5t22 55.5q0 28 -19 45t-54 17q-48 0 -86 -43.5t-38 -124.5z" />
    <glyph glyph-name="bnTTA" unicode="&#x99f;" horiz-adv-x="546" 
d="M473 687q0 -18 -5 -45h98v-64h-395v-379q0 -36 19.5 -57.5t57.5 -21.5q67 0 115.5 52t48.5 122q0 41 -17.5 65.5t-53.5 24.5q-40 0 -62 -32l-41 58q40 44 103 44q65 0 105 -44.5t40 -115.5q0 -94 -69 -168t-171 -74q-67 0 -107 39t-40 103v384h-118v64h415q4 19 4 40
q0 43 -26.5 61.5t-85.5 18.5h-125q-86 0 -123.5 36.5t-37.5 92.5q0 19 2 29l69 15l-3 -33q0 -75 98 -75h131q77 0 125.5 -36.5t48.5 -103.5z" />
    <glyph glyph-name="bnTTHA" unicode="&#x9a0;" horiz-adv-x="543" 
d="M491 236q0 -88 -58 -148.5t-156 -60.5t-166 68.5t-71 162.5q92 25 135.5 73t43.5 134v76l-31 37h-208v64h163q-59 66 -59 142q0 69 47.5 110.5t121.5 38.5l14 -68q-49 5 -79.5 -19t-30.5 -67q0 -58 68 -137h338v-64h-290l94.5 -102t63.5 -79t47.5 -83.5t12.5 -77.5z
M125 218q4 -42 46 -83t108 -41q64 0 102 41t38 100q0 31 -9 60t-31 60t-37 48l-47 52q-8 9 -12 13q4 -61 -12 -109t-44.5 -76t-52 -42t-49.5 -23z" />
    <glyph glyph-name="bnDDA" unicode="&#x9a1;" horiz-adv-x="668" 
d="M688 578h-364v-158q0 -55 47 -55q29 0 76 21t95 66q29 -19 52 -61.5t23 -94.5q0 -105 -70 -170t-187 -65q-144 0 -229.5 103t-92.5 255l70 15q5 -142 74.5 -223.5t178.5 -81.5q83 0 133.5 45.5t50.5 119.5q0 43 -17 65q-74 -62 -162 -62q-54 0 -85 33.5t-31 85.5v162
h-270v64h708v-64z" />
    <glyph glyph-name="bnDDHA" unicode="&#x9a2;" horiz-adv-x="547" 
d="M486 293q0 -96 -67 -169.5t-170 -73.5q-69 0 -109.5 39t-40.5 102v387h-119v64h586v-64h-395v-381q0 -35 20 -57t59 -22q66 0 115 52t49 123q0 41 -19 66t-58 25q-37 0 -60 -17l-27 61q36 26 88 26q69 0 108.5 -44.5t39.5 -116.5z" />
    <glyph glyph-name="bnNNA" unicode="&#x9a3;" horiz-adv-x="608" 
d="M508 0h-73v322q0 113 -47.5 183t-134.5 70q-65 0 -101 -37.5t-36 -97.5q0 -56 33 -86.5t85 -30.5q44 0 77 24l24 -64q-40 -28 -102 -28q-86 0 -138 52.5t-52 133.5q0 88 55.5 144.5t151.5 56.5q72 0 120 -33t71 -75h4q-10 48 -10 152v55h73v-99h120v-64h-120v-578z" />
    <glyph glyph-name="bnTA" unicode="&#x9a4;" horiz-adv-x="681" 
d="M629 305q0 -107 -66 -175t-172 -68q-96 0 -168 55.5t-113 142.5t-64 206l68 30q67 -369 277 -369q74 0 119.5 51.5t45.5 127.5q0 64 -25.5 101.5t-74.5 37.5q-35 0 -56.5 -20.5t-21.5 -56.5q0 -50 43 -75l-50 -43q-66 40 -66 122q0 62 40 101.5t109 39.5
q82 0 128.5 -59.5t46.5 -148.5zM701 578h-721v64h721v-64z" />
    <glyph glyph-name="bnTHA" unicode="&#x9a5;" horiz-adv-x="676" 
d="M620 41l-48 -54l-509 238v80q139 7 204 55.5t65 118.5q0 43 -28.5 71t-75.5 28q-39 0 -65.5 -23t-26.5 -61q0 -42 35 -72l-59 -34q-49 39 -49 107q0 66 46 108.5t118 42.5q74 0 126 -45t52 -122q0 -80 -57.5 -141t-175.5 -82v-4l334 -159h4q-7 84 -7 203v445h74v-99h119
v-64h-119v-516z" />
    <glyph glyph-name="bnDA" unicode="&#x9a6;" horiz-adv-x="547" 
d="M442 0h-75v206q0 95 28 192q-124 -81 -230 -229l-74 33v376h-111v64h587v-64h-403v-298q42 53 114 114.5t132 86.5l67 -37q-35 -108 -35 -240v-204z" />
    <glyph glyph-name="bnDHA" unicode="&#x9a7;" horiz-adv-x="607" 
d="M549 42l-44 -55l-438 223v68l56 32q21 13 44.5 24.5t36.5 16.5l12 5v4q-69 2 -114 39t-45 102q0 63 42 103t113 40q64 0 111 -27l-25 -59q-37 20 -82 20q-40 0 -63.5 -21t-23.5 -58q0 -42 31 -64t89 -22q71 0 185 73v156h193v-64h-120v-514zM439 98h4q-9 106 -9 205v106
l-286 -162z" />
    <glyph glyph-name="bnNA" unicode="&#x9a8;" horiz-adv-x="629" 
d="M530 0h-74v21q0 60 -16.5 122.5t-46 115.5t-75.5 86.5t-100 33.5q-49 0 -75 -24.5t-26 -65.5q0 -38 30 -68l-65 -29q-38 36 -38 97q0 73 45.5 116t124.5 43q88 0 150.5 -51.5t97.5 -126.5h4q-10 80 -10 199v109h-476v64h669v-64h-119v-578z" />
    <glyph glyph-name="bnPA" unicode="&#x9aa;" horiz-adv-x="654" 
d="M114 506q125 -12 171 -153l168 110q-55 118 -179 118q-56 0 -98 -24t-62 -51zM555 0h-74v326q0 40 -7 71l-313 -204l-37 56l104 68q-39 124 -142 130q-14 2 -23 2l-42 58q36 58 99.5 99.5t150.5 41.5q84 0 139 -38t83 -91l3 1q-4 13 -9.5 69.5t-5.5 109.5v42h74v-99h119
v-64h-119v-578z" />
    <glyph glyph-name="bnPHA" unicode="&#x9ab;" horiz-adv-x="751" 
d="M491 35l-49 -50l-381 244v74l146 112l-135 143v20h-92v64h791v-64h-620v-4l127 -134v-56l-150 -116l255 -165h4q-8 115 -8 197v185q54 24 118 24q86 0 144.5 -49t58.5 -133q0 -64 -34 -107t-83 -65l-45 57q41 15 66 45t25 69q0 56 -35.5 85.5t-87.5 29.5q-25 0 -54 -8
v-373z" />
    <glyph glyph-name="bnBA" unicode="&#x9ac;" horiz-adv-x="549" 
d="M491 37l-51 -51l-389 255v67q48 48 144.5 108t180.5 87v75h-396v64h589v-64h-119v-514zM124 275l256 -167h4q-8 89 -8 201v121q-60 -22 -137.5 -70t-114.5 -85z" />
    <glyph glyph-name="bnBHA" unicode="&#x9ad;" horiz-adv-x="720" 
d="M669 283q0 -102 -69.5 -168.5t-186.5 -66.5q-83 0 -149 34t-109 93.5t-70.5 126.5t-44.5 148l67 28q70 -360 307 -360q84 0 133.5 47t49.5 118q0 59 -31 113h-4q-56 -125 -156 -125q-60 0 -96 35t-36 87q0 40 22 72l72 -13q-22 -24 -22 -57q0 -26 16 -41.5t45 -15.5
q34 0 63 31.5t61 110.5h58q33 -31 56.5 -84.5t23.5 -112.5zM740 578h-760v64h760v-64z" />
    <glyph glyph-name="bnMA" unicode="&#x9ae;" horiz-adv-x="585" 
d="M605 578h-120v-578h-70q-10 81 -66 156.5t-130 97.5q-13 -40 -35.5 -59t-46.5 -19q-26 0 -42.5 16t-16.5 42q0 31 22 55.5t59 31.5v15q0 78 -40 142.5t-82 86.5v13h-57v64h625v-64zM416 168l2 1q-6 141 -6 180v229h-277v-4q33 -33 63.5 -97t30.5 -142v-17q60 -13 110 -56
t77 -94z" />
    <glyph glyph-name="bnYA" unicode="&#x9af;" horiz-adv-x="563" 
d="M399 101q-9 130 -9 198v279h-239v-4l127 -134v-56l-150 -116l267 -167h4zM503 35l-50 -50l-392 244v74l146 112l-135 143v20h-92v64h603v-64h-120v-518z" />
    <glyph glyph-name="bnRA" unicode="&#x9b0;" horiz-adv-x="549" 
d="M198 -8q0 -22 -14 -36t-36 -14q-21 0 -35 14t-14 36t14 35.5t35 13.5q22 0 36 -13.5t14 -35.5zM491 37l-51 -51l-389 255v67q48 48 144.5 108t180.5 87v75h-396v64h589v-64h-119v-514zM124 275l256 -167h4q-8 89 -8 201v121q-60 -22 -137.5 -70t-114.5 -85z" />
    <glyph glyph-name="bnLA" unicode="&#x9b2;" horiz-adv-x="738" 
d="M638 0h-73v350q-7 22 -32 41t-59 19q-38 0 -63 -26.5t-25 -71.5v-39h-71v38q0 46 -25 70.5t-65 24.5q-39 0 -67 -29t-28 -80q0 -61 36.5 -96t91.5 -35q32 0 59 12l11 -67q-35 -11 -71 -11q-89 0 -144.5 53.5t-55.5 143.5q0 80 48.5 129t116.5 49q54 0 86.5 -26t41.5 -56
h4q7 33 36.5 59t75.5 26q59 0 95 -43h4v143h-585v64h778v-64h-120v-578z" />
    <glyph glyph-name="bnSHA" unicode="&#x9b6;" horiz-adv-x="697" 
d="M597 0h-73v437q0 66 -37 101.5t-95 35.5q-48 0 -84 -33t-36 -91q0 -52 36 -82.5t88 -30.5q18 0 33 3v-66q-21 -3 -34 -3q-51 0 -94 21t-67 59q-45 -82 -156 -82q-26 0 -55 8v68q17 -9 54 -9q57 0 90 32t33 84q0 63 -35 94.5t-93 31.5h-92v64h92q110 0 165 -79
q57 78 153 78q56 0 92 -20.5t50 -43.5h4q-11 39 -11 125v39h72v-99h120v-64h-120v-578z" />
    <glyph glyph-name="bnSSA" unicode="&#x9b7;" horiz-adv-x="565" 
d="M415 246l-24 46v6v280h-259v-4l141 -127v-19l102 -105l16 -31v-22zM503 35l-52 -49l-394 243v70l148 125l-153 134v20h-72v64h605v-64h-122v-519zM157 508l115 -117l-146 -124l268 -167h4q-5 84 -7 170l-119 121l1 37l-147 151z" />
    <glyph glyph-name="bnSA" unicode="&#x9b8;" horiz-adv-x="659" 
d="M559 0h-74v278q0 60 -56 60q-18 0 -38 -14t-33 -28t-38 -44q-7 -8 -10 -12q-39 -45 -75 -70.5t-78 -25.5q-55 0 -92.5 28t-52.5 66l55 40q30 -67 91 -67q40 0 61.5 28.5t21.5 70.5q0 51 -19.5 87t-69.5 91l-63 70v20h-109v64h698v-64h-119v-578zM302 352q1 -8 1 -27
q57 84 122 84q37 0 63 -22q-3 59 -3 126v65h-315v-4l50 -59q27 -32 41 -51t27 -50t14 -62z" />
    <glyph glyph-name="bnHA" unicode="&#x9b9;" horiz-adv-x="494" 
d="M472 7l-53 -50q-190 115 -239 140t-108 33v63h64q111 0 162.5 41.5t51.5 108.5q0 47 -30 76t-80 29q-43 0 -70 -23.5t-27 -62.5q0 -47 43 -70l-53 -40q-63 37 -63 114q0 64 47.5 107t121.5 43q81 0 132.5 -49t51.5 -127q0 -84 -53 -134.5t-146 -61.5v-4q52 -14 142 -69z
M514 578h-534v64h534v-64z" />
    <glyph glyph-name="bnNukta" unicode="&#x9bc;" 
d="M-393 -86q0 -22 -14 -36t-35 -14q-22 0 -36 14t-14 36t14 36t36 14q21 0 35 -14t14 -36z" />
    <glyph glyph-name="bnAvagraha" unicode="&#x9bd;" horiz-adv-x="462" 
d="M410 1q-192 111 -246.5 138t-110.5 34v64h63q112 0 160 32.5t48 95.5q0 46 -29 74.5t-77 28.5q-43 0 -69 -23.5t-26 -62.5q0 -46 41 -68l-50 -37q-62 34 -62 110q0 46 26.5 82t72.5 52q-31 57 -114 57h-35v64h27q148 0 193 -110q77 -2 125 -49.5t48 -121.5
q0 -149 -194 -172v-4q28 -7 138 -68l117 -67z" />
    <glyph glyph-name="bnmAA" unicode="&#x9be;" horiz-adv-x="273" 
d="M173 0h-73v495q0 83 -80 83h-40v64h52q53 0 78 -35h5q-14 37 -14 105v29h72v-99h120v-64h-120v-578z" />
    <glyph glyph-name="bnmI" unicode="&#x9bf;" horiz-adv-x="273" 
d="M173 0h-73v578h-120v64h120v84q0 89 64 151.5t173 62.5q104 0 196 -41t151 -94l-44 -52q-58 51 -137 85t-165 34q-79 0 -122 -44.5t-43 -110.5v-75h120v-64h-120v-578z" />
    <glyph glyph-name="bnmII" unicode="&#x9c0;" horiz-adv-x="273" 
d="M173 0h-73v578h-120v64h118q-9 127 -105 197.5t-246 70.5q-159 0 -159 -79q0 -68 122 -68q85 0 180 40l11 -5v-156h-68v80q-63 -21 -129 -21q-89 0 -139.5 36t-50.5 93q0 65 60 104.5t167 39.5q188 0 304 -90.5t127 -241.5h120v-64h-119v-578z" />
    <glyph glyph-name="bnmU" unicode="&#x9c1;" 
d="M-272 -261q48 0 73.5 36t25.5 95v12q-51 28 -100 28q-44 0 -68 -24.5t-24 -63.5q0 -36 26.5 -59.5t66.5 -23.5zM27 -306q-72 89 -130 139q-9 -73 -52 -114t-118 -41q-73 0 -117.5 41t-44.5 103q0 66 44.5 107.5t112.5 41.5q53 0 105 -22v82h73v-123q75 -52 179 -174z" />
    <glyph glyph-name="bnmUU" unicode="&#x9c2;" 
d="M81 -300l-50 -41q-23 30 -93 86q-61 -65 -158 -65q-73 0 -117 41.5t-44 103.5t44 104.5t112 44.5q24 0 52 -4v61h73v-135q-49 18 -106 18q-50 0 -77.5 -25.5t-27.5 -63.5q0 -37 25.5 -61t66.5 -24q90 0 144 93q63 -36 156 -133z" />
    <glyph glyph-name="bnmvR" unicode="&#x9c3;" 
d="M32 -238l-45 -51l-311 156l163 167l61 -34l-111 -116z" />
    <glyph glyph-name="bnmvRR" unicode="&#x9c4;" 
d="M-89 -299l-50 -47l-246 153l153 147l55 -38l-98 -97zM99 -203l-46 -44l-171 106l124 122l55 -33l-79 -79z" />
    <glyph glyph-name="bnmE" unicode="&#x9c7;" horiz-adv-x="271" 
d="M260 46l-37 -59q-82 32 -126 113t-44 193q0 75 21.5 151t55.5 134h-150v64h311v-64h-78q-40 -51 -63.5 -128.5t-23.5 -156.5q0 -186 134 -247z" />
    <glyph glyph-name="bnmAI" unicode="&#x9c8;" horiz-adv-x="271" 
d="M238 681q0 -20 -4 -39h57v-64h-78q-40 -51 -63.5 -128.5t-23.5 -156.5q0 -186 134 -247l-37 -59q-82 32 -126 113t-44 193q0 75 21.5 151t55.5 134h-150v64h181q5 22 5 35q0 37 -27.5 55t-87.5 25q-188 22 -188 134q0 19 2 29l72 15l-3 -33q0 -31 26.5 -50.5t99.5 -28.5
q178 -19 178 -142z" />
    <glyph glyph-name="bnmO" unicode="&#x9cb;" horiz-adv-x="1204" 
d="M260 46l-37 -59q-82 32 -126 113t-44 193q0 75 21.5 151t55.5 134h-150v64h311v-64h-78q-40 -51 -63.5 -128.5t-23.5 -156.5q0 -186 134 -247zM557 90q0 -20 -12.5 -33t-31.5 -13t-32 13t-13 33q0 18 13 31t32 13t31.5 -13t12.5 -31zM455 165q0 -19 -12.5 -31.5
t-31.5 -12.5t-31.5 12.5t-12.5 31.5t12.5 31.5t31.5 12.5t31.5 -12.5t12.5 -31.5zM403 281q0 -19 -12.5 -31t-31.5 -12t-31.5 12t-12.5 31t12.5 32t31.5 13t31.5 -12.5t12.5 -32.5zM684 74q0 -19 -12.5 -31.5t-32.5 -12.5q-19 0 -31.5 12t-12.5 32t12.5 32t31.5 12
q20 0 32.5 -12.5t12.5 -31.5zM418 407q0 -19 -13 -31.5t-31 -12.5q-20 0 -33 12.5t-13 31.5t13 31.5t33 12.5q18 0 31 -12.5t13 -31.5zM805 127q0 -19 -13 -31.5t-32 -12.5t-31.5 12.5t-12.5 31.5t12.5 31.5t31.5 12.5t32 -12.5t13 -31.5zM498 517q0 -20 -12.5 -32.5
t-31.5 -12.5t-31.5 12.5t-12.5 32.5q0 19 12.5 31.5t31.5 12.5t31.5 -12.5t12.5 -31.5zM877 225q0 -19 -12.5 -31.5t-30.5 -12.5q-19 0 -32 12.5t-13 31.5t12.5 32t32.5 13q18 0 30.5 -13t12.5 -32zM616 560q0 -20 -12 -32t-32 -12t-32 12t-12 32t12 32t32 12t32 -12t12 -32
zM887 359q0 -19 -12.5 -31.5t-31.5 -12.5t-31.5 12.5t-12.5 31.5t12.5 31.5t31.5 12.5t31.5 -12.5t12.5 -31.5zM742 545q0 -18 -12.5 -31t-30.5 -13q-19 0 -32 13t-13 31q0 19 13 32t32 13t31 -12.5t12 -32.5zM837 477q0 -19 -12.5 -31.5t-31.5 -12.5t-31.5 12.5t-12.5 31.5
t12.5 32t31.5 13t31.5 -12.5t12.5 -32.5zM1104 0h-73v495q0 83 -80 83h-40v64h52q53 0 78 -35h5q-14 37 -14 105v29h72v-99h120v-64h-120v-578z" />
    <glyph glyph-name="bnmAU" unicode="&#x9cc;" horiz-adv-x="1204" 
d="M260 46l-37 -59q-82 32 -126 113t-44 193q0 75 21.5 151t55.5 134h-150v64h311v-64h-78q-40 -51 -63.5 -128.5t-23.5 -156.5q0 -186 134 -247zM557 90q0 -20 -12.5 -33t-31.5 -13t-32 13t-13 33q0 18 13 31t32 13t31.5 -13t12.5 -31zM455 165q0 -19 -12.5 -31.5
t-31.5 -12.5t-31.5 12.5t-12.5 31.5t12.5 31.5t31.5 12.5t31.5 -12.5t12.5 -31.5zM403 281q0 -19 -12.5 -31t-31.5 -12t-31.5 12t-12.5 31t12.5 32t31.5 13t31.5 -12.5t12.5 -32.5zM684 74q0 -19 -12.5 -31.5t-32.5 -12.5q-19 0 -31.5 12t-12.5 32t12.5 32t31.5 12
q20 0 32.5 -12.5t12.5 -31.5zM418 407q0 -19 -13 -31.5t-31 -12.5q-20 0 -33 12.5t-13 31.5t13 31.5t33 12.5q18 0 31 -12.5t13 -31.5zM805 127q0 -19 -13 -31.5t-32 -12.5t-31.5 12.5t-12.5 31.5t12.5 31.5t31.5 12.5t32 -12.5t13 -31.5zM498 517q0 -20 -12.5 -32.5
t-31.5 -12.5t-31.5 12.5t-12.5 32.5q0 19 12.5 31.5t31.5 12.5t31.5 -12.5t12.5 -31.5zM877 225q0 -19 -12.5 -31.5t-30.5 -12.5q-19 0 -32 12.5t-13 31.5t12.5 32t32.5 13q18 0 30.5 -13t12.5 -32zM616 560q0 -20 -12 -32t-32 -12t-32 12t-12 32t12 32t32 12t32 -12t12 -32
zM887 359q0 -19 -12.5 -31.5t-31.5 -12.5t-31.5 12.5t-12.5 31.5t12.5 31.5t31.5 12.5t31.5 -12.5t12.5 -31.5zM742 545q0 -18 -12.5 -31t-30.5 -13q-19 0 -32 13t-13 31q0 19 13 32t32 13t31 -12.5t12 -32.5zM837 477q0 -19 -12.5 -31.5t-31.5 -12.5t-31.5 12.5t-12.5 31.5
t12.5 32t31.5 13t31.5 -12.5t12.5 -32.5zM1104 0h-73v578h-120v64h120v31q0 91 -115 91h-48q-87 0 -124.5 36.5t-37.5 92.5q0 20 2 29l70 15l-3 -33q0 -75 98 -75h52q79 0 129 -41t50 -111v-35h120v-64h-120v-578z" />
    <glyph glyph-name="bnVirama" unicode="&#x9cd;" 
d="M85 -230l-39 -55l-227 158l39 56z" />
    <glyph glyph-name="bnTAkhanda" unicode="&#x9ce;" horiz-adv-x="522" 
d="M258 417q44 0 69 21t25 57q0 35 -27 58t-74 23q-41 0 -73 -23.5t-49 -63.5q17 -33 51.5 -52.5t77.5 -19.5zM485 -2l-72 -14q2 20 2 39q0 28 -8.5 47t-34.5 34.5t-44.5 22.5t-67.5 24q-46 16 -82 36t-68.5 50t-50 73.5t-17.5 97.5q0 104 56.5 168.5t151.5 64.5
q74 0 123.5 -39.5t49.5 -106.5q0 -68 -45 -105.5t-117 -37.5q-42 0 -81.5 16.5t-65.5 45.5v-7q0 -38 12.5 -68t29.5 -49.5t48.5 -37.5t55.5 -27.5t64 -22.5q76 -26 119.5 -63t43.5 -104q0 -25 -2 -37z" />
    <glyph glyph-name="bnAUlengthmark" unicode="&#x9d7;" horiz-adv-x="273" 
d="M173 0h-73v578h-120v64h120v31q0 91 -115 91h-48q-87 0 -124.5 36.5t-37.5 92.5q0 20 2 29l70 15l-3 -33q0 -75 98 -75h52q79 0 129 -41t50 -111v-35h120v-64h-120v-578z" />
    <glyph glyph-name="bnDDxA" unicode="&#x9dc;" horiz-adv-x="668" 
d="M407 -78q0 -22 -14 -36t-35 -14q-22 0 -36 14t-14 36t14 35.5t36 13.5q21 0 35 -13.5t14 -35.5zM688 578h-364v-158q0 -55 47 -55q29 0 76 21t95 66q29 -19 52 -61.5t23 -94.5q0 -105 -70 -170t-187 -65q-144 0 -229.5 103t-92.5 255l70 15q5 -142 74.5 -223.5
t178.5 -81.5q83 0 133.5 45.5t50.5 119.5q0 43 -17 65q-74 -62 -162 -62q-54 0 -85 33.5t-31 85.5v162h-270v64h708v-64z" />
    <glyph glyph-name="bnDDHxA" unicode="&#x9dd;" horiz-adv-x="547" 
d="M300 -78q0 -22 -13.5 -36t-35.5 -14t-36 14t-14 36t14 35.5t36 13.5t35.5 -13.5t13.5 -35.5zM486 293q0 -96 -67 -169.5t-170 -73.5q-69 0 -109.5 39t-40.5 102v387h-119v64h586v-64h-395v-381q0 -35 20 -57t59 -22q66 0 115 52t49 123q0 41 -19 66t-58 25q-37 0 -60 -17
l-27 61q36 26 88 26q69 0 108.5 -44.5t39.5 -116.5z" />
    <glyph glyph-name="bnYxA" unicode="&#x9df;" horiz-adv-x="563" 
d="M192 -7q0 -22 -13.5 -35.5t-34.5 -13.5t-34.5 13.5t-13.5 35.5t13.5 35.5t34.5 13.5t34.5 -13.5t13.5 -35.5zM399 101q-9 130 -9 198v279h-239v-4l127 -134v-56l-150 -116l267 -167h4zM503 35l-50 -50l-392 244v74l146 112l-135 143v20h-92v64h603v-64h-120v-518z" />
    <glyph glyph-name="bnvRR" unicode="&#x9e0;" horiz-adv-x="752" 
d="M127 258l233 -152h4q-7 95 -7 195v93q-63 -16 -127 -55t-103 -81zM667 163l-68 -35l-171 117v-181l42 -27l-51 -50l-116 75l-69 -67l201 -131l-49 -49l-259 166l120 117l-194 125v69q56 57 141.5 107t170.5 71v4l-94 80q-51 -100 -152 -100q-58 0 -92 32.5t-34 80.5
q0 44 17 75h73q-20 -38 -20 -68q0 -25 15.5 -40.5t43.5 -15.5q39 0 68.5 27.5t51.5 98.5h28q50 -42 92 -81q-5 40 -5 126v52h71v-412l172 -119l3 2q-8 48 -8 152v377h72v-99h105v-64h-105v-415z" />
    <glyph glyph-name="bnvLL" unicode="&#x9e1;" horiz-adv-x="614" 
d="M559 262q0 -121 -79 -191.5t-207 -73.5l-40 52q79 83 79 191q0 50 -25 78.5t-71 28.5q-44 0 -70 -22.5t-26 -64.5q0 -71 84 -84l-22 -63q-59 10 -96.5 47.5t-37.5 99.5q0 76 47 115.5t119 39.5q73 0 120 -49t47 -125q0 -94 -48 -170q76 16 114.5 67t38.5 126
q0 54 -19 94.5t-50 64.5t-68 43.5l-74.5 37.5t-68.5 40.5t-50 59.5t-19 87q0 19 5 34l72 13q-5 -18 -5 -34q0 -40 19.5 -69.5t50 -48.5t68 -36t75 -39.5t68 -52t50 -79.5t19.5 -117zM625 -159q0 -74 -50 -112.5t-139 -38.5q-36 0 -68 8l-7 55q100 14 100 90q0 46 -43 46
q-18 0 -28.5 -11t-10.5 -28q0 -23 15 -38l-44 -26q-29 31 -29 67q0 42 27 68t67 26q48 0 75.5 -29.5t27.5 -72.5q0 -61 -44 -96q91 12 91 94q0 35 -26 81t-26 74q0 34 25 65l50 -25q-14 -18 -14 -39q0 -22 25.5 -69.5t25.5 -88.5z" />
    <glyph glyph-name="bnmvL" unicode="&#x9e2;" 
d="M48 -228q0 -74 -50 -112.5t-138 -38.5q-37 0 -69 8l-7 54q101 15 101 91q0 46 -43 46q-18 0 -29 -11t-11 -28q0 -23 15 -38l-44 -26q-28 29 -28 67q0 42 26.5 68t67.5 26q48 0 75.5 -29.5t27.5 -72.5q0 -60 -45 -97q91 12 91 95q0 34 -26 80.5t-26 74.5q0 34 25 65
l50 -25q-13 -17 -13 -39t25 -69.5t25 -88.5z" />
    <glyph glyph-name="bnmvLL" unicode="&#x9e3;" 
d="M48 -228q0 -74 -50 -112.5t-138 -38.5q-37 0 -69 8l-7 54q101 15 101 91q0 46 -43 46q-18 0 -29 -11t-11 -28q0 -23 15 -38l-44 -26q-28 29 -28 67q0 42 26.5 68t67.5 26q48 0 75.5 -29.5t27.5 -72.5q0 -60 -45 -97q91 12 91 95q0 34 -26 80.5t-26 74.5q0 34 25 65
l50 -25q-13 -17 -13 -39q0 -8 1.5 -15.5t5 -16.5t6 -14t8.5 -16t8 -15q26 26 61 26q36 0 58 -24t22 -56q0 -35 -21 -58q56 13 56 66q0 26 -19.5 61t-19.5 56q0 25 19 49l37 -20q-10 -13 -10 -29t19.5 -52t19.5 -66q0 -50 -33.5 -79.5t-101.5 -29.5q-23 0 -35 1v4h-1l-3 36
q50 15 50 62q0 36 -37 36q-27 0 -45 -25q5 -20 5 -39z" />
    <glyph glyph-name="bnZero" unicode="&#x9e6;" horiz-adv-x="594" 
d="M520 325q0 -115 -57.5 -182t-168.5 -67q-110 0 -165.5 66t-55.5 178q0 114 58 181t169 67q110 0 165 -65.5t55 -177.5zM149 326q0 -182 151 -182q145 0 145 175q0 181 -151 181q-145 0 -145 -174z" />
    <glyph glyph-name="bnOne" unicode="&#x9e7;" horiz-adv-x="526" 
d="M459 205q0 -88 -54 -146.5t-160 -58.5q-93 0 -148 45.5t-55 114.5q0 79 65 109l43 -49q-35 -15 -35 -60q0 -38 34.5 -64.5t94.5 -26.5q68 0 105.5 37t37.5 100q0 39 -15.5 71t-40.5 54.5t-55 43l-60.5 42.5t-55.5 46t-40.5 59.5t-15.5 79.5q0 18 4 34l73 12
q-4 -24 -4 -35q0 -42 21 -76.5t52 -57.5l68 -50.5t68 -54.5t52 -71t21 -98z" />
    <glyph glyph-name="bnTwo" unicode="&#x9e8;" horiz-adv-x="478" 
d="M447 26l-49 -52l-368 224l45 59l18 -10q48 -24 109 -24q60 0 99 25t39 75q0 38 -25 68.5t-61 51.5l-72 41.5t-61 50.5t-26 67q0 18 4 34l72 12q-4 -24 -4 -35q0 -26 25.5 -48t61.5 -42t72 -44t61.5 -64t25.5 -92q0 -71 -52.5 -115.5t-149.5 -42.5v-4q72 -33 140 -74z" />
    <glyph glyph-name="bnThree" unicode="&#x9e9;" horiz-adv-x="725" 
d="M629 326q0 -120 -66 -199t-188 -79q-66 0 -118.5 25t-87.5 68.5t-58.5 104t-33.5 129t-10 146.5l68 21q0 -92 12 -166t39 -135t75 -94t114 -33q85 0 133.5 58t48.5 155q0 74 -25.5 124t-82.5 50q-37 0 -59 -24t-22 -63q0 -55 46 -86l-54 -41q-64 42 -64 129
q0 64 39.5 108.5t111.5 44.5q64 0 107 -37.5t59 -89.5t16 -116z" />
    <glyph glyph-name="bnFour" unicode="&#x9ea;" horiz-adv-x="501" 
d="M133 484q0 -44 32 -76t79 -49q63 27 97 54.5t34 71.5q0 42 -33.5 68.5t-87.5 26.5q-53 0 -87 -26t-34 -70zM460 159q0 -81 -57 -125.5t-145 -44.5q-95 0 -154.5 46t-59.5 125q0 60 33.5 98.5t93.5 68.5q-109 56 -109 159q0 73 53 116.5t137 43.5q86 0 140 -45.5
t54 -113.5q0 -58 -30 -95t-86 -67q130 -56 130 -166zM256 56q58 0 94.5 28t36.5 77q0 40 -35.5 75t-93.5 54q-79 -34 -101 -52q-39 -32 -40 -79q0 -48 39 -75.5t100 -27.5z" />
    <glyph glyph-name="bnFive" unicode="&#x9eb;" horiz-adv-x="609" 
d="M531 56l-13 -56q-228 0 -348 81.5t-120 226.5q0 128 88 218t232 119l31 -52q-3 -17 -3 -32q0 -61 37 -88.5t107 -37.5l19 -67q-128 -47 -128 -152q0 -101 98 -160zM124 308q0 -105 82.5 -165.5t223.5 -74.5q-69 64 -69 155q0 103 100 172q-66 15 -98 60t-33 107
q-102 -33 -154 -100.5t-52 -153.5z" />
    <glyph glyph-name="bnSix" unicode="&#x9ec;" horiz-adv-x="636" 
d="M601 261q0 -105 -68 -170t-185 -65q-140 0 -233 102t-98 245l74 16q4 -138 80 -215.5t178 -77.5q82 0 130 45t48 119q0 50 -16 72q-64 -63 -136 -63q-54 0 -85.5 33.5t-31.5 85.5v102q0 43 -9 62.5t-38 19.5q-37 0 -61 -28l-42 56q40 42 103 42q122 0 122 -141v-109
q0 -54 47 -54q51 0 145 86q29 -18 52.5 -62.5t23.5 -100.5z" />
    <glyph glyph-name="bnSeven" unicode="&#x9ed;" horiz-adv-x="565" 
d="M237 302q67 0 125 40v143q0 87 -90 87q-63 0 -108 -49.5t-45 -118.5q0 -49 31 -75.5t87 -26.5zM587 42q-38 -42 -103 -42q-122 0 -122 141v128q-62 -37 -133 -37q-81 0 -133 44.5t-52 127.5q0 100 64.5 169t166.5 69q77 0 119 -41t42 -114v-335q0 -43 9.5 -63t38.5 -20
q36 0 61 29z" />
    <glyph glyph-name="bnEight" unicode="&#x9ee;" horiz-adv-x="693" 
d="M257 70q62 0 103.5 54t41.5 128q0 46 -29 71.5t-86 25.5q-64 0 -119 -38v-154q0 -87 89 -87zM478 247q0 -102 -61.5 -174.5t-162.5 -72.5q-75 0 -117.5 41.5t-42.5 112.5v336q0 43 -9.5 62.5t-38.5 19.5q-37 0 -61 -28l-42 56q40 42 103 42q122 0 122 -141v-118
q64 36 128 36q87 0 134 -46q22 32 75 32h20q37 0 52 12.5t15 46.5l-3 24l68 -17q2 -14 2 -30q0 -106 -109 -106h-21q-43 0 -58 -31q7 -24 7 -57z" />
    <glyph glyph-name="bnNine" unicode="&#x9ef;" horiz-adv-x="631" 
d="M578 230q0 -103 -62 -164t-162 -69l-45 46q26 44 26 108q0 61 -32.5 94t-86.5 33q-52 0 -82 -32t-30 -84q0 -93 81 -103l-25 -64q-58 8 -92.5 52t-34.5 115q0 85 49.5 134.5t133.5 49.5q85 0 136.5 -50.5t51.5 -139.5q0 -44 -13 -84q114 40 114 159q0 50 -32 88.5
t-80 60.5t-104.5 45.5l-104.5 43.5t-80 55t-32 80q0 18 4 34l73 13q-4 -14 -4 -35q0 -29 24 -52t62 -40t84.5 -33.5t92.5 -38.5t84 -49.5t62 -72t24 -100.5z" />
    <glyph glyph-name="asRA" unicode="&#x9f0;" horiz-adv-x="553" 
d="M494 37l-52 -52l-391 256v66q48 48 146 109.5t185 88.5v73h-402v64h593v-64h-120v-515zM124 275l262 -170h4q-4 35 -6 108l-185 122q-47 -31 -75 -60zM251 368l131 -85q0 101 1 150q-63 -23 -132 -65z" />
    <glyph glyph-name="asWA" unicode="&#x9f1;" horiz-adv-x="549" 
d="M491 37l-51 -51l-389 255v67q48 48 144.5 108t180.5 87v75h-396v64h589v-64h-119v-514zM259 15l-47 -51l-134 85l47 52zM124 275l256 -167h4q-8 89 -8 201v121q-60 -22 -137.5 -70t-114.5 -85z" />
    <glyph glyph-name="bnTaka" unicode="&#x9f2;" horiz-adv-x="414" 
d="M389 74l-69 -16q-45 369 -303 385l12 70q85 -5 151.5 -41t109 -96t67 -135t32.5 -167z" />
    <glyph glyph-name="bnBangladeshitaka" unicode="&#x9f3;" horiz-adv-x="596" 
d="M533 295q0 -121 -65.5 -208t-180.5 -87q-72 0 -113.5 38.5t-41.5 107.5v223h-88v64h88v65q0 40 -16 58.5t-56 18.5h-16v67q10 1 30 1q66 0 98.5 -38t32.5 -104v-68h59v-64h-59v-223q0 -78 82 -78q79 0 126.5 65t47.5 161q0 40 -18 62.5t-54 22.5q-29 0 -51 -20l-39 57
q37 32 90 32q64 0 104 -41.5t40 -111.5z" />
    <glyph glyph-name="bnNumeratorone" unicode="&#x9f4;" horiz-adv-x="398" 
d="M380 545q-107 -341 -305 -511l-43 51q101 97 166.5 211.5t118.5 271.5z" />
    <glyph glyph-name="bnNumeratortwo" unicode="&#x9f5;" horiz-adv-x="682" 
d="M638 545q-106 -341 -306 -511l-53 46q25 42 25 107q0 61 -28.5 94.5t-80.5 33.5q-42 0 -65 -23.5t-23 -63.5q0 -46 43 -70l-54 -39q-62 37 -62 114q0 66 43 108.5t117 42.5q83 0 129.5 -50.5t46.5 -139.5q0 -15 -1 -23q68 83 115 176.5t91 220.5z" />
    <glyph glyph-name="bnNumeratorthree" unicode="&#x9f6;" horiz-adv-x="632" 
d="M569 594q0 -52 -3.5 -102t-13 -109t-25 -109.5t-41.5 -99t-60.5 -82.5t-84.5 -54.5t-110 -20.5q-78 0 -128.5 33.5t-50.5 99.5q0 113 134 121q100 6 100 97q0 32 -16.5 52.5t-51.5 20.5q-63 0 -63 -64q0 -27 20 -52l-58 -31q-32 35 -32 85q0 56 35.5 92t96.5 36
q68 0 102 -40t34 -100q0 -68 -36 -110.5t-108 -44.5q-87 -3 -87 -62q0 -33 31 -50.5t76 -17.5q62 0 110.5 31.5t79 82t50 120t27.5 140t8 147.5z" />
    <glyph glyph-name="bnNumeratorfour" unicode="&#x9f7;" horiz-adv-x="273" 
d="M173 0h-73v642h73v-642z" />
    <glyph glyph-name="bnNumeratoroneless" unicode="&#x9f8;" horiz-adv-x="566" 
d="M476 63h-76v314l-238 -208l-71 33v369h73v-305l246 215l66 -37v-381z" />
    <glyph glyph-name="bnDenominatorsixteen" unicode="&#x9f9;" horiz-adv-x="530" 
d="M449 325q0 -82 -50.5 -131.5t-130.5 -49.5q-79 0 -129 49.5t-50 131.5t49.5 130.5t129.5 48.5q81 0 131 -48.5t50 -130.5zM162 325q0 -52 29.5 -82t76.5 -30q50 0 79 30t29 82t-29 81.5t-79 29.5q-47 0 -76.5 -30.5t-29.5 -80.5z" />
    <glyph glyph-name="bnIsshar" unicode="&#x9fa;" horiz-adv-x="633" 
d="M607 496q-20 -58 -35 -94.5t-44.5 -87t-62 -79.5t-84 -50.5t-114.5 -21.5q-86 0 -148.5 43.5t-94.5 112.5l60 33q60 -121 183 -121q53 0 97 22.5t76.5 65.5t56.5 91t46 113zM316 414q0 -21 -14 -34.5t-36 -13.5q-21 0 -35 13.5t-14 34.5q0 22 14 36t35 14q22 0 36 -14
t14 -36z" />
    <glyph glyph-name="bnGanda" unicode="&#x9fb;" horiz-adv-x="270" 
d="M373 -102l-42 -57l-210 151q-103 74 -103 173q0 73 47 120.5t138 55.5l18 -67q-131 -15 -131 -110q0 -38 20 -65t57 -53z" />
    <glyph glyph-name="uni200C" unicode="&#x200c;" 
d="M24 -230h-47v1041h47v-1041z" />
    <glyph glyph-name="uni200D" unicode="&#x200d;" 
d="M128 593l-33 -33l-72 75v-865h-47v865l-69 -73l-33 33l93 93l-95 95l33 33l95 -95l96 95l32 -32l-96 -96z" />
    <glyph glyph-name="endash" unicode="&#x2013;" horiz-adv-x="412" 
d="M411 263h-410v70h410v-70z" />
    <glyph glyph-name="emdash" unicode="&#x2014;" horiz-adv-x="672" 
d="M671 263h-670v70h670v-70z" />
    <glyph glyph-name="quoteleft" unicode="&#x2018;" horiz-adv-x="231" 
d="M178 530q0 -26 -17 -43t-44 -17q-32 0 -52.5 23.5t-20.5 65.5q0 60 38.5 106.5t86.5 63.5l26 -41q-74 -30 -74 -81q0 -24 13.5 -39.5t43.5 -30.5v-7z" />
    <glyph glyph-name="quoteright" unicode="&#x2019;" horiz-adv-x="231" 
d="M188 641q0 -61 -39 -107.5t-87 -62.5l-25 40q74 32 74 82q0 24 -13.5 39.5t-43.5 30.5v7q0 26 17 43t44 17q32 0 52.5 -23.5t20.5 -65.5z" />
    <glyph glyph-name="quotesinglbase" unicode="&#x201a;" horiz-adv-x="241" 
d="M193 30q0 -60 -39 -107t-87 -64l-25 41q74 32 74 82q0 24 -13.5 39.5t-43.5 30.5v7q0 26 17 43t44 17q32 0 52.5 -23.5t20.5 -65.5z" />
    <glyph glyph-name="quotedblleft" unicode="&#x201c;" horiz-adv-x="433" 
d="M379 530q0 -26 -17 -43t-44 -17q-32 0 -52.5 23.5t-20.5 65.5q0 60 38.5 106.5t87.5 63.5l25 -41q-74 -30 -74 -81q0 -24 13.5 -39.5t43.5 -30.5v-7zM178 530q0 -26 -17 -43t-44 -17q-32 0 -52.5 23.5t-20.5 65.5q0 60 38.5 106.5t86.5 63.5l26 -41q-74 -30 -74 -81
q0 -24 13.5 -39.5t43.5 -30.5v-7z" />
    <glyph glyph-name="quotedblright" unicode="&#x201d;" horiz-adv-x="433" 
d="M389 641q0 -61 -38.5 -107.5t-86.5 -63.5l-26 41q74 30 74 81q0 24 -13.5 39.5t-43.5 30.5v7q0 26 17 43.5t44 17.5q32 0 52.5 -23.5t20.5 -65.5zM188 641q0 -61 -38.5 -107.5t-87.5 -63.5l-25 41q74 30 74 81q0 24 -13.5 39.5t-43.5 30.5v7q0 26 17 43.5t44 17.5
q32 0 52.5 -23.5t20.5 -65.5z" />
    <glyph glyph-name="quotedblbase" unicode="&#x201e;" horiz-adv-x="442" 
d="M393 30q0 -61 -38.5 -107.5t-86.5 -63.5l-26 41q74 32 74 82q0 42 -57 70v7q0 26 17.5 43t44.5 17q31 0 51.5 -23.5t20.5 -65.5zM192 30q0 -61 -38.5 -107.5t-86.5 -63.5l-26 41q74 32 74 82q0 42 -57 70v7q0 26 17.5 43t44.5 17q31 0 51.5 -23.5t20.5 -65.5z" />
    <glyph glyph-name="dagger" unicode="&#x2020;" horiz-adv-x="524" 
d="M305 -133h-85l9 608l-185 -12v86l185 -12l-13 217h91l-14 -217l187 12v-86l-186 12z" />
    <glyph glyph-name="daggerdbl" unicode="&#x2021;" horiz-adv-x="524" 
d="M308 -134h-91l13 216l-186 -11v86l184 -13l-5 166l5 165l-183 -12v86l184 -12l-12 217h90l-13 -217l186 12v-86l-185 12l6 -165l-5 -165l184 12v-86l-186 11z" />
    <glyph glyph-name="bullet" unicode="&#x2022;" horiz-adv-x="452" 
d="M359 355q0 -56 -38 -94.5t-94 -38.5q-59 0 -96.5 38t-37.5 95q0 56 38 94t95 38t95 -38t38 -94z" />
    <glyph glyph-name="ellipsis" unicode="&#x2026;" horiz-adv-x="783" 
d="M733 60q0 -25 -18 -42.5t-45 -17.5q-25 0 -42.5 17.5t-17.5 42.5q0 27 17.5 45t42.5 18q27 0 45 -18t18 -45zM173 60q0 -25 -18 -42.5t-45 -17.5q-25 0 -42.5 17.5t-17.5 42.5q0 27 17.5 45t42.5 18q27 0 45 -18t18 -45zM453 60q0 -25 -18 -42.5t-45 -17.5
q-25 0 -43 17.5t-18 42.5q0 27 17.5 45t43.5 18q27 0 45 -18t18 -45z" />
    <glyph glyph-name="perthousand" unicode="&#x2030;" horiz-adv-x="1202" 
d="M693 639l-495 -618l-48 39l496 618zM350 513q0 -95 -42 -144t-111 -49q-70 0 -109.5 47t-39.5 143q0 92 42.5 141.5t111.5 49.5q68 0 108 -47.5t40 -140.5zM116 511q0 -135 85 -135q41 0 61.5 31.5t20.5 102.5q0 134 -86 134q-81 0 -81 -133zM780 184q0 -95 -42 -144.5
t-111 -49.5t-109 47.5t-40 143.5q0 92 42.5 141t111.5 49q68 0 108 -47t40 -140zM546 182q0 -135 85 -135q41 0 61.5 31.5t20.5 101.5q0 135 -86 135q-81 0 -81 -133zM1154 184q0 -95 -42 -144.5t-111 -49.5t-109 47.5t-40 143.5q0 92 42.5 141t111.5 49q68 0 108 -47
t40 -140zM919 182q0 -135 85 -135q42 0 62.5 31.5t20.5 101.5q0 135 -87 135q-81 0 -81 -133z" />
    <glyph glyph-name="guilsinglleft" unicode="&#x2039;" horiz-adv-x="296" 
d="M251 99l-51 -39l-153 210l153 212l51 -40l-118 -172z" />
    <glyph glyph-name="guilsinglright" unicode="&#x203a;" horiz-adv-x="296" 
d="M251 270l-153 -210l-51 39l118 171l-118 172l51 40z" />
    <glyph glyph-name="fraction" unicode="&#x2044;" horiz-adv-x="177" 
d="M352 662l-480 -653l-45 29l479 656z" />
    <glyph glyph-name="Euro" unicode="&#x20ac;" horiz-adv-x="598" 
d="M557 51q-59 -59 -183 -59q-217 0 -249 250h-86v62h81v80h-81v63h88q21 121 87 186.5t175 65.5q121 0 176 -58l-50 -63q-56 50 -134 50q-70 0 -116 -45.5t-61 -135.5h239l-16 -63h-229q-1 -12 -1 -38q0 -29 1 -42h210l-15 -62h-188q29 -179 180 -179q73 0 128 46z" />
    <glyph glyph-name="indianrupee" unicode="&#x20b9;" horiz-adv-x="479" 
d="M361 0h-90l-181 226l-56 60l19 61q85 -19 145 7.5t67 99.5h-224v64h218q-12 35 -42.5 53t-70.5 18h-105v64h433l-30 -64h-159v-4q34 -22 48 -67h141l-30 -64h-104q-6 -84 -69 -129t-140 -41l-1 -3q11 -11 77 -88l154 -185v-8z" />
    <glyph glyph-name="trademark" unicode="&#x2122;" horiz-adv-x="599" 
d="M303 426h-45v275h77l68 -200l67 200h77v-275h-47v142q0 18 1 47t1 38h-4l-74 -207h-43l-75 211h-4q0 -10 0.5 -39.5t0.5 -49.5v-142zM134 427h-48v235h-80v39h206v-39h-78v-235z" />
    <glyph glyph-name="minus" unicode="&#x2212;" horiz-adv-x="528" 
d="M497 305h-467v69h467v-69z" />
    <glyph glyph-name="uni25CC" unicode="&#x25cc;" horiz-adv-x="660" 
d="M286 90q0 -20 -12.5 -33t-31.5 -13t-32 13t-13 33q0 18 13 31t32 13t31.5 -13t12.5 -31zM184 165q0 -19 -12.5 -31.5t-31.5 -12.5q-20 0 -32 12.5t-12 31.5t12.5 31.5t31.5 12.5t31.5 -12.5t12.5 -31.5zM132 281q0 -19 -12.5 -31t-31.5 -12t-31.5 12t-12.5 31t12.5 32
t31.5 13t31.5 -12.5t12.5 -32.5zM413 74q0 -19 -12.5 -31.5t-32.5 -12.5t-32 12t-12 32t12 32t32 12t32.5 -12.5t12.5 -31.5zM147 407q0 -19 -13 -31.5t-31 -12.5q-20 0 -33 12.5t-13 31.5t13 31.5t33 12.5q18 0 31 -12.5t13 -31.5zM534 127q0 -19 -13 -31.5t-32 -12.5
t-31.5 12.5t-12.5 31.5t12.5 31.5t31.5 12.5t32 -12.5t13 -31.5zM227 517q0 -20 -12.5 -32.5t-31.5 -12.5t-31.5 12.5t-12.5 32.5q0 19 12.5 31.5t31.5 12.5t31.5 -12.5t12.5 -31.5zM606 225q0 -19 -12.5 -31.5t-30.5 -12.5q-19 0 -32 12.5t-13 31.5t13 32t32 13
q18 0 30.5 -13t12.5 -32zM345 560q0 -20 -12.5 -32t-31.5 -12t-31.5 12t-12.5 32t12.5 32t31.5 12t31.5 -12t12.5 -32zM616 359q0 -19 -12.5 -31.5t-31.5 -12.5q-20 0 -32 12.5t-12 31.5t12 31.5t32 12.5q19 0 31.5 -12.5t12.5 -31.5zM471 545q0 -18 -12.5 -31t-30.5 -13
q-19 0 -32 13t-13 31q0 19 12.5 32t32.5 13q19 0 31 -12.5t12 -32.5zM566 477q0 -19 -12.5 -31.5t-31.5 -12.5t-31.5 12.5t-12.5 31.5t12.5 32t31.5 13t31.5 -12.5t12.5 -32.5z" />
    <glyph glyph-name="bnK_SSA" horiz-adv-x="871" 
d="M660 348h-43v-351h-68q-17 67 -81 118.5t-147 59.5q-12 -40 -34 -58.5t-45 -18.5q-26 0 -41 14.5t-15 39.5q0 27 20.5 49.5t55.5 32.5v21q0 52 -29 86t-74 44q-10 -38 -32.5 -57.5t-46.5 -19.5q-25 0 -40 15t-15 40q0 28 20 50t55 32q-1 79 -60 133h-60v64h911v-64h-274
v-163h41q81 0 128.5 -41t47.5 -109q0 -109 -97 -159l-47 54q73 31 73 105q0 42 -28 62.5t-75 20.5zM551 120q-7 84 -7 200v28h-73q-67 0 -109 41.5t-42 115.5v73h-197q43 -61 43 -129q68 -9 116.5 -61.5t48.5 -130.5v-18q71 -5 133.5 -43t86.5 -76zM470 415h74v163h-153v-74
q0 -89 79 -89z" />
    <glyph glyph-name="bnJ_NYA" horiz-adv-x="829" 
d="M350 348l129 -9q-92 68 -101 239h-3q-33 -38 -60 -92t-27 -91q0 -43 62 -47zM650 73q-82 0 -128 64q-21 -46 -66 -73t-108 -27q-129 0 -215.5 107t-91.5 257l69 20q2 -131 68.5 -222t167.5 -91q58 0 91 29.5t33 74.5q0 30 -13 63l-115 6q-126 8 -126 110q0 76 73 187
h-309v64h869v-64h-401q4 -100 50 -161q44 99 147 99q55 0 89.5 -33t34.5 -83q0 -36 -18 -61.5t-47 -36.5v-4q31 -10 53 -36t22 -65q0 -53 -35 -88.5t-94 -35.5zM532 300q0 -74 30 -118.5t84 -44.5q31 0 49 18.5t18 44.5q0 32 -21 50t-59 18h-20v58h17q34 0 53 19t19 52
q0 26 -16.5 41t-47.5 15q-42 0 -74 -39t-32 -114z" />
    <glyph glyph-name="bnNull" 
 />
    <glyph glyph-name="bnReph" 
d="M136 888l-272 -193l-37 56l272 190z" />
    <glyph glyph-name="bnRAc2" 
d="M-100 -196h-68q-7 49 -29.5 78t-71.5 29q-19 0 -54 -3t-55 -3q-159 0 -168 174l73 18q-1 -55 22.5 -89.5t72.5 -34.5q21 0 53.5 2.5t51.5 2.5q74 0 108 -57h4q-11 62 -11 114v55h72v-286z" />
    <glyph glyph-name="bnYAc2" horiz-adv-x="253" 
d="M192 156q0 -119 -91 -191l-57 45q76 63 76 153q0 49 -27 137.5t-27 144.5q0 82 57 129v4h-143v64h293v-64h-11q-50 0 -85.5 -33.5t-35.5 -103.5q0 -47 25.5 -136.5t25.5 -148.5z" />
    <glyph glyph-name="bnBAc2" 
d="M-42 -235l-53 -50l-350 183v73q121 101 274 144v16h71v-336zM-168 -170h4q-7 99 -7 198v17q-108 -39 -203 -107z" />
    <glyph glyph-name="bnK" horiz-adv-x="654" 
d="M673 578h-285v-36q104 -4 162 -50.5t58 -117.5q0 -109 -99 -159l-45 54q74 30 74 105q0 99 -150 104v-284l-43 1l-299 135v71q116 116 271 137v40h-337v64h693v-64zM320 281h4q-7 99 -7 192q-113 -21 -201 -102z" />
    <glyph glyph-name="bnKH" horiz-adv-x="588" 
d="M500 148h-61l-402 150v71q127 2 194 31.5t67 96.5q0 41 -27 61q-22 -51 -60.5 -76.5t-83.5 -25.5q-55 0 -87.5 32t-32.5 84q0 31 14 70h69q-17 -32 -17 -68q0 -58 58 -58q34 0 62 29.5t56 96.5h26q41 -25 65 -63.5t24 -81.5q0 -148 -204 -175v-4l270 -103l4 1
q-6 91 -6 213v312h72v-99h108v-64h-108v-430z" />
    <glyph glyph-name="bnG" horiz-adv-x="608" 
d="M508 192h-69v190q0 80 -52.5 139t-136.5 59q-57 0 -98 -29t-61 -67q38 19 89 19q59 0 98 -34t39 -93q0 -53 -38.5 -98.5t-99.5 -77.5l-48 53q115 59 115 127q0 32 -21.5 48.5t-57.5 16.5q-58 0 -108 -26l-50 49q21 73 88 125t150 52q82 0 132 -35.5t70 -73.5h4
q-2 5 -5 24t-6 55t-3 72v54h69v-99h128v-64h-128v-386z" />
    <glyph glyph-name="bnGH" horiz-adv-x="587" 
d="M487 129h-68l-361 104v70l50 31q15 10 82 43v4q-66 4 -101 36t-35 85q0 42 24 76h-98v64h627v-64h-120v-449zM421 196h4q-8 88 -8 198v184h-259q-36 -28 -36 -75q0 -38 25 -57t67 -19q54 0 106 32l30 -58l-210 -126z" />
    <glyph glyph-name="bnNG" horiz-adv-x="668" 
d="M375 464q40 0 61.5 18.5t21.5 49.5q0 27 -20 45t-53 18q-74 0 -74 -89v-31q30 -11 64 -11zM615 276q0 -91 -66 -145t-182 -54q-144 0 -232 93.5t-96 231.5l68 17q9 -133 82 -204.5t179 -71.5q84 0 130 36.5t46 94.5q0 40 -15 62q-87 -65 -166 -65q-55 0 -86 32t-31 86v52
q-80 47 -123 137h-143v64h190q21 -79 78 -129q1 68 37 104t97 36t101 -34t40 -88q0 -61 -41 -93t-107 -32q-32 0 -64 8v-22q0 -58 56 -58q71 0 179 93q29 -23 49 -62t20 -89z" />
    <glyph glyph-name="bnC" horiz-adv-x="475" 
d="M145 279q0 -59 62 -59q53 0 98.5 37.5t45.5 91.5q0 31 -16 49.5t-65 35.5l-50 18q-52 18 -75 48h-4q0 -7 2 -52t2 -98v-71zM495 578h-346q15 -33 78 -57l67 -25q67 -25 97 -57.5t30 -89.5q0 -76 -62.5 -135t-152.5 -59q-60 0 -95 32.5t-35 88.5v302h-96v64h515v-64z" />
    <glyph glyph-name="bnCH" horiz-adv-x="566" 
d="M138 372q0 -49 54 -49q41 0 66.5 27t25.5 60q0 25 -25 38.5t-64 25t-57 26.5v-128zM347 410q0 -58 -44.5 -102.5t-111.5 -44.5q-54 0 -86 29.5t-32 74.5v211h-93v64h606v-64h-455q7 -16 28.5 -27t58.5 -23.5t55 -20.5q27 8 59 8q76 0 127 -47.5t51 -122.5
q0 -190 -266 -200v-4q41 -11 133 -59l155 -81l-47 -50q-222 121 -289 151t-123 35v60h112q257 0 257 148q0 48 -29 75.5t-75 31.5q9 -18 9 -42z" />
    <glyph glyph-name="bnJ" horiz-adv-x="743" 
d="M655 81h-66v94q0 46 8.5 91t16 65t12.5 30q-86 2 -150.5 53t-77.5 117q-3 -2 -14.5 -9l-17 -10.5l-16 -10.5t-16.5 -11.5t-15 -12t-13.5 -13.5l-10 -13.5t-7.5 -15t-2 -14.5q0 -22 16 -32.5t50 -12.5l104 -8q21 -18 34 -47.5t13 -59.5q0 -70 -50.5 -117t-136.5 -47
q-124 0 -208.5 102t-88.5 247l66 19q2 -127 67 -214.5t163 -87.5q56 0 86.5 27t30.5 67q0 31 -16 51l-85 7q-116 10 -116 100q0 49 40.5 87.5t105.5 75.5h-381v64h783v-64h-313q11 -63 60 -110t141 -47h19l32 -49q-47 -82 -47 -200v-91z" />
    <glyph glyph-name="bnJH" horiz-adv-x="683" 
d="M124 370l205 -105h4q-7 91 -7 189v27q-106 -47 -202 -111zM600 245l-50 -13l-158 84v-132h-49l-282 149v73q123 89 265 146v26h-346v64h412v-255l142 -75v429h66v-99h103v-64h-103v-333z" />
    <glyph glyph-name="bnNY" horiz-adv-x="750" 
d="M507 120h-65q0 49 -37.5 73t-127.5 25q-118 2 -175.5 43t-57.5 111q0 44 21 84l68 -17q-18 -31 -18 -69q0 -42 36.5 -64t128.5 -23q114 -2 164 -44h4q-9 52 -9 145v141q0 54 -47 54q-48 0 -88 -39t-40 -83q0 -43 43 -43q35 0 55 20l28 -56q-35 -27 -86 -27
q-50 0 -80.5 29t-30.5 75q0 68 61.5 128t141.5 60q72 0 95 -54q15 22 44.5 39t68.5 17q53 0 84.5 -29t31.5 -76q0 -60 -55 -83v-4q64 -21 64 -86q0 -48 -32 -79t-87 -31q-30 0 -60.5 14.5t-49.5 32.5q7 -25 7 -73v-111zM505 454q0 -60 27 -97.5t74 -37.5q25 0 39.5 14.5
t14.5 35.5q0 52 -66 52h-22v63h19q27 0 43.5 15t16.5 39q0 20 -14 32.5t-39 12.5q-36 0 -64.5 -33.5t-28.5 -95.5z" />
    <glyph glyph-name="bnTT" horiz-adv-x="512" 
d="M452 686q0 -14 -4 -44h84v-64h-375v-270q0 -77 84 -77q64 0 104 39t40 98q0 81 -69 81q-39 0 -61 -32l-40 58q39 43 101 43q63 0 101.5 -41t38.5 -109q0 -88 -61 -146.5t-156 -58.5q-67 0 -109 36.5t-42 101.5v277h-108v64h398q5 23 5 40q0 41 -26.5 59.5t-83.5 18.5
h-116q-84 0 -120 35.5t-36 89.5q0 19 2 28l66 14q-3 -30 -3 -32q0 -73 96 -73h121q76 0 122.5 -35t46.5 -101z" />
    <glyph glyph-name="bnTTH" horiz-adv-x="568" 
d="M507 271q0 -85 -56.5 -144t-151.5 -59q-94 0 -159.5 66.5t-69.5 157.5q90 24 132 70.5t42 130.5v74l-11 11h-253v64h210q-60 69 -60 138q0 67 47.5 107.5t118.5 37.5l14 -64q-48 4 -78 -19.5t-30 -65.5q0 -57 67 -134h318v-64h-272l73 -76.5t51 -58.5t40.5 -58.5t19 -52
t8.5 -61.5zM151 253q4 -40 45 -80t105 -40q63 0 100 40t37 97q0 31 -9 59t-30.5 58t-35.5 47t-46 51q-8 9 -12 13q3 -49 -7.5 -89.5t-27 -66t-40.5 -45t-41.5 -28.5t-37.5 -16z" />
    <glyph glyph-name="bnDD" horiz-adv-x="638" 
d="M658 578h-353v-114q0 -53 46 -53q65 0 159 84q29 -19 52 -58t23 -93q0 -99 -67.5 -159t-180.5 -60q-140 0 -221.5 101.5t-88.5 248.5l69 14q5 -137 71 -217.5t171 -80.5q79 0 128.5 43.5t49.5 108.5q0 39 -18 66q-78 -62 -151 -62q-51 0 -81 32t-30 82v117h-256v64h678
v-64z" />
    <glyph glyph-name="bnDDH" horiz-adv-x="512" 
d="M456 368q0 -88 -61 -146.5t-156 -58.5q-67 0 -109 36.5t-42 101.5v277h-108v64h552v-64h-375v-270q0 -77 84 -77q64 0 104 39t40 98q0 81 -69 81q-39 0 -61 -32l-40 58q39 43 101 43q63 0 101.5 -41t38.5 -109z" />
    <glyph glyph-name="bnNN" horiz-adv-x="576" 
d="M476 250h-69v94q0 111 -42.5 177t-125.5 66q-63 0 -98 -38t-35 -97q0 -52 29.5 -81.5t77.5 -29.5q50 0 91 46l27 -58q-47 -51 -119 -51q-76 0 -125.5 49t-49.5 126q0 85 53 140.5t146 55.5q119 0 177 -104h4q-9 40 -9 147v49h68v-99h120v-64h-120v-328z" />
    <glyph glyph-name="bnT" horiz-adv-x="681" 
d="M616 -198l-39 -55l-227 158l39 56zM629 305q0 -107 -66 -175t-172 -68q-96 0 -168 55.5t-113 142.5t-64 206l68 30q67 -369 277 -369q74 0 119.5 51.5t45.5 127.5q0 64 -25.5 101.5t-74.5 37.5q-35 0 -56.5 -20.5t-21.5 -56.5q0 -50 43 -75l-50 -43q-66 40 -66 122
q0 62 40 101.5t109 39.5q82 0 128.5 -59.5t46.5 -148.5zM701 578h-721v64h721v-64z" />
    <glyph glyph-name="bnTH" horiz-adv-x="609" 
d="M511 125h-64l-383 155v76q251 5 251 137q0 42 -26.5 66.5t-73.5 24.5q-38 0 -63.5 -22.5t-25.5 -59.5q0 -42 34 -70l-55 -33q-49 36 -49 103q0 64 45 105t114 41q71 0 120.5 -40.5t49.5 -113.5q0 -74 -49 -122.5t-170 -63.5v-4l279 -112h4q-7 99 -7 197v352h69v-99h116
v-64h-116v-453z" />
    <glyph glyph-name="bnD" horiz-adv-x="516" 
d="M535 578h-381v-221q44 47 110.5 97t125.5 74l65 -35q-33 -100 -33 -222v-63h-68v63q0 103 23 180q-126 -84 -222 -196l-71 38v285h-104v64h555v-64z" />
    <glyph glyph-name="bnDH" horiz-adv-x="557" 
d="M460 134h-66l-338 128v62l54 32q20 12 42 23t34 15l11 5v4q-66 3 -105.5 34t-39.5 87q0 55 37.5 90t102.5 35t103 -33l-26 -52q-32 24 -74 24q-33 0 -53 -18t-20 -48q0 -69 105 -69q70 0 168 63v126h181v-64h-116v-444zM398 195h4q-7 95 -7 193v58l-267 -149z" />
    <glyph glyph-name="bnN" horiz-adv-x="532" 
d="M552 578h-108v-347l-70 1q-23 95 -70 150.5t-110 55.5q-41 0 -62 -20t-21 -51q0 -52 55 -77l-52 -41q-74 34 -74 119q0 60 40.5 98.5t109.5 38.5q63 0 114 -39.5t75 -103.5h4q-12 84 -12 187v29h-391v64h572v-64z" />
    <glyph glyph-name="bnP" horiz-adv-x="655" 
d="M121 506q54 -3 98.5 -32t65.5 -86l157 110q-59 83 -160 83q-56 0 -98 -23.5t-63 -51.5zM562 211h-72v115q0 61 -18 112l-303 -213l-37 56l97 68q-31 89 -133 96q-9 2 -27 4l-42 58q35 57 100 99t152 42q84 0 139 -38t83 -91l3 1q-4 13 -9.5 69.5t-5.5 109.5v42h73v-99
h113v-64h-113v-367z" />
    <glyph glyph-name="bnPH" horiz-adv-x="762" 
d="M478 130h-52l-338 130v74l147 98l-136 126v20h-119v64h802v-64h-602v-4l125 -115v-57l-147 -99l252 -96h4q-7 102 -7 198v92q54 23 119 23q87 0 144 -43t57 -123q0 -115 -118 -164l-44 56q91 33 91 107q0 45 -33.5 72t-83.5 27q-34 0 -61 -7v-315z" />
    <glyph glyph-name="bnB" horiz-adv-x="498" 
d="M518 578h-111v-395h-62l-283 141v78q117 79 274 147v29h-356v64h538v-64zM340 261h4q-8 114 -8 198v15q-109 -51 -205 -110z" />
    <glyph glyph-name="bnBH" horiz-adv-x="696" 
d="M645 331q0 -95 -63 -152t-174 -57q-75 0 -137.5 30.5t-105.5 82.5t-71.5 114t-43.5 134l64 27q27 -140 105 -231.5t189 -91.5q80 0 125 41t45 104q0 51 -31 101h-4q-54 -121 -152 -121q-55 0 -89 33.5t-34 83.5q0 38 20 68l68 -12q-20 -22 -20 -54q0 -27 14.5 -43
t42.5 -16q33 0 62 31.5t61 107.5h52q77 -75 77 -180zM716 578h-736v64h736v-64z" />
    <glyph glyph-name="bnM" horiz-adv-x="618" 
d="M415 419q37 0 54.5 22t17.5 57q0 34 -19.5 57t-59.5 23h-208q12 -23 17 -58q34 -8 68.5 -34t66 -46.5t63.5 -20.5zM638 578h-108q31 -37 31 -91q0 -58 -34.5 -98t-107.5 -40q-40 0 -76 17t-58 37.5t-50 37.5t-54 17t-42 -15.5t-16 -41.5q0 -32 29 -54l-54 -39
q-46 37 -46 95q0 46 23.5 77t66.5 41q-11 34 -31 57h-131v64h658v-64z" />
    <glyph glyph-name="bnY" horiz-adv-x="494" 
d="M412 143h-52l-320 132v69l142 94l-131 121v19h-71v64h533v-64h-101v-435zM103 314l245 -98h4q-7 98 -7 189v173h-218v-4l119 -111v-53z" />
    <glyph glyph-name="bnR" horiz-adv-x="498" 
d="M197 145q0 -21 -13.5 -34.5t-35.5 -13.5q-21 0 -34.5 14t-13.5 34q0 22 13.5 35.5t34.5 13.5q22 0 35.5 -13.5t13.5 -35.5zM518 578h-111v-395h-62l-283 141v78q117 79 274 147v29h-356v64h538v-64zM340 261h4q-8 114 -8 198v15q-109 -51 -205 -110z" />
    <glyph glyph-name="bnL" horiz-adv-x="679" 
d="M699 578h-108v-419h-70v240q-7 23 -29.5 41.5t-56.5 18.5q-37 0 -59.5 -26t-22.5 -71v-38h-69v37q0 46 -24 70.5t-64 24.5q-38 0 -63.5 -26t-25.5 -76q0 -58 33.5 -88t85.5 -30q16 0 23 2l7 -65q-15 -3 -32 -3q-79 0 -134 50t-55 134q0 79 45.5 124t112.5 45
q53 0 84 -25.5t40 -55.5h5q6 33 33 58.5t72 25.5q57 0 90 -43h4v95h-541v64h719v-64z" />
    <glyph glyph-name="bnSH" horiz-adv-x="639" 
d="M547 230h-73v207q0 137 -113 137q-48 0 -78 -27.5t-30 -83.5q0 -54 30 -82.5t82 -28.5q35 0 52 9v-67q-26 -7 -53 -7q-102 0 -149 74q-42 -76 -143 -76q-26 0 -55 8v68q20 -9 55 -9q109 0 109 111q0 115 -114 115h-87v64h86q108 0 152 -76q44 75 141 75q84 0 122 -61h4
q-10 60 -10 125v36h72v-99h112v-64h-112v-348z" />
    <glyph glyph-name="bnSS" horiz-adv-x="513" 
d="M459 451q0 -92 -57.5 -142t-146.5 -50q-87 0 -144 51.5t-57 140.5q0 77 45 127h-119v64h553v-64h-121q47 -50 47 -127zM255 578q-43 0 -74 -22l191 -165q13 29 13 61q0 53 -36 89.5t-94 36.5zM255 322q45 0 79 24l-192 165q-14 -28 -14 -59q0 -57 35.5 -93.5t91.5 -36.5z
" />
    <glyph glyph-name="bnS" horiz-adv-x="642" 
d="M590 521q0 -67 -37.5 -108.5t-107.5 -41.5q-110 0 -155 119q-30 -119 -136 -119q-81 0 -135 76l47 45q43 -59 88 -59q73 0 92 145h-266v64h682v-64h-80q8 -26 8 -57zM333 578q9 -61 36 -103t74 -42q42 0 58.5 27.5t16.5 59.5q0 40 -9 58h-176z" />
    <glyph glyph-name="bnH" horiz-adv-x="462" 
d="M456 50l-46 -49q-192 111 -246.5 138t-110.5 34v64h63q112 0 160 32.5t48 95.5q0 46 -29.5 74.5t-77.5 28.5q-42 0 -68.5 -23.5t-26.5 -62.5q0 -46 41 -68l-51 -37q-61 34 -61 110q0 62 46.5 103.5t118.5 41.5q79 0 129 -47.5t50 -123.5q0 -149 -194 -172v-4
q28 -7 138 -68zM482 578h-502v64h502v-64z" />
    <glyph glyph-name="bnK_SS" horiz-adv-x="889" 
d="M660 348h-43v-351h-68q-17 67 -81 118.5t-147 59.5q-12 -40 -34 -58.5t-45 -18.5q-26 0 -41 14.5t-15 39.5q0 27 20.5 49.5t55.5 32.5v21q0 52 -29 86t-74 44q-10 -38 -32.5 -57.5t-46.5 -19.5q-25 0 -40 15t-15 40q0 28 20 50t55 32q-1 79 -60 133h-60v64h911v-64h-274
v-163h41q81 0 128.5 -41t47.5 -109q0 -109 -97 -159l-47 54q73 31 73 105q0 42 -28 62.5t-75 20.5zM790 -233l-39 -55l-227 158l39 56zM551 120q-7 84 -7 200v28h-73q-67 0 -109 41.5t-42 115.5v73h-197q43 -61 43 -129q68 -9 116.5 -61.5t48.5 -130.5v-18q71 -5 133.5 -43
t86.5 -76zM470 415h74v163h-153v-74q0 -89 79 -89z" />
    <glyph glyph-name="bnJ_NY" horiz-adv-x="829" 
d="M350 348l129 -9q-92 68 -101 239h-3q-33 -38 -60 -92t-27 -91q0 -43 62 -47zM650 73q-82 0 -128 64q-21 -46 -66 -73t-108 -27q-129 0 -215.5 107t-91.5 257l69 20q2 -131 68.5 -222t167.5 -91q58 0 91 29.5t33 74.5q0 30 -13 63l-115 6q-126 8 -126 110q0 76 73 187
h-309v64h869v-64h-401q4 -100 50 -161q44 99 147 99q55 0 89.5 -33t34.5 -83q0 -36 -18 -61.5t-47 -36.5v-4q31 -10 53 -36t22 -65q0 -53 -35 -88.5t-94 -35.5zM532 300q0 -74 30 -118.5t84 -44.5q31 0 49 18.5t18 44.5q0 32 -21 50t-59 18h-20v58h17q34 0 53 19t19 52
q0 26 -16.5 41t-47.5 15q-42 0 -74 -39t-32 -114zM652 -230l-39 -55l-227 158l39 56z" />
    <glyph glyph-name="asR" horiz-adv-x="487" 
d="M389 120h-56l-285 189v63q40 41 121.5 91.5t154.5 73.5v41h-344v64h526v-64h-117v-458zM109 342l218 -142h3q-4 59 -5 90l-153 102q-42 -29 -63 -50zM217 420l107 -70q0 82 1 123q-51 -18 -108 -53z" />
    <glyph glyph-name="asW" horiz-adv-x="507" 
d="M248 161l-43 -53l-143 76l43 52zM527 578h-120v-395h-62l-283 141v78q117 79 274 147v29h-356v64h547v-64zM340 261h4q-8 114 -8 198v15q-109 -51 -205 -110z" />
    <glyph glyph-name="bnDDx" horiz-adv-x="638" 
d="M371 17q0 -21 -13.5 -34.5t-34.5 -13.5t-34.5 13.5t-13.5 34.5t13.5 35t34.5 14t34.5 -14t13.5 -35zM658 578h-353v-98q0 -53 46 -53q66 0 159 84q29 -19 52 -58.5t23 -92.5q0 -99 -67.5 -159t-180.5 -60q-140 0 -221.5 101t-88.5 248l69 15q5 -137 71 -217.5t171 -80.5
q79 0 128.5 43.5t49.5 108.5q0 38 -18 65q-78 -61 -151 -61q-51 0 -81 32t-30 82v101h-256v64h678v-64z" />
    <glyph glyph-name="bnDDHx" horiz-adv-x="512" 
d="M456 368q0 -88 -61 -146.5t-156 -58.5q-67 0 -109 36.5t-42 101.5v277h-108v64h552v-64h-375v-270q0 -77 84 -77q64 0 104 39t40 98q0 81 -69 81q-39 0 -61 -32l-40 58q39 43 101 43q63 0 101.5 -41t38.5 -109zM287 44q0 -21 -14 -34.5t-35 -13.5t-34.5 13.5t-13.5 34.5
t13.5 35t34.5 14t35 -14t14 -35z" />
    <glyph glyph-name="bnYx" horiz-adv-x="495" 
d="M412 143h-52l-320 132v69l142 94l-131 121v19h-71v64h533v-64h-101v-435zM195 98q0 -21 -13.5 -34.5t-35.5 -13.5q-21 0 -34.5 13.5t-13.5 34.5t13.5 35t34.5 14q22 0 35.5 -14t13.5 -35zM103 314l245 -98h4q-7 98 -7 189v173h-219v-4l120 -111v-53z" />
    <glyph glyph-name="bnK_KA" horiz-adv-x="670" 
d="M690 578h-292v-30q104 -1 159.5 -52.5t55.5 -121.5q0 -71 -43 -116l-62 37q35 32 35 79q0 49 -38 78t-107 29v-211q104 -1 159.5 -53t55.5 -121q0 -105 -94 -154l-44 53q68 40 68 101q0 49 -38 77.5t-107 28.5v-256l45 -22l-53 -52l-334 174v75q77 75 177 116l-177 86v76
q51 51 122.5 90.5t148.5 52.5v36h-347v64h710v-64zM330 -19h4q-7 98 -7 196v17h-2l-2 -1h-1q-101 -24 -197 -104zM330 268h4q-7 98 -7 196v9q-101 -22 -202 -106z" />
    <glyph glyph-name="bnNG_KA" horiz-adv-x="691" 
d="M431 -19l-52 -51l-333 173v74q51 51 122.5 90.5t148.5 52.5v33q0 62 -27.5 96t-75.5 34q-37 0 -58.5 -20.5t-21.5 -57.5q0 -47 41 -71l-52 -39q-60 40 -60 113q0 61 39.5 100.5t109.5 39.5q78 0 126 -55.5t48 -140.5v-26q106 -1 161.5 -52.5t55.5 -122.5q0 -101 -94 -153
l-44 54q68 38 68 101q0 49 -38.5 77.5t-108.5 28.5v-255zM711 578h-68q7 -22 7 -54q0 -56 -32.5 -92t-92.5 -36q-66 0 -109.5 46.5t-43.5 135.5h-392v64h731v-64zM443 578q0 -54 20.5 -87t60.5 -33q61 0 61 74q0 28 -7 46h-135zM320 37h4q-7 99 -7 197v17
q-103 -22 -202 -105z" />
    <glyph glyph-name="bnL_KA" horiz-adv-x="858" 
d="M542 39h4q-7 98 -7 196v17q-103 -22 -202 -105zM878 578h-268v-250q104 -1 159.5 -53t55.5 -121q0 -105 -94 -154l-44 53q68 40 68 101q0 49 -38 77.5t-107 28.5v-256l45 -22l-53 -52l-334 174v75q51 50 122.5 90t148.5 53v58q-7 23 -29.5 41.5t-57.5 18.5q-37 0 -60 -26
t-23 -72v-38h-70v37q0 47 -24.5 71t-64.5 24q-38 0 -64 -30t-26 -81q0 -53 27.5 -84t71.5 -40l-25 -64q-68 14 -108 64.5t-40 123.5q0 80 47.5 129.5t113.5 49.5q97 0 126 -73h4q22 77 108 77q56 0 90 -37h4v107h-559v64h898v-64z" />
    <glyph glyph-name="bnSS_KA" horiz-adv-x="633" 
d="M428 -16l-52 -51l-334 174v74q61 61 142 101q-97 49 -97 170q0 79 44 126h-151v64h673v-64h-212q45 -50 45 -126q0 -78 -44 -128q77 -15 117 -62t40 -106q0 -102 -94 -154l-44 54q67 37 67 100q0 50 -38 78.5t-106 28.5v-256zM285 578q-41 0 -76 -23l193 -165
q14 28 14 62q0 52 -36.5 89t-94.5 37zM316 41h4q-7 99 -7 196v19q-103 -23 -203 -106zM285 323q45 0 79 23l-192 165q-14 -28 -14 -59q0 -56 35.5 -92.5t91.5 -36.5z" />
    <glyph glyph-name="bnS_KA" horiz-adv-x="674" 
d="M587 520q0 -61 -28.5 -103t-82.5 -53q77 -15 118 -62.5t41 -106.5q0 -104 -93 -155l-45 54q68 40 68 101q0 49 -38 77.5t-106 28.5v-256l44 -23l-53 -51l-334 174v74q58 57 139.5 99.5t168.5 49.5q-73 23 -100 98q-33 -105 -129 -105q-41 0 -76 21.5t-58 56.5l46 45
q44 -58 88 -58q78 0 90 152h-267v64h714v-64h-113q6 -29 6 -58zM324 578q2 -65 31 -109t82 -44q80 0 80 98q0 25 -7 55h-186zM352 80h5q-7 98 -7 196v18q-105 -24 -203 -106z" />
    <glyph glyph-name="bnNG_KHA" horiz-adv-x="738" 
d="M683 -240l-48 -55l-444 140v74q246 10 246 136q0 42 -23 65q-42 -132 -150 -132q-59 0 -91 33t-32 83q0 22 4 38h71q-6 -22 -6 -36q0 -24 14.5 -39t41.5 -15q37 0 59.5 30t42.5 91q-37 -10 -76 -10q-111 0 -182.5 70t-84.5 184l63 20q11 -98 65 -153.5t140 -55.5
q66 0 102.5 31.5t36.5 76.5q0 21 -8 35q-62 -46 -134 -46q-54 0 -85 28.5t-31 77.5v39q-67 37 -111 108h-83v64h127q25 -62 70 -101q8 119 117 119q57 0 90.5 -33t33.5 -80q0 -46 -34 -77t-92 -31q-22 0 -49 5v-14q0 -43 49 -43q59 0 152 66q23 -17 38.5 -49t15.5 -69
q0 -84 -69 -133q76 -60 76 -148q0 -72 -49 -117t-137 -58v-4l250 -80l4 1q-6 86 -6 208v737h71v-99h120v-64h-120v-804zM293 497q31 0 46 15t15 37q0 21 -14.5 37t-41.5 16q-55 0 -55 -68v-30q28 -7 50 -7z" />
    <glyph glyph-name="bnS_KHA" horiz-adv-x="809" 
d="M752 -78l-49 -57l-459 162v68q260 5 260 136q0 33 -24 59q-20 -49 -58.5 -78.5t-87.5 -29.5q-57 0 -90.5 31t-33.5 86q0 27 6 49h73q-8 -22 -8 -47q0 -23 13.5 -37.5t41.5 -14.5q34 0 58.5 28t46.5 86q-6 -1 -19 -1q-58 0 -96 31.5t-57 80.5q-35 -111 -132 -111
q-40 0 -75.5 21.5t-58.5 54.5l46 45q43 -59 88 -59q75 0 90 153h-247v64h569q24 -64 24 -119q0 -111 -80 -147q82 -64 82 -145q0 -75 -50 -119t-139 -57v-4l253 -92l4 1q-7 104 -7 213v568h73v-99h120v-64h-120v-642zM310 578q2 -70 30.5 -111.5t80.5 -41.5q39 0 59 27
t20 69q0 31 -6 57h-184z" />
    <glyph glyph-name="bnG_GA" horiz-adv-x="654" 
d="M359 361q0 -13 -3 -27q81 -20 125 -81v121q0 85 -52 143.5t-140 58.5q-57 0 -99.5 -28t-62.5 -67q36 18 85 18q63 0 105 -37t42 -101zM554 -143h-73v213q0 86 -51 144.5t-138 58.5q-58 0 -100.5 -27t-64.5 -69q36 18 88 18q61 0 102 -35.5t41 -99.5q0 -116 -127 -198
l-56 49q109 73 109 150q0 38 -24 56t-63 18q-58 0 -107 -27l-53 52q20 76 89 128t154 54q4 9 4 20q0 38 -24 56.5t-63 18.5q-58 0 -107 -27l-53 54q25 79 93.5 130.5t155.5 51.5q141 0 206 -107h4q-15 50 -15 156v46h73v-99h120v-64h-120v-721z" />
    <glyph glyph-name="bnNG_GA" horiz-adv-x="702" 
d="M383 289v-16l105 47t102 46l52 -47q-48 -96 -48 -213v-156h-71v152q0 96 32 174l-185 -86q-19 -64 -60 -102t-101 -38q-58 0 -99.5 32t-55.5 70l55 39q32 -74 101 -74q50 0 77 47.5t27 123.5q0 69 -23 115t-75 46q-36 0 -56.5 -20.5t-20.5 -56.5q0 -40 31 -64l-53 -38
q-50 38 -50 104q0 62 39 100.5t108 38.5q82 0 125.5 -63t43.5 -161zM722 578h-92q7 -21 7 -54q0 -57 -33 -92t-92 -35q-66 0 -110 46.5t-44 134.5h-378v64h742v-64zM429 578q0 -54 21 -87t61 -33q61 0 61 74q0 28 -7 46h-136z" />
    <glyph glyph-name="bnDD_GA" horiz-adv-x="1136" 
d="M1037 0h-74v370q0 83 -53.5 143t-140.5 60q-58 0 -99.5 -29.5t-62.5 -67.5q38 19 91 19q61 0 102.5 -37t41.5 -102q0 -59 -38 -113.5t-102 -95.5l-57 53q121 71 121 158q0 38 -24 57.5t-62 19.5q-51 0 -100 -23q24 -46 24 -96q0 -108 -69 -172t-187 -64q-97 0 -170 50.5
t-109.5 130t-41.5 178.5l70 15q5 -142 73.5 -223.5t177.5 -81.5q83 0 133 45.5t50 119.5q0 44 -16 66q-72 -63 -160 -63q-54 0 -85 33.5t-31 86.5v141h-259v64h786q45 0 83.5 -12t63 -31.5t39 -35.5t23.5 -32h4q-2 5 -5.5 25t-7 57t-3.5 74v54h74v-99h119v-64h-119v-578z
M456 578h-143v-138q0 -54 47 -54q29 0 74.5 20t90.5 62q22 68 80 115l-2 2q-42 -7 -147 -7z" />
    <glyph glyph-name="bnD_GA" horiz-adv-x="1016" 
d="M916 0h-73v370q0 82 -53.5 142.5t-140.5 60.5q-58 0 -100 -29.5t-63 -67.5q38 19 91 19q61 0 102.5 -37t41.5 -102q0 -61 -40.5 -117t-106.5 -96l-57 52q129 75 129 163q0 38 -24 57.5t-63 19.5q-46 0 -94 -20q-26 -99 -26 -211v-204h-75v206q0 95 28 192
q-124 -81 -230 -229l-74 33v376h-108v64h665q45 0 83.5 -12t63 -31.5t39 -35.5t23.5 -32h4q-2 5 -5.5 25t-7 57t-3.5 74v54h74v-99h120v-64h-120v-578zM161 280q41 53 113 114.5t132 86.5q22 57 76 101l-2 3q-42 -7 -138 -7h-181v-298z" />
    <glyph glyph-name="bnDDx_GA" horiz-adv-x="1143" 
d="M1043 0h-73v370q0 82 -53.5 142.5t-140.5 60.5q-58 0 -100 -29.5t-63 -67.5q38 19 91 19q61 0 102.5 -37t41.5 -102q0 -59 -38 -113.5t-101 -95.5l-57 53q121 72 121 158q0 38 -24 57.5t-63 19.5q-51 0 -100 -23q24 -46 24 -96q0 -108 -69 -172t-187 -64
q-144 0 -228.5 103t-92.5 256l71 15q5 -142 73.5 -223.5t177.5 -81.5q82 0 132.5 45.5t50.5 119.5q0 42 -16 66q-74 -63 -161 -63q-54 0 -84.5 33.5t-30.5 86.5v141h-266v64h792q45 0 83.5 -12t63 -31.5t39 -35.5t23.5 -32h4q-2 5 -5.5 25t-7 57t-3.5 74v54h74v-99h120v-64
h-120v-578zM394 -67q0 -22 -14 -36t-36 -14t-36 14t-14 36t14 36t36 14t36 -14t14 -36zM463 578h-144v-138q0 -54 47 -54q29 0 74.5 20t90.5 62q21 66 80 115l-2 2q-42 -7 -146 -7z" />
    <glyph glyph-name="bnL_GA" horiz-adv-x="723" 
d="M743 578h-120v-772h-74v165q0 85 -45.5 141.5t-132.5 56.5q-53 0 -93 -28t-59 -66q42 23 95 21q58 -2 95 -34.5t37 -90.5q1 -51 -34 -98t-91 -80l-51 53q52 32 77.5 61t24.5 64q0 68 -84 68q-51 0 -104 -30l-51 51q22 75 86.5 125t148.5 51q123 0 181 -88v238
q-7 23 -30 41.5t-57 18.5q-37 0 -60.5 -26.5t-23.5 -71.5v-24h-71v22q0 43 -24 69.5t-65 26.5q-40 0 -66 -24t-26 -69q0 -72 76 -102l-36 -56q-49 14 -82 58t-33 101q0 72 47 116.5t116 44.5q96 0 128 -76h4q8 33 35 56t73 23q58 0 91 -36h4v100h-569v64h763v-64z" />
    <glyph glyph-name="bnNG_GHA" horiz-adv-x="1166" 
d="M375 447q81 0 81 71q0 29 -18.5 50t-56.5 21q-35 0 -53.5 -24t-18.5 -68v-37q32 -13 66 -13zM1065 -13l-454 221q-13 -79 -78 -125.5t-167 -46.5q-145 0 -234 99t-97 240l67 15q9 -134 83.5 -209.5t180.5 -75.5q84 0 131 39.5t47 97.5q0 40 -15 62q-89 -64 -164 -64
q-59 0 -91.5 33t-32.5 87v69q-84 55 -125 149h-136v64h183q23 -81 81 -138q1 69 38 107t99 38q26 0 46 -7h759v-64h-119v-515l43 -21zM545 397q56 -43 67 -121l55 34q17 11 33.5 19.5t25.5 12.5l17.5 7.5t9.5 4.5v5q-71 5 -110 40.5t-39 90.5q0 52 31 88h-128q16 -30 16 -62
q0 -60 -41 -94t-107 -34q-36 0 -66 10v-34q0 -57 56 -57q73 0 180 90zM997 96h4q-8 89 -8 202v280h-274q-43 -35 -43 -87q0 -39 29 -62t78 -23q48 0 103 32l31 -59l-224 -134z" />
    <glyph glyph-name="bnD_GHA" horiz-adv-x="1017" 
d="M1037 578h-120v-515l43 -21l-45 -55l-452 220v69l53 33q17 11 33.5 20t25.5 13l17.5 7.5t9.5 4.5v4q-109 10 -139 82q-34 -106 -34 -225v-136h-73v135q0 124 33 204q-115 -82 -226 -223l-74 45v338h-109v64h1057v-64zM162 304q48 56 116.5 114t125.5 83l51 -28
q-1 6 -1 17q0 52 31 88h-323v-274zM848 96h3q-7 94 -7 202v280h-273q-43 -35 -43 -87q0 -39 29 -62t77 -23q49 0 102 32l32 -59l-224 -134z" />
    <glyph glyph-name="bnL_GHA" horiz-adv-x="1039" 
d="M983 34l-45 -55l-456 222v65l58 36l34 20t25 13l17.5 7.5t9.5 4.5v4q-69 4 -108 39h-1q-25 23 -63 23t-60.5 -26t-22.5 -72v-38h-71v37q0 45 -24 70t-65 25t-66 -31t-25 -82q0 -62 33 -94t88 -32q35 0 60 11l11 -67q-33 -12 -71 -12q-88 0 -142 53.5t-54 140.5
q0 82 46 132t117 50q53 0 84.5 -25.5t41.5 -56.5h4q7 34 34 60t72 26q13 0 33 -4v4q0 54 35 96h-532v64h1079v-64h-119v-523zM870 88l4 1q-8 89 -8 201v288h-269q-47 -40 -47 -95q0 -26 13 -45v0q27 -40 93 -40q48 0 103 32l31 -59l-224 -134z" />
    <glyph glyph-name="bnC_CA" horiz-adv-x="851" 
d="M799 248q0 -93 -72.5 -171t-166.5 -78q-63 0 -99 34t-36 91v154q-18 -70 -74.5 -115.5t-129.5 -45.5q-63 0 -99.5 34t-36.5 92v335h-105v64h891v-64h-377v-27q0 -77 88 -110l82 -31q68 -25 101.5 -63.5t33.5 -98.5zM497 126q0 -60 64 -60q55 0 110 57t55 126q0 32 -19 55
t-68 41l-64 24q-52 19 -78 52h-4q4 -36 4 -157v-138zM157 246q0 -61 64 -61q54 0 97 43.5t43 104.5q0 32 -18.5 54.5t-66.5 39.5l-44 16q-52 17 -77 51h-4q6 -60 6 -158v-90zM300 492q103 -38 125 -109v195h-270q15 -40 87 -65z" />
    <glyph glyph-name="bnNY_CA" horiz-adv-x="766" 
d="M488 22l-51 -50l-358 170v84q135 96 266 162q-52 136 -152 136q-41 0 -62 -20t-21 -51q0 -34 25 -63l-60 -27q-35 37 -35 92q0 59 40 97.5t109 38.5q63 0 111 -34.5t75 -92.5h4q-9 63 -9 162v16h73v-9q0 -66 -6 -102l2 -1q45 65 132 65q63 0 101.5 -38t38.5 -96
q0 -87 -73 -115v-4q37 -12 61 -42.5t24 -76.5q0 -61 -38.5 -102t-103.5 -41q-91 0 -138 67v-102zM443 344q0 -87 34.5 -142.5t96.5 -55.5q38 0 58.5 23t20.5 57q0 37 -24 59t-69 22h-23v67h19q41 0 62.5 23t21.5 62q0 31 -20.5 50.5t-56.5 19.5q-51 0 -85.5 -48.5
t-34.5 -136.5zM375 77h4q-7 99 -7 198v50q-99 -54 -228 -139z" />
    <glyph glyph-name="bnSH_CA" horiz-adv-x="937" 
d="M583 126q0 -60 64 -60q55 0 110 57t55 126q0 32 -19 55t-68 41l-65 24q-49 18 -78 52h-4q5 -23 5 -157v-138zM885 248q0 -93 -72.5 -171t-166.5 -78q-63 0 -99 34t-36 91v454h-119q-49 0 -84.5 -35t-35.5 -94q0 -52 36 -83.5t88 -31.5q27 0 53 11v-70q-26 -7 -54 -7
q-50 0 -92.5 22t-68.5 59q-49 -81 -155 -81q-30 0 -56 7v68q20 -9 55 -9q56 0 89 32.5t33 83.5q0 63 -35 95.5t-92 32.5h-93v64h93q111 0 164 -80q57 80 152 80h568v-64h-377v-27q0 -77 88 -110l82 -31q68 -25 101.5 -63.5t33.5 -98.5z" />
    <glyph glyph-name="bnC_CHA" horiz-adv-x="937" 
d="M704 404q0 -60 -44.5 -105.5t-112.5 -45.5q-91 0 -114 70q-5 -83 -66.5 -142t-145.5 -59q-63 0 -99.5 34t-36.5 92v330h-105v64h977v-64h-470q8 -17 29.5 -28.5t59.5 -24t56 -21.5q30 9 62 9q78 0 131 -48.5t53 -126.5q0 -96 -69 -149t-203 -59v-4q45 -12 137 -59
l156 -82l-49 -54q-215 116 -283.5 148.5t-119.5 39.5v67h95q264 0 264 152q0 51 -33 80.5t-78 29.5q9 -18 9 -44zM157 250q0 -61 65 -61q53 0 95 43t42 104q0 32 -18 54.5t-66 39.5l-41 13q-55 20 -79 53h-4q6 -30 6 -157v-89zM495 366q0 -50 51 -50q37 0 64 27t27 62
q0 26 -24 40t-62 25.5t-56 26.5v-131zM299 494q104 -37 127 -109v193h-270q19 -38 86 -63z" />
    <glyph glyph-name="bnNY_CHA" horiz-adv-x="699" 
d="M606 -205l-41 -58q-211 87 -298.5 117t-153.5 33v67h119q192 0 192 89q0 32 -26 60q-60 -60 -156 -60q-81 0 -133 40.5t-52 113.5q0 53 28.5 91.5t69.5 61t81.5 42t69 45t28.5 58.5q0 38 -28.5 61t-74.5 23q-44 0 -70 -22t-26 -62q0 -38 29 -65l-54 -36q-46 37 -46 102
q0 68 46.5 109t119.5 41q101 0 146 -71q46 67 129 67q57 0 94.5 -32t37.5 -90q0 -29 -14.5 -54.5t-41.5 -37.5v-4q65 -25 65 -98q0 -54 -35 -89t-98 -35q-72 0 -117 47t-56 125q-21 -16 -62 -37q17 -44 46.5 -79.5t57.5 -58l54.5 -44.5t42.5 -50t16 -64q0 -63 -49 -97.5
t-131 -40.5v-4q52 -6 162 -51zM240 111q59 0 105 36q-27 21 -45 38t-41.5 50t-38.5 73q-44 -23 -67.5 -48t-23.5 -63q0 -41 30 -63.5t81 -22.5zM396 424q0 -74 31 -115t83 -41q31 0 48.5 16.5t17.5 44.5q0 62 -83 62h-19v64h19q74 0 74 63q0 28 -17.5 43.5t-47.5 15.5
q-45 0 -75.5 -40.5t-30.5 -112.5z" />
    <glyph glyph-name="bnSH_CHA" horiz-adv-x="1007" 
d="M565 366q0 -50 53 -50q38 0 63.5 27t25.5 62q0 26 -24 40t-62 25.5t-56 26.5v-131zM774 404q0 -60 -44.5 -105.5t-112.5 -45.5q-58 0 -89.5 31t-31.5 81v213h-108q-49 0 -84.5 -35t-35.5 -94q0 -52 36 -83.5t88 -31.5q29 0 53 11v-70q-26 -7 -53 -7q-50 0 -93 22t-69 59
q-49 -81 -155 -81q-30 0 -56 7v68q21 -9 55 -9q56 0 89 32.5t33 83.5q0 63 -35 95.5t-92 32.5h-88v64h88q111 0 164 -80q58 80 152 80h642v-64h-470q8 -16 29.5 -27.5t58.5 -24t55 -21.5q35 8 64 8q78 0 131 -48.5t53 -126.5q0 -195 -272 -207v-4q44 -11 137 -60l158 -83
l-50 -54q-229 125 -297.5 155.5t-126.5 36.5v64h116q263 0 263 152q0 50 -31 78.5t-80 31.5q9 -20 9 -44z" />
    <glyph glyph-name="bnNY_JA" horiz-adv-x="763" 
d="M513 62q0 -73 -44.5 -116.5t-131.5 -43.5q-127 0 -212.5 106t-90.5 256l70 20q2 -131 68 -222t165 -91q51 0 78 25t27 65q0 32 -14 51l-81 10q-57 7 -90.5 36.5t-33.5 80.5q0 38 23.5 75t52 61.5t52 56.5t23.5 61q0 40 -28 63t-75 23q-44 0 -70 -22.5t-26 -62.5
q0 -38 31 -67l-55 -37q-47 39 -47 104q0 71 47 111t119 40q103 0 147 -70q45 69 135 69q58 0 93 -34t35 -85q0 -75 -63 -99v-4q31 -11 52.5 -37.5t21.5 -65.5q0 -33 -14 -61l29 -23q-37 -72 -37 -175v-175h-70v177q0 78 21 142q-26 -12 -62 -12q-76 0 -119.5 47.5
t-55.5 125.5q-8 -9 -29.5 -30.5t-30.5 -32.5t-18 -28.5t-9 -33.5q0 -45 67 -53l105 -14q45 -40 45 -111zM438 424q0 -76 30 -121.5t85 -45.5q33 0 51.5 18t18.5 48q0 32 -21.5 49.5t-60.5 17.5h-21v60h18q74 0 74 68q0 28 -17.5 44.5t-50.5 16.5q-45 0 -75.5 -40t-30.5 -115
z" />
    <glyph glyph-name="bnJ_JA" horiz-adv-x="1146" 
d="M538 224q0 -48 -24 -87q68 -121 186 -121q57 0 88.5 29t31.5 70q0 37 -16 56l-93 6q-54 4 -85 31t-31 75q0 63 75 133q-80 2 -140 28.5t-87 80.5q-48 -26 -87.5 -63.5t-39.5 -69.5q0 -41 55 -44l120 -10q21 -18 34 -50t13 -64zM1049 -85h-70v164q0 98 44 193
q-96 2 -159 30t-104 99q-88 -67 -88 -114q0 -40 55 -43l120 -10q21 -19 34 -52t13 -65q0 -73 -51.5 -121.5t-141.5 -48.5q-74 0 -136.5 36.5t-104.5 101.5q-47 -30 -115 -30q-129 0 -216 106t-92 256l70 20q2 -131 69 -222t168 -91q58 0 89 29t31 70q0 31 -16 52l-92 6
q-54 5 -85 32t-31 74q0 52 47 103t116 88h-423v64h1186v-64h-671q14 -40 45.5 -63t72.5 -30.5t104 -7.5h83q14 -32 27 -52.5t37.5 -43.5t64.5 -34.5t95 -11.5h47l33 -51q-55 -99 -55 -209v-160z" />
    <glyph glyph-name="bnN_JA" horiz-adv-x="874" 
d="M898 578h-475v-79q59 -47 152 -73.5t192 -26.5h40l33 -53q-52 -99 -52 -233v-186h-71v190q0 126 42 217q-204 2 -336 86v-123q0 -48 57 -53l104 -10q21 -20 34 -51.5t13 -61.5q0 -81 -52.5 -129.5t-152.5 -48.5q-109 0 -192 71t-116 181l62 36q26 -98 91.5 -158.5
t153.5 -60.5q66 0 99 30t33 77q0 34 -16 52l-73 6q-94 8 -114 74q-36 84 -73.5 131.5t-93.5 47.5q-37 0 -57.5 -20.5t-20.5 -51.5q0 -33 26 -65l-58 -28q-38 38 -38 96q0 59 39.5 97.5t106.5 38.5q110 0 171 -116h4q-9 63 -9 170v27h-371v64h918v-64z" />
    <glyph glyph-name="bnB_JA" horiz-adv-x="836" 
d="M312 298v178q-106 -43 -187 -106l187 -82v10zM856 578h-472v-79q59 -47 152 -73.5t192 -26.5h40l33 -53q-52 -99 -52 -233v-186h-70v190q0 128 41 217q-202 2 -336 86v-123q0 -48 57 -53l104 -10q21 -20 34 -51.5t13 -61.5q0 -81 -52 -129.5t-153 -48.5q-108 0 -190.5 69
t-114.5 177l61 37q26 -96 91 -155t153 -59q66 0 99 30t33 77q0 33 -17 52l-72 6q-35 3 -57 13l-317 136v74q41 36 111 79t145 69v30h-332v64h876v-64z" />
    <glyph glyph-name="bnNY_JHA" horiz-adv-x="856" 
d="M659 -24h4q-6 68 -6 198v2h-6q-44 0 -83 23t-53 46q5 -22 5 -102v-95zM565 -179l-52 -50l-334 173v77q92 73 227 127q-41 22 -138 33q-119 14 -176 55.5t-57 114.5q0 59 33 108l63 -27q-25 -36 -25 -80t40.5 -67t124.5 -34q85 -11 125 -26.5t62 -41.5h4q-13 104 -13 196
v126q0 73 -64 73q-60 0 -100 -42t-40 -98q0 -29 16.5 -45t45.5 -16q37 0 65 22l27 -55q-38 -30 -95 -30q-59 0 -94.5 34.5t-35.5 89.5q0 82 61 144t154 62q48 0 77.5 -23t39.5 -58q14 29 51 55.5t89 26.5q59 0 96.5 -34.5t37.5 -88.5q0 -37 -18 -64t-49 -40v-4
q32 -10 55 -37.5t23 -69.5q0 -78 -66 -114v-263l-65 -31l-140 72v-127zM518 415q0 -78 34 -125t94 -47q36 0 55.5 20t19.5 48q0 34 -22.5 52.5t-63.5 18.5h-23v61h18q37 0 58.5 20.5t21.5 54.5q0 27 -18.5 44t-53.5 17q-46 0 -83 -42t-37 -122zM453 -122h4q-7 99 -7 179v35
q-104 -41 -200 -107z" />
    <glyph glyph-name="bnJ_JHA" horiz-adv-x="1000" 
d="M837 -54q-6 80 -6 201v431h-356q11 -65 61 -112.5t145 -47.5h21l33 -52q-48 -86 -48 -208v-134l146 -78h4zM732 -210l-52 -51l-335 173v77q47 37 126 79.5t145 64.5v28q0 111 38 193q-89 3 -155 54.5t-80 119.5l-52 -31.5t-39.5 -35t-22.5 -46.5q0 -38 67 -43l106 -9
q22 -19 35 -49.5t13 -62.5q0 -72 -50.5 -119t-139.5 -47q-129 0 -216 105t-93 254l70 20q3 -131 69.5 -220.5t167.5 -89.5q58 0 88.5 26.5t30.5 67.5q0 31 -16 52l-88 7q-120 12 -120 102q0 91 149 169h-398v64h1040v-64h-120v-678l-67 -31l-146 77v-134zM618 -153h4
q-6 84 -6 179v35q-96 -38 -200 -107z" />
    <glyph glyph-name="bnC_NYA" horiz-adv-x="1040" 
d="M647 15h4q-13 78 -13 195v130q0 36 -15 54t-49 18q-61 0 -105.5 -42t-44.5 -97q0 -28 16.5 -44t45.5 -16q38 0 65 22l27 -56q-35 -29 -96 -29q-73 0 -107 50q-30 -36 -71 -57q32 -51 157 -66q86 -10 127 -24.5t59 -37.5zM154 248q0 -59 62 -59q53 0 97 44t44 107
q0 31 -18 54t-66 40l-44 15q-54 18 -77 51h-4q6 -54 6 -153v-99zM705 249q0 -78 34.5 -125.5t94.5 -47.5q35 0 54.5 20t19.5 48q0 34 -22.5 53t-63.5 19h-23v61h19q37 0 58 20t21 54q0 27 -18.5 44.5t-53.5 17.5q-46 0 -83 -42.5t-37 -121.5zM1060 578h-906q18 -38 81 -60
l61 -22q88 -33 116 -88q67 69 166 69q48 0 77 -22t39 -57q14 29 51 55t88 26q59 0 96.5 -35t37.5 -89q0 -37 -19.5 -64t-50.5 -40v-4q33 -9 57 -37t24 -70q0 -57 -38.5 -93.5t-101.5 -36.5q-44 0 -82 23t-53 46q5 -20 5 -98v-79h-67q0 54 -42.5 77.5t-143.5 34.5
q-179 20 -225 109q-5 -1 -15 -1q-61 0 -95.5 33.5t-34.5 89.5v333h-105v64h1080v-64z" />
    <glyph glyph-name="bnK_TTA" horiz-adv-x="654" 
d="M320 270h4q-6 84 -6 196v10q-117 -22 -200 -100zM568 687q0 -13 -4 -45h110v-64h-286v-33q104 -4 162.5 -50t58.5 -116q0 -109 -99 -159l-46 54q74 30 74 105q0 96 -150 102v-272q-197 -45 -197 -172q0 -54 41.5 -84t107.5 -30q65 0 100.5 26t35.5 66q0 28 -18 45t-45 17
q-34 0 -57 -21l-38 58q37 32 95 32q56 0 95.5 -36t39.5 -97q0 -72 -57.5 -115.5t-150.5 -43.5q-100 0 -161 50t-61 132q0 131 133 194l-205 107v71q115 114 272 133v37h-338v64h511q5 23 5 40q0 42 -27 61t-85 19h-165q-87 0 -124.5 36.5t-37.5 92.5q0 9 2 29l70 15l-3 -33
q0 -75 98 -75h171q77 0 125 -36.5t48 -103.5z" />
    <glyph glyph-name="bnTT_TTA" horiz-adv-x="640" 
d="M542 687q0 -18 -5 -45h123v-64h-428v-327q0 -38 22.5 -58.5t62.5 -20.5q66 0 111 47.5t45 115.5q0 36 -17.5 58t-53.5 22q-39 0 -62 -33l-40 59q37 43 102 43t105 -41t40 -107q0 -53 -20 -99q50 -53 50 -134q0 -97 -64 -155.5t-169 -58.5q-113 0 -199.5 73t-126.5 193
l58 42q35 -108 104 -174t163 -66q74 0 117.5 40t43.5 107q0 44 -18 71q-65 -71 -169 -71q-71 0 -114 38t-43 104v332h-180v64h485q4 19 4 40q0 43 -26.5 61.5t-85.5 18.5h-163q-87 0 -124.5 36.5t-37.5 92.5q0 19 2 29l70 15l-3 -33q0 -75 98 -75h169q77 0 125.5 -36.5
t48.5 -103.5z" />
    <glyph glyph-name="bnNN_TTA" horiz-adv-x="862" 
d="M789 687q0 -24 -4 -45h97v-64h-394v-379q0 -36 19.5 -57.5t57.5 -21.5q66 0 115 52t49 122q0 41 -17.5 65.5t-53.5 24.5q-40 0 -62 -32l-41 58q40 44 103 44q64 0 104 -44.5t40 -115.5q0 -94 -69 -168t-171 -74q-67 0 -107 39t-40 103v128q0 117 -40 185t-125 68
q-65 0 -101 -37.5t-36 -96.5q0 -56 33 -87t85 -31q45 0 76 24l24 -64q-38 -28 -102 -28q-85 0 -137.5 52.5t-52.5 133.5q0 88 55.5 144.5t152.5 56.5q58 0 100.5 -23.5t63.5 -59.5h4v83h297q5 23 5 40q0 42 -27 61t-85 19h-165q-86 0 -123.5 36.5t-37.5 92.5q0 19 2 29
l69 15l-3 -33q0 -75 98 -75h171q77 0 125 -36.5t48 -103.5z" />
    <glyph glyph-name="bnN_TTA" horiz-adv-x="815" 
d="M742 687q0 -18 -5 -45h98v-64h-395v-381q0 -35 19.5 -56.5t57.5 -21.5q67 0 115.5 51.5t48.5 122.5q0 40 -17.5 65t-53.5 25q-39 0 -62 -33l-41 58q38 44 103 44q64 0 104 -44t40 -115q0 -94 -69 -168.5t-170 -74.5q-67 0 -107.5 39.5t-40.5 102.5v7q-8 54 -27 99.5
t-57.5 80.5t-89.5 35q-41 0 -62 -20t-21 -52q0 -33 25 -63l-61 -26q-35 39 -35 91q0 60 40.5 98.5t109.5 38.5q123 0 183 -116h4q-10 70 -10 195v18h-386v64h685q4 28 4 40q0 43 -26.5 61.5t-85.5 18.5h-165q-86 0 -123.5 36.5t-37.5 92.5q0 19 2 29l69 15l-3 -33
q0 -75 99 -75h170q77 0 125.5 -36.5t48.5 -103.5z" />
    <glyph glyph-name="bnL_TTA" horiz-adv-x="999" 
d="M926 687q0 -13 -4 -45h97v-64h-394v-379q0 -36 19.5 -57.5t57.5 -21.5q66 0 115 52t49 122q0 40 -18 65t-53 25q-39 0 -63 -32l-40 58q40 44 103 44q64 0 104 -44.5t40 -115.5q0 -94 -69 -168t-171 -74q-67 0 -107 39t-40 103v156q-7 23 -30 41.5t-57 18.5q-38 0 -61 -26
t-23 -72v-39h-71v38q0 46 -24 70.5t-64 24.5q-38 0 -64.5 -29t-26.5 -80q0 -61 36 -96t91 -35q41 0 73 19l16 -66q-41 -19 -89 -19q-86 0 -144 55.5t-58 141.5q0 80 47.5 129t114.5 49q97 0 127 -73h4q9 33 36 54.5t72 21.5q58 0 91 -36h4v136h-572v64h869q5 23 5 40
q0 42 -27 61t-85 19h-165q-87 0 -124.5 36.5t-37.5 92.5q0 9 2 29l70 15l-3 -33q0 -75 98 -75h171q77 0 125 -36.5t48 -103.5z" />
    <glyph glyph-name="bnSS_TTA" horiz-adv-x="556" 
d="M486 687q0 -13 -4 -45h94v-64h-143q44 -49 44 -124q0 -68 -34 -114t-92 -64l-45.5 -17t-49.5 -19t-43 -21.5t-39.5 -29t-24 -37.5t-10.5 -50q0 -56 41.5 -86.5t107.5 -30.5q65 0 100.5 27.5t35.5 67.5q0 28 -17.5 45t-44.5 17q-34 0 -57 -21l-38 58q36 32 95 32
q56 0 95 -36t39 -97q0 -73 -57.5 -118t-150.5 -45q-100 0 -161 50.5t-61 134.5q0 124 122 181q-51 21 -80.5 65.5t-29.5 107.5q0 75 44 124h-142v64h429q5 23 5 40q0 42 -27 61t-85 19h-133q-87 0 -124.5 36.5t-37.5 92.5q0 9 2 29l70 15l-3 -33q0 -75 98 -75h139
q77 0 125 -36.5t48 -103.5zM277 330q45 0 76 21l-190 162q-14 -26 -14 -59q0 -55 35.5 -89.5t92.5 -34.5zM277 581q-43 0 -77 -24l191 -165q15 27 15 62q0 52 -36.5 89.5t-92.5 37.5z" />
    <glyph glyph-name="bnP_TTA" horiz-adv-x="924" 
d="M119 502q63 -3 109 -39t62 -103l158 107q-53 110 -169 110q-56 0 -97 -23.5t-63 -51.5zM851 687q0 -24 -4 -45h97v-64h-394v-392q0 -35 19.5 -56.5t57.5 -21.5q66 0 115 52t49 122q0 40 -18 65t-53 25q-39 0 -63 -33l-40 58q38 44 103 44q64 0 104 -44.5t40 -114.5
q0 -94 -69 -168.5t-171 -74.5q-66 0 -106.5 39.5t-40.5 102.5v141q0 39 -8 79l-297 -202l-37 56l98 67q-19 94 -105 115q-22 7 -59 7l-41 61q35 56 99.5 97.5t148.5 41.5q148 0 211 -120l4 1q-13 33 -13 101v16h296q5 23 5 40q0 42 -27 61t-85 19h-165q-86 0 -123.5 36.5
t-37.5 92.5q0 19 2 29l69 15l-3 -33q0 -75 98 -75h171q77 0 125 -36.5t48 -103.5z" />
    <glyph glyph-name="bnPH_TTA" horiz-adv-x="793" 
d="M737 687q0 -24 -4 -45h80v-64h-671v-4l125 -115v-61l-141 -95l245 -126h4q-7 101 -7 197v123q54 23 122 23q87 0 143.5 -41t56.5 -121q0 -117 -124 -164l-38 59q90 33 90 103q0 44 -32.5 70t-81.5 26q-38 0 -63 -7v-482q0 -82 81 -82q66 0 113 41t47 102q0 34 -19.5 56
t-51.5 22q-39 0 -62 -32l-41 58q40 44 103 44t103.5 -40t40.5 -108q0 -87 -66 -149t-167 -62q-71 0 -112 39.5t-41 106.5v143l-319 164v68l148 98l-137 126v20h-81v64h680q5 23 5 40q0 42 -27 61t-85 19h-165q-87 0 -124.5 36.5t-37.5 92.5q0 9 2 29l70 15l-3 -33
q0 -75 98 -75h171q77 0 125 -36.5t48 -103.5z" />
    <glyph glyph-name="bnS_TTA" horiz-adv-x="651" 
d="M323 578q2 -65 31 -109t82 -44q80 0 80 98q0 31 -7 55h-186zM576 687q0 -13 -4 -45h99v-64h-90q6 -29 6 -58q0 -54 -22.5 -93.5t-65.5 -56.5q-20 -8 -67 -23.5t-75.5 -27.5t-62 -32.5t-50 -50t-16.5 -67.5q0 -54 42 -85.5t107 -31.5t101 26.5t36 65.5q0 29 -17.5 46
t-45.5 17q-33 0 -57 -21l-38 58q36 32 95 32q56 0 96.5 -36t40.5 -97q0 -73 -58.5 -117.5t-152.5 -44.5q-99 0 -162 52.5t-63 133.5q0 155 194 219q-42 29 -61 80q-36 -104 -129 -104q-81 0 -134 78l46 45q44 -58 88 -58q77 0 91 151h-267v64h519q5 23 5 40q0 42 -27 61
t-85 19h-165q-87 0 -124.5 36.5t-37.5 92.5q0 9 2 29l70 15l-3 -33q0 -75 98 -75h171q77 0 125 -36.5t48 -103.5z" />
    <glyph glyph-name="bnNN_TTHA" horiz-adv-x="805" 
d="M759 218q0 -88 -58 -149t-156 -61q-106 0 -168.5 68.5t-62.5 179.5q35 9 64 21q0 35 -1.5 61.5t-6 65t-15 66t-27 54t-44.5 40.5t-64 14q-54 0 -84.5 -33.5t-30.5 -85.5q0 -47 28 -76t77 -29q42 0 72 19l21 -62q-41 -23 -95 -23q-80 0 -127.5 46.5t-47.5 124.5
q0 80 48.5 132.5t138.5 52.5q106 0 167 -81t61 -226v-14q39 43 39 124v90q-60 65 -92.5 117.5t-38.5 77t-6 52.5q0 63 41 104t103 43q8 1 24 0l15 -66q-4 1 -15 1q-43 0 -69 -23.5t-26 -63.5q0 -59 67 -137h335v-64h-286q115 -122 167.5 -202t52.5 -158zM393 215
q3 -56 43 -97.5t111 -41.5q64 0 101.5 41t37.5 100q0 63 -36.5 121.5t-99.5 125.5q2 -29 -2 -53q-7 -153 -155 -196z" />
    <glyph glyph-name="bnN_TTHA" horiz-adv-x="713" 
d="M667 218q0 -88 -58 -149t-156 -61q-103 0 -170 68.5t-67 178.5q91 23 131 61q-68 119 -163 119q-39 0 -60 -20t-21 -51q0 -37 24 -64l-62 -25q-33 38 -33 90q0 60 39.5 98.5t108.5 38.5q126 0 205 -126q10 29 10 71v90l-35 41h-380v64h333q-55 76 -55 142
q0 70 46.5 110.5t121.5 38.5l15 -68q-47 2 -78.5 -20.5t-31.5 -65.5q0 -54 67 -137h335v-64h-282q60 -67 91.5 -105.5t64.5 -86.5t46.5 -87.5t13.5 -80.5zM301 215q3 -54 44.5 -96.5t109.5 -42.5q64 0 102 41t38 100q0 62 -36.5 120t-100.5 128q0 -37 -1 -48
q-5 -156 -156 -202z" />
    <glyph glyph-name="bnSS_TTHA" horiz-adv-x="678" 
d="M627 236q0 -88 -58.5 -148.5t-156.5 -60.5t-164 63.5t-74 178.5q-63 15 -101 63.5t-38 121.5q0 77 41 124h-96v64h298q-56 64 -56 141q0 69 46.5 111t119.5 39l15 -68q-49 5 -79.5 -18.5t-30.5 -67.5q0 -59 67 -137h338v-64h-290l77 -82t58 -67t48 -67.5t25 -59.5t11 -66
zM107 456q0 -57 34.5 -93.5t89.5 -36.5q41 0 74 23l-188 159q-10 -21 -10 -52zM252 261q7 -75 49.5 -121t112.5 -46q64 0 102 41t38 100q0 19 -3.5 37t-13 37.5l-15.5 32t-23.5 34l-24 29l-29 33t-27.5 30.5q2 -56 -15 -97.5t-46.5 -63t-54 -32t-50.5 -14.5zM151 555
l191 -162q15 30 15 63q0 53 -35.5 90t-90.5 37q-47 0 -80 -28z" />
    <glyph glyph-name="bnDD_DDA" horiz-adv-x="1137" 
d="M1157 578h-367v-162q0 -55 49 -55q27 0 74 21.5t95 65.5q29 -19 52 -61.5t23 -94.5q0 -106 -70 -171t-187 -65q-170 0 -259 144q-69 -94 -213 -94t-228 102t-91 255l70 15q5 -142 73 -223t177 -81q83 0 133 44.5t50 119.5q0 41 -16 65q-73 -62 -161 -62q-54 0 -84.5 33
t-30.5 86v118h-266v64h1177v-64zM827 125q83 0 133.5 45.5t50.5 119.5q0 42 -16 66q-75 -64 -159 -64q-57 0 -88.5 33t-31.5 87v166h-397v-114q0 -54 47 -54q29 0 75 20t95 65q29 -21 51.5 -62.5t22.5 -92.5q0 -30 -6 -57q31 -76 89 -117t134 -41z" />
    <glyph glyph-name="bnNN_DDA" horiz-adv-x="761" 
d="M670 458q0 -82 -53 -141q68 -52 68 -144q0 -97 -72 -153t-182 -56q-130 0 -229 72t-163 200l60 42q121 -244 333 -244q82 0 130.5 39.5t48.5 100.5q0 60 -45 97q-36 -25 -80 -47l-47 57q82 39 121 79.5t39 97.5q0 59 -62 104q-48 -82 -77 -120h-60q-26 134 -138 134
q-57 0 -87.5 -30t-30.5 -84q0 -52 30 -81t81 -29q46 0 79 22l24 -62q-40 -28 -105 -28q-84 0 -133.5 51.5t-49.5 127.5q0 83 49.5 131.5t139.5 48.5q125 0 174 -112q12 18 67 111h46q124 -75 124 -184z" />
    <glyph glyph-name="bnN_DDA" horiz-adv-x="764" 
d="M784 578h-358v-224q0 -55 47 -55q29 0 76 21t95 66q29 -19 52 -61.5t23 -94.5q0 -108 -69 -172t-187 -64q-114 0 -192.5 65t-115.5 170l59 45q32 -99 96.5 -155t152.5 -56q83 0 133.5 45.5t50.5 119.5q0 42 -16 66q-75 -64 -163 -64q-76 0 -104 64q-73 152 -180 152
q-41 0 -62 -20t-21 -51q0 -34 25 -64l-60 -26q-35 37 -35 91q0 60 40 98.5t109 38.5q111 0 179 -97h4q-8 56 -9 162h-374v64h804v-64z" />
    <glyph glyph-name="bnB_DDA" horiz-adv-x="708" 
d="M299 317v169q-96 -40 -179 -107l179 -73v11zM728 578h-357v-258q0 -54 47 -54q29 0 76 21t95 66q29 -19 52 -62t23 -95q0 -107 -69 -171t-187 -64q-108 0 -187.5 61.5t-115.5 160.5l58 48q30 -96 94 -148.5t151 -52.5q83 0 133.5 45t50.5 120q0 41 -16 65
q-76 -63 -161 -63q-27 0 -50 9l-314 129v77q47 42 118 84t130 63v19h-318v64h747v-64z" />
    <glyph glyph-name="bnL_DDA" horiz-adv-x="947" 
d="M967 578h-356v-211q0 -54 47 -54q29 0 76 21t96 66q28 -19 51 -62t23 -95q0 -107 -69 -171t-187 -64q-96 0 -167.5 46t-111.5 127l58 50q31 -74 89 -114.5t132 -40.5q83 0 133.5 45.5t50.5 119.5q0 42 -16 67q-75 -64 -160 -64q-56 0 -87 33.5t-31 86.5v8q-7 23 -30 41.5
t-56 18.5q-37 0 -59.5 -26t-22.5 -71v-38h-69v37q0 46 -24 70t-64 24q-38 0 -63.5 -29t-25.5 -80q0 -61 34 -95t88 -34q37 0 68 17l14 -64q-36 -18 -82 -18q-84 0 -139.5 54.5t-55.5 139.5q0 80 46.5 128.5t112.5 48.5q95 0 124 -73h4q9 33 35.5 54.5t70.5 21.5q57 0 90 -36
h4v115h-558v64h987v-64z" />
    <glyph glyph-name="bnNN_DDHA" horiz-adv-x="862" 
d="M802 294q0 -94 -69 -168t-171 -74q-67 0 -107 39t-40 103v128q0 117 -39.5 185t-124.5 68q-66 0 -102 -37.5t-36 -97.5q0 -55 33 -86t85 -31q45 0 76 24l24 -64q-38 -28 -102 -28q-85 0 -137.5 52.5t-52.5 133.5q0 88 55.5 144.5t152.5 56.5q58 0 100.5 -23.5t63.5 -59.5
h4v83h467v-64h-394v-379q0 -36 19.5 -57.5t57.5 -21.5q66 0 115 52t49 122q0 41 -17.5 65.5t-53.5 24.5q-40 0 -62 -32l-41 58q40 44 103 44q64 0 104 -44.5t40 -115.5z" />
    <glyph glyph-name="bnN_DDHA" horiz-adv-x="816" 
d="M836 578h-397v-383q0 -35 19.5 -56.5t58.5 -21.5q67 0 116 51.5t49 123.5q0 41 -17.5 66t-52.5 25q-39 0 -64 -34l-40 58q39 45 103 45t104.5 -44.5t40.5 -115.5q0 -96 -69 -170t-170 -74q-69 0 -110 39t-41 103v5q-8 55 -27 102.5t-58.5 83.5t-91.5 36q-41 0 -62 -20
t-21 -52q0 -33 25 -63l-60 -26q-35 37 -35 91q0 60 40 98.5t109 38.5q127 0 187 -120h4q-10 60 -10 194v20h-386v64h856v-64z" />
    <glyph glyph-name="bnB_DDHA" horiz-adv-x="788" 
d="M341 218v253q-129 -52 -236 -134zM808 578h-396v-387q0 -36 22 -57.5t63 -21.5q66 0 112 51.5t46 123.5q0 41 -19 66t-58 25q-38 0 -61 -18l-27 62q37 25 89 25q67 0 108.5 -44.5t41.5 -115.5q0 -96 -65.5 -170t-166.5 -74q-56 0 -94.5 24t-53.5 67l-311 161v78
q69 57 154.5 103.5t148.5 68.5v33h-361v64h828v-64z" />
    <glyph glyph-name="bnNN_NNA" horiz-adv-x="619" 
d="M451 231h4q-8 55 -9 132q-2 96 -45.5 159t-127.5 63q-66 0 -102 -37.5t-36 -97.5q0 -45 21.5 -74.5t58.5 -41.5q28 5 54 5q122 0 182 -108zM520 -54h-74v73q0 115 -43.5 184t-130.5 69q-65 0 -101 -37.5t-36 -96.5q0 -56 33 -87t85 -31q44 0 77 24l24 -64
q-40 -28 -102 -28q-86 0 -138 52.5t-52 133.5q0 108 76 162q-76 49 -76 151q0 88 55.5 144.5t151.5 56.5q123 0 183 -108h4q-9 43 -9 152v45h73v-99h119v-64h-119v-632z" />
    <glyph glyph-name="bnH_NNA" horiz-adv-x="512" 
d="M520 61l-43 -54l-47 23v-307h-71v37q0 104 -38 166.5t-115 62.5q-48 0 -75.5 -27t-27.5 -74q0 -42 27 -66t70 -24q39 0 67 14l18 -61q-38 -18 -86 -18q-74 0 -120.5 42t-46.5 113q0 72 44.5 119t123.5 47q62 0 104 -28t61 -65h4q-6 29 -9 102q-118 56 -169.5 72.5
t-109.5 24.5v65h62q112 0 166 37t54 101q0 47 -31 75t-83 28q-45 0 -73 -23.5t-28 -62.5q0 -46 39 -68l-52 -39q-59 37 -59 109q0 65 48.5 107.5t124.5 42.5q82 0 133.5 -48t51.5 -124q0 -79 -50.5 -124t-135.5 -55v-4q61 -16 137 -52zM532 578h-552v64h552v-64z" />
    <glyph glyph-name="bnSS_NNA" horiz-adv-x="792" 
d="M501 35l-51 -49l-394 243v70l148 126l-153 133v20h-71v64h481v-62q46 59 128 59q64 0 102.5 -38t38.5 -97q0 -42 -20 -71.5t-53 -42.5v-4q36 -12 60 -42.5t24 -76.5q0 -61 -39 -102t-108 -41q-86 0 -133 65v-130zM130 578v-3l260 -224v227h-260zM462 388q0 -88 34 -143
t96 -55q38 0 58.5 23t20.5 57q0 37 -23.5 59t-68.5 22h-24v67h20q40 0 62 23t22 62q0 31 -19.5 50.5t-56.5 19.5q-50 0 -85.5 -48.5t-35.5 -136.5zM393 100h4q-5 84 -7 172l-130 111l-135 -116z" />
    <glyph glyph-name="bnK_SS_NNA" horiz-adv-x="872" 
d="M548 120q-7 84 -7 200v28h-73q-68 0 -110 41.5t-42 115.5v73h-197q44 -60 44 -130q67 -9 116 -61t49 -130v-18q71 -5 133.5 -43t86.5 -76zM467 415h74v163h-153v-74q0 -89 79 -89zM892 578h-279v-163h42q81 0 128 -40.5t47 -109.5q0 -110 -97 -159l-46 54q73 31 73 105
q0 42 -28 62.5t-75 20.5h-44v-628h-71v51q0 115 -39 181.5t-121 66.5q-55 0 -86 -30t-31 -83q0 -46 28 -73t78 -27t90 44l25 -62q-48 -48 -116 -48q-79 0 -128 45.5t-49 121.5q0 77 48 127t135 50q120 0 172 -99h4l-3 23q-24 64 -88 112t-143 55q-12 -40 -34 -58.5
t-45 -18.5q-26 0 -41 14.5t-15 39.5q0 27 20.5 49.5t55.5 32.5v21q0 52 -29 86t-74 44q-10 -38 -32.5 -57.5t-46.5 -19.5q-25 0 -40 15t-15 40q0 28 20 50t55 32q-1 78 -60 133h-57v64h912v-64z" />
    <glyph glyph-name="bnK_TA" horiz-adv-x="918" 
d="M423 -70q-74 0 -137.5 35.5t-110.5 99.5t-81 145.5t-56 180.5l66 31q43 -200 125 -311.5t195 -111.5q58 0 90 31t32 77q0 35 -21 62.5t-56 40.5q-27 -17 -64 -34l-49 52q75 33 113.5 70.5t38.5 87.5q0 32 -21 52.5t-58 20.5q-44 0 -74.5 -28t-44.5 -66l-61 37
q18 55 66.5 89t112.5 34q52 0 88.5 -23t52.5 -62q51 70 139 70q74 0 121.5 -44.5t47.5 -118.5q0 -79 -45 -121.5t-111 -42.5q-49 0 -86 18l17 63q31 -13 64 -13q38 0 63 25.5t25 69.5t-26 70t-71 26q-16 0 -30 -3.5t-27 -13t-21 -16t-20 -24.5t-16.5 -25.5l-18 -31.5
l-17.5 -31q-13 -23 -35 -45q43 -21 70.5 -58.5t27.5 -88.5q0 -77 -53 -126t-144 -49zM938 578h-958v64h958v-64z" />
    <glyph glyph-name="bnT_TA" horiz-adv-x="681" 
d="M578 385q0 -74 -56 -132q43 -21 71.5 -58.5t28.5 -89.5q0 -77 -53 -126t-143 -49q-75 0 -139 35.5t-111 99.5t-80.5 145.5t-55.5 180.5l65 31q43 -200 125.5 -311.5t195.5 -111.5q57 0 89 31t32 77q0 35 -21.5 62.5t-56.5 41.5q-30 -19 -65 -35l-49 52q75 33 113.5 70.5
t38.5 87.5q0 32 -21 52.5t-58 20.5q-44 0 -74.5 -28t-44.5 -66l-61 37q18 54 66.5 88.5t111.5 34.5q70 0 111 -40t41 -100zM701 578h-721v64h721v-64z" />
    <glyph glyph-name="bnN_TA" horiz-adv-x="637" 
d="M657 578h-130q28 -34 28 -89q0 -66 -43 -105q67 -52 67 -163q0 -106 -63 -171t-166 -65q-105 0 -180.5 69t-118.5 178l59 43q33 -99 95 -161.5t144 -62.5q75 0 117.5 47.5t42.5 123.5q0 56 -24 91.5t-73 35.5q-32 0 -52.5 -20t-20.5 -55q0 -51 42 -75l-49 -41
q-64 38 -64 119q0 65 45 104q-12 8 -37 29t-43.5 30.5t-41.5 9.5q-26 0 -42.5 -16t-16.5 -42q0 -34 25 -63l-61 -27q-35 38 -35 92q0 55 33.5 89t92.5 34q39 0 71 -15.5t51 -33.5t45.5 -33.5t54.5 -15.5q38 0 56 23t18 55q0 35 -20 58t-60 23h-423v64h677v-64z" />
    <glyph glyph-name="bnP_TA" horiz-adv-x="711" 
d="M124 506q56 -3 102 -35t65 -95l160 111q-58 94 -167 94q-56 0 -97 -23.5t-63 -51.5zM437 -104q-103 0 -182 68t-121 178l61 43q38 -105 100 -163t141 -58q75 0 118 45.5t43 120.5q0 55 -25 90t-73 35q-32 0 -52.5 -20t-20.5 -55q0 -50 42 -75l-49 -41q-64 39 -64 119
q0 59 36.5 97.5t100.5 41.5v4q0 52 -14 99l-308 -216l-37 56l102 71q-27 97 -121 110q-15 3 -43 3l-42 58q36 57 100.5 99t151.5 42q84 0 139 -38t83 -91l4 1q-5 13 -10.5 68.5t-5.5 110.5v42h74v-99h142v-64h-142v-268q50 -20 76.5 -68t26.5 -113q0 -106 -63.5 -169.5
t-167.5 -63.5z" />
    <glyph glyph-name="bnM_TA" horiz-adv-x="630" 
d="M410 419q38 0 56 23t18 55q0 35 -19.5 58t-60.5 23h-218q15 -29 21 -62q33 -3 62.5 -19t47 -33t42 -31t51.5 -14zM650 578h-122q28 -34 28 -89q0 -69 -46 -108q63 -53 63 -160q0 -106 -63.5 -171t-166.5 -65q-105 0 -181.5 69.5t-118.5 180.5l60 43q33 -100 95 -163.5
t144 -63.5q74 0 117 47.5t43 123.5q0 56 -24 91.5t-73 35.5q-32 0 -52.5 -20t-20.5 -56q0 -49 41 -75l-48 -40q-64 41 -64 119q0 68 48 107q-10 7 -27.5 22t-28 22.5t-27.5 14.5t-34 7q-26 0 -42.5 -16t-16.5 -42q0 -34 25 -63l-61 -27q-35 38 -35 92q0 87 74 115
q-9 39 -34 69h-122v64h670v-64z" />
    <glyph glyph-name="bnL_TA" horiz-adv-x="777" 
d="M507 -89q-78 0 -144.5 43t-111.5 115l51 48q81 -141 205 -141q75 0 117.5 48t42.5 124q0 56 -24 91.5t-73 35.5q-33 0 -53.5 -20t-20.5 -56q0 -49 43 -74l-49 -41q-64 38 -64 119q0 51 28 87t79 46v54q-6 22 -29 41t-56 19q-36 0 -58 -26t-22 -72v-36h-70v36
q0 45 -24 69.5t-64 24.5q-38 0 -63.5 -29t-25.5 -79q0 -61 33 -93.5t85 -32.5q35 0 63 14l16 -66q-33 -16 -79 -16q-82 0 -136 54t-54 140q0 79 46 128t112 49q95 0 124 -71h4q25 74 105 74q59 0 89 -38h4v98h-553v64h817v-64h-192v-241q64 -11 98 -63.5t34 -127.5
q0 -105 -63 -170t-167 -65z" />
    <glyph glyph-name="bnSH_TA" horiz-adv-x="735" 
d="M466 -138q-119 0 -202 86.5t-122 222.5l61 45q35 -134 103 -210t160 -76q76 0 119 46t43 122q0 55 -25 90.5t-73 35.5q-32 0 -53 -21t-21 -55q0 -50 42 -75l-50 -43q-30 17 -47.5 50t-17.5 72q0 52 29 89t81 47v148q0 67 -32.5 102t-89.5 35q-47 0 -77.5 -29t-30.5 -82
q0 -54 30 -82.5t82 -28.5q31 0 48 7v-66q-23 -7 -49 -7q-101 0 -149 75q-41 -77 -145 -77q-24 0 -56 8v69q20 -10 55 -10q55 0 83.5 30t28.5 81q0 59 -30.5 88t-86.5 29h-94v64h94q110 0 153 -76q44 75 140 75q51 0 86 -20t48 -41h4q-11 33 -11 125v36h72v-99h189v-64h-189
v-291q63 -12 98 -64.5t35 -125.5q0 -107 -63.5 -171t-169.5 -64z" />
    <glyph glyph-name="bnS_TA" horiz-adv-x="657" 
d="M591 520q0 -92 -59 -134q59 -53 59 -157q0 -105 -63 -170t-167 -65q-108 0 -184.5 71.5t-118.5 185.5l59 43q33 -103 96.5 -169t147.5 -66q74 0 117 48t43 124q0 55 -24 91t-74 36q-32 0 -52.5 -20t-20.5 -56q0 -49 42 -74l-48 -41q-30 18 -47.5 49.5t-17.5 69.5
q0 74 56 113q-30 26 -45 67q-35 -105 -129 -105q-41 0 -76 21.5t-58 56.5l46 45q44 -58 88 -58q78 0 90 152h-271v64h697v-64h-92q6 -29 6 -58zM328 578q2 -65 31 -109t82 -44q80 0 80 98q0 25 -7 55h-186z" />
    <glyph glyph-name="bnT_THA" horiz-adv-x="801" 
d="M747 -9l-50 -57l-590 193v88q370 3 370 215q0 79 -46 125q-32 -75 -57 -119h-72q0 147 -93 147q-43 0 -65.5 -29.5t-22.5 -75.5q0 -48 24 -77t71 -29q33 0 55 13l16 -61q-32 -17 -79 -17q-73 0 -116 45.5t-43 125.5q0 77 41.5 125.5t116.5 48.5q56 0 93 -32.5t49 -81.5
q28 56 48 104h46q110 -79 110 -212q0 -233 -307 -270v-4l384 -126h4q-6 86 -6 202v509h73v-99h120v-64h-120v-571z" />
    <glyph glyph-name="bnN_THA" horiz-adv-x="595" 
d="M615 578h-101q29 -33 29 -89q0 -80 -60 -118q51 -49 51 -126q0 -82 -50.5 -128t-140.5 -56v-4q36 -10 133 -68l79 -49l-51 -49q-162 101 -211.5 125.5t-109.5 32.5v63h65q213 0 213 134q0 47 -30 76t-80 29q-43 0 -69.5 -23.5t-26.5 -62.5q0 -47 42 -70l-53 -40
q-63 38 -63 114q0 45 24 80.5t66 53.5q-44 37 -67 43q-12 4 -25 4q-26 0 -42.5 -16t-16.5 -42q0 -34 25 -63l-61 -27q-35 38 -35 92q0 55 33.5 89t92.5 34q39 0 71 -15.5t51 -33.5t45.5 -33.5t54.5 -15.5q38 0 56 23.5t18 54.5q0 35 -20 58t-60 23h-411v64h635v-64z" />
    <glyph glyph-name="bnM_THA" horiz-adv-x="595" 
d="M395 419q38 0 56 23t18 55q0 35 -19.5 58t-60.5 23h-216q15 -28 21 -62q33 -4 61.5 -20t46 -33t42 -30.5t51.5 -13.5zM615 578h-102q28 -34 28 -89q0 -80 -59 -117q52 -49 52 -127q0 -82 -50.5 -128t-140.5 -56v-4q36 -10 133 -68l79 -49l-51 -49q-162 101 -211.5 125.5
t-109.5 32.5v63h65q213 0 213 134q0 47 -30 76t-80 29q-43 0 -69.5 -23.5t-26.5 -62.5q0 -47 42 -70l-53 -40q-63 38 -63 114q0 45 24 80.5t65 53.5q-44 36 -66 43q-13 4 -27 4q-26 0 -42.5 -16t-16.5 -42q0 -34 25 -63l-61 -27q-35 38 -35 92q0 42 20 72t56 43
q-11 41 -34 69h-109v64h635v-64z" />
    <glyph glyph-name="bnS_THA" horiz-adv-x="657" 
d="M578 520q0 -89 -55 -132q67 -48 67 -136q0 -84 -52.5 -130t-143.5 -56v-4q47 -14 138 -69l70 -43l-52 -51q-158 98 -204.5 121t-106.5 31v65h64q214 0 214 136q0 47 -30 75t-80 28q-43 0 -69.5 -23.5t-26.5 -62.5q0 -44 42 -70l-55 -40q-60 37 -60 114q0 88 80 130
q-26 23 -41 63q-35 -105 -129 -105q-41 0 -76 21.5t-58 56.5l46 45q44 -58 88 -58q78 0 90 152h-258v64h697v-64h-105q6 -29 6 -58zM315 578q2 -65 31 -109t82 -44q80 0 80 98q0 25 -7 55h-186z" />
    <glyph glyph-name="bnG_DA" horiz-adv-x="887" 
d="M336 372q0 -109 -120 -190l-54 49q100 65 100 143q0 35 -25 54t-65 19q-48 0 -95 -20l-53 53q24 72 86 117.5t145 45.5q121 0 186 -104h4q-12 48 -12 98v5h474v-64h-403v-298q41 53 113 114.5t133 86.5l67 -37q-35 -108 -35 -240v-204h-73v206q0 108 26 192
q-124 -81 -230 -229l-75 33v174q0 83 -46 141.5t-127 58.5q-53 0 -93 -25t-60 -61q37 16 84 16q64 0 106 -36t42 -98z" />
    <glyph glyph-name="bnD_DA" horiz-adv-x="817" 
d="M718 -88h-73v191q0 119 24 190q-132 -86 -234 -227l-75 41v102q0 132 29 215q-120 -79 -228 -227l-74 40v341h-107v64h857v-64h-677v-270q42 53 114 114.5t132 86.5l68 -37q-39 -122 -39 -253v-45q40 52 114.5 115t136.5 89l67 -38q-35 -108 -35 -240v-188z" />
    <glyph glyph-name="bnN_DA" horiz-adv-x="819" 
d="M839 578h-403v-298q41 53 113 114.5t133 86.5l67 -37q-35 -108 -35 -240v-204h-73v206q0 108 26 192q-124 -81 -230 -229l-75 33q-11 51 -28 94t-54.5 80.5t-86.5 37.5q-41 0 -62 -20t-21 -52q0 -33 25 -63l-60 -26q-35 37 -35 91q0 60 40 98.5t109 38.5q62 0 108 -33
t71 -88h4q-10 70 -10 195v23h-382v64h859v-64z" />
    <glyph glyph-name="bnB_DA" horiz-adv-x="774" 
d="M667 0h-72v209q0 102 24 185q-115 -76 -229 -233l-333 163v74q41 36 111.5 79t146.5 69v32h-335v64h814v-64h-405v-305q41 54 113 116.5t132 87.5l68 -37q-35 -104 -35 -234v-206zM315 273v202q-111 -44 -189 -108z" />
    <glyph glyph-name="bnM_DA" horiz-adv-x="810" 
d="M380 419q38 0 56 23t18 55q0 35 -19.5 58t-60.5 23h-213q15 -28 21 -63q32 -4 60 -20t45 -32.5t42 -30t51 -13.5zM830 578h-332q28 -34 28 -89q0 -49 -26.5 -87t-79.5 -49v-102q46 51 118.5 106.5t128.5 77.5l67 -37q-35 -108 -35 -234v-178h-72v181q0 100 24 183
q-62 -41 -113 -88t-118 -119l-74 32v179q-43 9 -95 52.5t-88 43.5q-27 0 -43.5 -16t-16.5 -42q0 -34 25 -63l-60 -27q-35 37 -35 92q0 43 20 73.5t58 42.5q-11 41 -34 68h-97v64h850v-64z" />
    <glyph glyph-name="bnL_DA" horiz-adv-x="1010" 
d="M902 0h-72v213q0 102 24 185q-120 -79 -230 -229l-74 33v162q-7 23 -30 41.5t-56 18.5q-37 0 -59.5 -26t-22.5 -72v-38h-72v37q0 47 -24 71.5t-64 24.5q-38 0 -64 -29.5t-26 -81.5q0 -61 34.5 -95t89.5 -34q41 0 73 18l15 -66q-41 -19 -88 -19q-87 0 -143 55t-56 142
q0 81 47 129.5t114 48.5q96 0 127 -72h4q23 76 107 76q56 0 90 -37h4v122h-570v64h1050v-64h-406v-298q40 53 112 114.5t133 86.5l68 -37q-35 -104 -35 -234v-210z" />
    <glyph glyph-name="bnG_DHA" horiz-adv-x="780" 
d="M435 -44h4q-7 98 -7 178v33q-110 -51 -197 -106zM338 370q0 -108 -116 -188l-57 48q99 65 99 141q0 36 -25 54.5t-66 18.5q-49 0 -94 -20l-53 56q23 72 85.5 117.5t145.5 45.5q121 0 186 -104h4q-15 50 -15 157v45h71v-99h297v-64h-297v-302q105 44 156 56l60 -55
q-25 -53 -25 -231v-87h-71v87q0 139 22 207q-76 -26 -142 -55v-277l45 -22l-52 -51l-335 174v76q110 72 270 146v132q0 83 -45.5 141.5t-126.5 58.5q-54 0 -94 -25t-59 -61q37 16 84 16q65 0 106.5 -36.5t41.5 -99.5z" />
    <glyph glyph-name="bnN_DHA" horiz-adv-x="732" 
d="M385 55h4q-7 98 -7 178v33q-108 -50 -197 -105zM752 578h-299v-203q106 44 157 56l60 -54q-26 -53 -26 -232v-87h-71v87q0 139 22 207q-74 -25 -142 -54v-278l45 -23l-52 -50l-335 175v75q108 71 239 132q-58 103 -147 103q-41 0 -62 -20t-21 -51q0 -34 25 -64l-60 -26
q-35 37 -35 91q0 60 40 98.5t109 38.5q126 0 187 -117h4q-9 54 -9 194v2h-401v64h772v-64z" />
    <glyph glyph-name="bnD_DHA" horiz-adv-x="713" 
d="M365 -5h4q-7 98 -7 178v33q-108 -50 -197 -105zM733 578h-577v-232q51 50 121 100.5t129 74.5l62 -35q-24 -77 -32 -170q99 42 154 55l60 -54q-26 -53 -26 -232v-91h-71v92q0 138 22 206q-74 -25 -142 -54v-278l45 -22l-51 -51l-336 175v75q117 78 272 148q4 85 24 155
q-130 -86 -230 -193l-73 32v299h-104v64h753v-64z" />
    <glyph glyph-name="bnB_DHA" horiz-adv-x="703" 
d="M723 578h-297v-302q109 47 156 58l60 -54q-25 -54 -25 -232v-87h-71v87q0 136 20 206q-63 -22 -140 -56v-293l45 -21l-51 -50l-364 172v75q83 56 221 126l-221 104v73q126 100 299 162v32h-375v64h743v-64zM358 -65h4q-7 99 -7 196v35q-116 -54 -226 -121zM128 351
l224 -108q1 0 4.5 1.5t5.5 2.5q-7 95 -7 189v37q-134 -54 -227 -122z" />
    <glyph glyph-name="bnL_DHA" horiz-adv-x="894" 
d="M546 30h4q-7 99 -7 179v36q-105 -49 -200 -107zM914 578h-300v-225q100 42 156 57l60 -55q-25 -53 -25 -232v-86h-71v87q0 136 20 206q-63 -22 -140 -54v-281l45 -22l-53 -52l-334 174v80q110 73 271 147v58q-7 23 -29.5 41.5t-57.5 18.5q-37 0 -60 -26t-23 -72v-38h-70
v37q0 46 -24 70.5t-61 24.5q-42 0 -68 -29.5t-26 -81.5q0 -97 88 -121l-26 -64q-64 18 -100 67t-36 118q0 81 46.5 130t117.5 49q93 0 123 -69h4q11 32 40.5 52.5t69.5 20.5q56 0 88 -37h4v107h-563v64h934v-64z" />
    <glyph glyph-name="bnK_NA" horiz-adv-x="696" 
d="M362 281h4q-7 98 -7 194q-108 -21 -200 -102zM716 578h-286v-31q104 -4 162.5 -52.5t58.5 -119.5q0 -109 -99 -162l-46 54q75 35 75 109q0 45 -41.5 73.5t-109.5 31.5v-539h-69q-19 84 -64.5 140.5t-110.5 56.5q-39 0 -60 -20t-21 -51q0 -34 24 -61l-61 -26
q-33 36 -33 91q0 59 40 97t107 38q122 0 184 -123h4q-7 22 -10 122l-272 123v75q117 117 271 139v35h-379v64h736v-64z" />
    <glyph glyph-name="bnG_NA" horiz-adv-x="603" 
d="M338 374q0 -49 -24.5 -93.5t-62.5 -74.5l-62 43q33 24 54.5 57.5t21.5 69.5q0 69 -91 69q-48 0 -95 -21l-53 56q24 73 85.5 118t145.5 45q121 0 186 -104h4q-15 50 -15 157v45h71v-99h120v-64h-120v-653h-69q-19 85 -64 141t-111 56q-39 0 -60 -20t-21 -51q0 -30 24 -61
l-61 -25q-33 36 -33 90q0 59 40 97t107 38q61 0 108 -33t76 -90l4 1q-10 29 -11 144v164q0 83 -46 141.5t-127 58.5q-54 0 -93.5 -25t-60.5 -61q37 16 84 16q67 0 108 -35t41 -97z" />
    <glyph glyph-name="bnGH_NA" horiz-adv-x="599" 
d="M500 -139h-70q-18 82 -64 132.5t-114 50.5q-39 0 -60 -20t-21 -52t24 -61l-61 -25q-33 36 -33 90q0 59 40 97t108 38q63 0 110.5 -30.5t75.5 -84.5l4 1q-9 44 -11 134l-364 97v75l48 29q19 11 84 44v4q-66 4 -101.5 36t-35.5 87q0 42 23 75h-102v64h639v-64h-119v-717z
M431 201l4 1q-7 95 -7 201v175h-262q-34 -29 -34 -73q0 -38 26 -56.5t65 -18.5q57 0 109 31l31 -60l-209 -126z" />
    <glyph glyph-name="bnC_NA" horiz-adv-x="510" 
d="M530 578h-367q15 -31 80 -57l67 -24q68 -24 98 -57t30 -91q0 -40 -18 -76v-416h-70q-18 81 -64 131t-113 50q-38 0 -58.5 -19.5t-20.5 -50.5t24 -62l-61 -26q-33 38 -33 91q0 58 39 96.5t107 38.5q127 0 185 -114h4q-11 66 -11 164v36q-56 -37 -125 -37
q-64 0 -100.5 34.5t-36.5 93.5v295h-106v64h550v-64zM158 285q0 -63 66 -63q53 0 97.5 37.5t44.5 89.5q0 31 -16 48.5t-65 34.5l-49 17q-54 19 -78 50h-4q0 -7 2 -52.5t2 -99.5v-62z" />
    <glyph glyph-name="bnD_NA" horiz-adv-x="517" 
d="M537 578h-380v-238q43 49 112 104.5t128 79.5l65 -37q-32 -100 -32 -224v-326h-69q-19 84 -64.5 140.5t-111.5 56.5q-39 0 -59.5 -19.5t-20.5 -50.5t24 -62l-60 -26q-34 37 -34 91q0 58 39 96.5t107 38.5q123 0 185 -123h4q-12 72 -12 164v22q0 94 25 179
q-122 -81 -225 -205l-73 31v308h-105v64h557v-64z" />
    <glyph glyph-name="bnDH_NA" horiz-adv-x="578" 
d="M479 -138h-70q-18 80 -65 131t-115 51q-39 0 -59.5 -20t-20.5 -51q0 -34 24 -61l-61 -26q-34 37 -34 90q0 58 39.5 97t106.5 39q63 0 112 -30.5t78 -86.5h4q-9 44 -11 130l-335 127v76l36 20q22 12 45 22.5t35 15.5l12 4v4q-65 4 -103.5 36.5t-38.5 88.5q0 58 38 94.5
t105 36.5q68 0 108 -34l-27 -56q-34 25 -77 25q-34 0 -54 -18.5t-20 -49.5q0 -36 30.5 -53t72.5 -17q71 0 173 64v131h191v-64h-119v-716zM412 196h4q-9 99 -9 190v45l-252 -136z" />
    <glyph glyph-name="bnT_NA" horiz-adv-x="629" 
d="M581 346q0 -116 -79 -179v-351h-70q-19 83 -66.5 140t-113.5 57q-38 0 -59 -19.5t-21 -50.5t24 -62l-60 -25q-34 36 -34 90q0 58 39 96.5t107 38.5q62 0 110.5 -33t78.5 -92h4q-11 66 -11 164v10q-31 -10 -72 -10q-88 0 -156.5 51t-108.5 129t-60 179l65 32
q23 -142 90 -234t170 -92q72 0 112.5 45t40.5 117q0 58 -23.5 90t-68.5 32q-32 0 -52 -18.5t-20 -51.5q0 -46 40 -68l-51 -42q-28 16 -44 46t-16 67q0 56 39 94.5t102 38.5q79 0 121.5 -53t42.5 -136zM649 578h-669v64h669v-64z" />
    <glyph glyph-name="bnN_NA" horiz-adv-x="559" 
d="M579 578h-120v-609h-67q-13 83 -62.5 150.5t-122.5 67.5q-40 0 -60.5 -20t-20.5 -52q0 -33 25 -63l-61 -26q-35 38 -35 91q0 60 40.5 98.5t109.5 38.5q62 0 110.5 -33.5t77.5 -90.5h4q-6 28 -8 112q-19 78 -66.5 136t-115.5 58q-39 0 -60 -20t-21 -51q0 -33 25 -63
l-61 -26q-35 39 -35 91q0 60 40 98t109 38q62 0 110.5 -33.5t78.5 -90.5h4q-10 70 -10 198v1h-407v64h599v-64z" />
    <glyph glyph-name="bnP_NA" horiz-adv-x="638" 
d="M109 506q52 -3 96.5 -31t65.5 -84l153 105q-54 85 -155 85q-56 0 -98 -24t-62 -51zM538 -38h-68q-20 84 -67.5 142.5t-116.5 58.5q-39 0 -60 -20.5t-21 -51.5q0 -33 25 -63l-61 -26q-34 37 -34 91q0 60 40 98.5t109 38.5q62 0 110.5 -33.5t77.5 -90.5h4q-10 70 -10 191
v29q0 58 -15 108l-299 -208l-37 57l100 69q-27 77 -110 91q-17 5 -46 5l-42 61q36 56 100.5 97.5t148.5 41.5q149 0 212 -120l4 1q-4 11 -10 68t-6 110v34h72v-99h120v-64h-120v-616z" />
    <glyph glyph-name="bnM_NA" horiz-adv-x="589" 
d="M395 419q38 0 56 23t18 55q0 35 -19.5 58t-60.5 23h-216q15 -28 21 -62q33 -4 61.5 -20t46 -33t42 -30.5t51.5 -13.5zM608 578h-95q28 -34 28 -89q0 -82 -61 -119v-370h-68q-15 88 -63 152t-118 64q-39 0 -59.5 -20t-20.5 -51q0 -33 24 -62l-61 -25q-34 37 -34 90
q0 58 40 96.5t107 38.5q125 0 189 -124h4q-11 39 -11 191h-10q-40 0 -73.5 15.5t-52 34.5t-44 34.5t-52.5 15.5q-26 0 -42.5 -16t-16.5 -42q0 -34 25 -63l-61 -27q-35 38 -35 92q0 42 20 72t56 43q-11 41 -34 69h-109v64h628v-64z" />
    <glyph glyph-name="bnSH_NA" horiz-adv-x="614" 
d="M206 368q-22 -40 -52.5 -57t-81.5 -17q-20 0 -38 3v66q16 -4 37 -4q102 0 102 109q0 50 -28 80t-83 30h-82v64h86q98 0 142 -73q43 73 129 73q75 0 114 -53h4q-11 33 -11 123v29h71v-99h119v-64h-119v-588h-71q-15 79 -60.5 137.5t-117.5 58.5q-40 0 -60.5 -19.5
t-20.5 -50.5t24 -62l-61 -25q-33 36 -33 90q0 58 39.5 96.5t106.5 38.5q126 0 189 -119h4q-11 77 -11 163v142q0 137 -101 137q-44 0 -72 -29t-28 -81q0 -51 30 -79.5t80 -28.5q8 0 28 2v-63q-12 -3 -29 -3q-99 0 -145 73z" />
    <glyph glyph-name="bnS_NA" horiz-adv-x="631" 
d="M584 520q0 -105 -75 -144v-376h-67q-10 56 -31 103t-60.5 81t-89.5 34q-40 0 -60.5 -19.5t-20.5 -51.5q0 -34 24 -61l-61 -26q-34 37 -34 91q0 58 40 96.5t107 38.5q126 0 188 -119h4q-10 60 -10 175v18h-3q-56 0 -95.5 30t-56.5 76q-35 -105 -129 -105q-82 0 -135 78
l47 45q44 -58 88 -58q76 0 90 152h-264v64h671v-64h-73q6 -29 6 -58zM321 578q2 -65 30.5 -109t81.5 -44q80 0 80 98q0 29 -6 55h-186z" />
    <glyph glyph-name="bnH_NA" horiz-adv-x="758" 
d="M458 7l-52 -50q-186 112 -236.5 138t-107.5 34v64h61q111 0 162.5 41t51.5 106q0 49 -30 78.5t-80 29.5q-43 0 -70 -23.5t-27 -62.5q0 -48 43 -70l-53 -40q-63 37 -63 114q0 64 47.5 107t121.5 43q59 0 103.5 -27t64.5 -73q52 92 152 92q74 0 121 -43.5t47 -119.5
q0 -78 -44.5 -120t-111.5 -42q-54 0 -90 18l18 62q35 -13 67 -13q38 0 63.5 25t25.5 70q0 44 -25.5 69.5t-71.5 25.5q-93 0 -144 -160q-17 -57 -66.5 -92.5t-123.5 -43.5v-4q49 -13 140 -69zM778 578h-798v64h798v-64z" />
    <glyph glyph-name="bnK_SS_NA" horiz-adv-x="872" 
d="M548 120q-7 84 -7 200v28h-73q-68 0 -110 41.5t-42 115.5v73h-197q44 -60 44 -130q67 -9 116 -61t49 -130v-18q71 -5 133.5 -43t86.5 -76zM467 415h74v163h-153v-74q0 -89 79 -89zM892 578h-279v-163h42q81 0 128 -40.5t47 -109.5q0 -110 -97 -159l-46 54q73 31 73 105
q0 42 -28 62.5t-75 20.5h-44v-566h-66q-41 83 -100.5 137t-134.5 54q-42 0 -63.5 -20t-21.5 -51q0 -49 55 -75l-52 -40q-33 15 -53 46t-20 72q0 58 40 96.5t108 38.5q67 0 131.5 -36.5t112.5 -109.5h4q-9 63 -9 125q-27 60 -89 104.5t-137 51.5q-12 -40 -34 -58.5t-45 -18.5
q-26 0 -41 14.5t-15 39.5q0 27 20.5 49.5t55.5 32.5v21q0 52 -29 86t-74 44q-10 -38 -32.5 -57.5t-46.5 -19.5q-25 0 -40 15t-15 40q0 28 20 50t55 32q-1 78 -60 133h-57v64h912v-64z" />
    <glyph glyph-name="bnM_PA" horiz-adv-x="1071" 
d="M530 506q62 -4 110 -41t63 -111l168 109q-57 118 -180 118q-56 0 -98 -23.5t-63 -51.5zM971 0h-72v326q0 40 -7 72l-314 -205l-37 56l105 68q-22 113 -124 128q-12 -42 -46 -68.5t-89 -26.5q-40 0 -73.5 15.5t-52.5 34.5t-44.5 34.5t-51.5 15.5t-42.5 -16t-16.5 -42
q0 -34 25 -63l-61 -27q-35 38 -35 92q0 42 20 72t56 43q-11 41 -34 69h-97v64h456q44 -22 69 -62q79 68 184 68q83 0 138 -38.5t83 -90.5l3 1q-4 13 -9.5 69.5t-5.5 109.5v42h73v-99h120v-64h-120v-578zM383 419q38 0 56 23.5t18 54.5q0 35 -20 58t-60 23h-216
q15 -28 21 -62q32 -4 61 -20t46 -33t42 -30.5t52 -13.5z" />
    <glyph glyph-name="bnL_PA" horiz-adv-x="709" 
d="M171 101q124 -10 165 -121l157 109q-57 88 -162 88q-55 0 -96 -24t-64 -52zM729 578h-120v-781h-71v125q0 59 -16 106l-301 -212l-42 55l101 70q-31 88 -122 99q-5 2 -38 3l-42 58q35 57 99.5 100t150.5 42q84 -1 138 -38.5t82 -89.5h4q-4 11 -10 69t-6 113v89
q-7 23 -28 41.5t-54 18.5q-37 0 -58 -26.5t-21 -71.5v-27h-69v26q0 43 -24 69t-63 26q-38 0 -60.5 -23t-22.5 -66q0 -50 43 -83l-54 -43q-28 21 -46 56t-18 70q0 70 43.5 113.5t110.5 44.5q92 0 124 -72h4q10 32 36 53.5t67 21.5q53 0 86 -36h4v100h-556v64h749v-64z" />
    <glyph glyph-name="bnSS_PA" horiz-adv-x="975" 
d="M432 505q63 -3 114.5 -39.5t66.5 -109.5l163 106q-26 56 -72.5 87.5t-108.5 31.5q-56 0 -99 -24t-64 -52zM876 0h-73v326q0 39 -7 70l-312 -205l-37 56l109 71q-24 107 -124 123q-4 -81 -59 -131t-137 -50q-86 0 -141 53.5t-55 139.5q0 74 45 125h-105v64h256
q103 0 158 -72q85 78 199 78q83 0 138 -38.5t83 -90.5l4 1q-5 13 -10.5 68.5t-5.5 110.5v42h74v-99h119v-64h-119v-578zM236 327q42 0 76 24l-189 159q-12 -26 -12 -57q0 -55 35.5 -90.5t89.5 -35.5zM236 578q-44 0 -75 -23l188 -159q12 26 12 57q0 55 -35.5 90t-89.5 35z
" />
    <glyph glyph-name="bnS_PA" horiz-adv-x="1126" 
d="M1026 0h-72v326q0 40 -7 72l-315 -205l-37 56l106 68q-24 117 -130 129q-35 -86 -136 -86q-56 0 -96 30.5t-57 75.5q-33 -105 -129 -105q-81 0 -134 78l47 45q43 -58 87 -58q77 0 91 152h-264v64h580q9 -24 16 -51q74 57 168 57q83 0 137.5 -38.5t82.5 -90.5l4 1
q-4 13 -9.5 69.5t-5.5 109.5v42h73v-99h120v-64h-120v-578zM321 578q2 -65 30.5 -109t81.5 -44q80 0 80 98q0 31 -7 55h-185zM585 506q61 -4 109.5 -40.5t63.5 -110.5l168 108q-57 118 -181 118q-55 0 -97 -24t-63 -51z" />
    <glyph glyph-name="bnP_PA" horiz-adv-x="669" 
d="M129 170q53 -4 97.5 -32.5t66.5 -85.5l157 110q-59 83 -160 83q-56 0 -98 -23.5t-63 -51.5zM129 506q55 -4 100 -34t66 -89l157 112q-57 86 -162 86q-56 0 -98 -23.5t-63 -51.5zM569 -123h-71v113q0 61 -18 112l-306 -215l-37 57l100 69q-31 85 -122 96q-16 2 -36 2
l-42 59q29 47 80 85l122 87q-31 93 -126 104q-6 2 -34 3l-42 59q35 57 99.5 98.5t150.5 41.5q83 0 138 -38.5t83 -90.5l4 1q-4 13 -9.5 69.5t-5.5 109.5v42h72v-99h120v-64h-120v-701zM508 182h4q-3 12 -8.5 59.5t-5.5 94.5q-2 55 -16 98l-84 -59q-43 -30 -103 -67
q81 -2 134 -39t79 -87z" />
    <glyph glyph-name="bnM_PHA" horiz-adv-x="969" 
d="M382 419q38 0 56 23t18 55q0 35 -19.5 58t-60.5 23h-216q15 -29 21 -62q33 -3 62 -19t46 -33t41.5 -31t51.5 -14zM989 578h-485q24 -39 24 -89q0 -62 -37 -100l45 -50v-63l-143 -110l212 -102h4q-9 108 -9 197v218q55 25 117 25q87 0 145.5 -48.5t58.5 -131.5
q0 -65 -33.5 -110t-84.5 -68l-44 57q90 35 90 121q0 56 -35 83.5t-88 27.5q-25 0 -54 -8v-395l42 -20l-52 -54l-345 167v73l148 114l-37 42q-26 -4 -41 -4q-40 0 -73 15.5t-51.5 34.5t-44 34.5t-51.5 15.5t-42.5 -16t-16.5 -42q0 -34 25 -63l-61 -27q-35 38 -35 92
q0 41 19 71t54 43q-9 42 -33 70h-97v64h1009v-64z" />
    <glyph glyph-name="bnS_PHA" horiz-adv-x="1020" 
d="M327 578q2 -65 30.5 -109t81.5 -44q80 0 80 98q0 29 -6 55h-186zM590 520q0 -85 -51 -127l48 -54v-63l-143 -110l212 -102h4q-9 108 -9 197v218q55 25 117 25q87 0 145.5 -48.5t58.5 -131.5q0 -65 -33.5 -110t-84.5 -68l-45 57q91 35 91 121q0 56 -35 83.5t-88 27.5
q-25 0 -54 -8v-395l41 -20l-51 -54l-345 167v73l148 114l-45 50q-18 -2 -30 -2q-57 0 -96 29.5t-57 76.5q-33 -105 -128 -105q-82 0 -135 78l47 45q43 -58 88 -58q76 0 90 152h-270v64h1060v-64h-456q6 -29 6 -58z" />
    <glyph glyph-name="bnL_PHA" horiz-adv-x="1111" 
d="M1131 578h-528v-154l73 -87v-60l-145 -104l215 -108h4q-9 130 -9 198v216q55 25 119 25q87 0 145 -48.5t58 -131.5q0 -65 -33.5 -110t-84.5 -68l-44 57q42 16 66.5 47.5t24.5 73.5q0 56 -35.5 83.5t-88.5 27.5q-24 0 -54 -8v-397l41 -20l-51 -53l-347 175v72l147 107
l-74 86q-15 18 -24 27t-26 18.5t-36 9.5q-33 0 -53 -26t-20 -71v-38h-69v37q0 46 -24 70t-64 24q-37 0 -63 -29t-26 -79q0 -62 33 -96t87 -34q38 0 68 17l14 -64q-39 -19 -82 -19q-84 0 -138.5 55t-54.5 141q0 79 46.5 127.5t112.5 48.5q53 0 82.5 -23t40.5 -53h5
q8 33 33 56t70 23q55 0 84 -37h4v96h-550v64h1151v-64z" />
    <glyph glyph-name="bnSS_PHA" horiz-adv-x="924" 
d="M236 579q-42 0 -73 -22l187 -157q11 25 11 53q0 55 -35.5 90.5t-89.5 35.5zM236 328q46 0 78 26l-189 159q-14 -28 -14 -60q0 -54 35.5 -89.5t89.5 -35.5zM665 -26l-52 -53l-342 165v72l140 103l-49 42q-52 -41 -126 -41q-85 0 -140.5 53.5t-55.5 137.5q0 74 45 125h-105
v64h964v-64h-557q45 -51 45 -125q0 -55 -25 -97l77 -66v-63l-136 -100l208 -101h4q-9 108 -9 214v226q56 24 118 24q87 0 145 -48t58 -132q0 -64 -33.5 -109t-84.5 -68l-44 56q90 37 90 122q0 55 -35 83t-88 28q-25 0 -54 -8v-420z" />
    <glyph glyph-name="bnD_BHA" horiz-adv-x="644" 
d="M664 578h-399v-211q44 42 111.5 87.5t128.5 71.5l65 -38q-31 -96 -31 -224v-13q72 -72 72 -184q0 -100 -65.5 -164t-178.5 -64q-139 0 -225.5 104t-120.5 267l63 26q28 -143 99 -236t184 -93q82 0 128.5 45t46.5 116q0 55 -26 103h-4q-56 -123 -153 -123q-58 0 -93 34
t-35 85q0 40 20 70l71 -13q-21 -21 -21 -55q0 -26 15 -41.5t44 -15.5q31 0 56 25.5t52 87.5v39q0 104 23 181q-113 -63 -225 -174l-73 31v276h-213v64h684v-64z" />
    <glyph glyph-name="bnM_BHA" horiz-adv-x="640" 
d="M418 419q38 0 55.5 23t17.5 55q0 35 -19.5 58t-60.5 23h-218q15 -29 21 -62q33 -3 62.5 -19t47 -33t42.5 -31t52 -14zM660 578h-125q28 -34 28 -89q0 -80 -57 -117q79 -81 79 -196q0 -100 -66 -164t-179 -64q-118 0 -198 76t-122 202l60 36q36 -112 100.5 -179t160.5 -67
q82 0 128.5 45.5t46.5 115.5q0 56 -27 103h-4q-55 -123 -152 -123q-58 0 -93.5 34t-35.5 85q0 38 21 70l70 -12q-20 -22 -20 -56q0 -26 15 -41t44 -15q33 0 59 29t55 101q-16 -2 -26 -2q-40 0 -73.5 15.5t-52.5 34.5t-44.5 34.5t-51.5 15.5q-27 0 -43.5 -16t-16.5 -42
q0 -32 25 -63l-60 -27q-35 37 -35 92q0 88 73 115q-9 41 -33 69h-130v64h680v-64z" />
    <glyph glyph-name="bnB_BHA" horiz-adv-x="614" 
d="M441 252h4q-7 99 -7 202v33q-123 -48 -227 -130zM634 578h-125v-349q73 -75 73 -184q0 -101 -64 -165t-177 -64q-71 0 -130 30t-99 81.5t-66.5 110.5t-40.5 126l63 37q11 -60 31.5 -112.5t52.5 -100t80.5 -75.5t108.5 -28q82 0 127 44.5t45 115.5q0 58 -27 103h-4
q-55 -123 -152 -123q-58 0 -92.5 34t-34.5 86q0 40 19 70l70 -13q-21 -23 -21 -55q0 -26 15.5 -41.5t44.5 -15.5q28 0 51 20.5t46 70.5l-283 130v83q120 103 293 165v19h-458v64h654v-64z" />
    <glyph glyph-name="bnL_BHA" horiz-adv-x="720" 
d="M740 578h-130v-347q72 -74 72 -184q0 -100 -65.5 -164.5t-178.5 -64.5q-114 0 -196 71.5t-125 188.5l58 39q38 -104 104 -167t160 -63q82 0 128 45t46 115q0 56 -25 102h-4q-18 -62 -54.5 -92t-84.5 -30q-57 0 -91 34.5t-34 85.5q0 43 23 75l70 -13q-23 -23 -23 -60
q0 -26 14.5 -41.5t42.5 -15.5q35 0 56 30.5t37 88.5v182q-7 23 -30 41.5t-57 18.5q-37 0 -59.5 -26t-22.5 -72v-38h-68v38q0 46 -24 70t-64 24q-38 0 -64 -29t-26 -79q0 -59 32.5 -91.5t83.5 -32.5q16 0 36 5l8 -66q-23 -5 -46 -5q-79 0 -132.5 52.5t-53.5 136.5
q0 80 46.5 128t112.5 48q95 0 123 -72h5q9 33 35 54.5t71 21.5q58 0 90 -37h4v95h-560v64h760v-64z" />
    <glyph glyph-name="bnK_MA" horiz-adv-x="904" 
d="M924 578h-154v-657h-68q-46 74 -136.5 121t-178.5 59q-9 -41 -31.5 -60.5t-51.5 -19.5q-27 0 -44 15.5t-17 41.5q0 31 21 54.5t57 30.5v17l-271 140v75q52 51 123.5 90.5t148.5 52.5v40h-342v64h944v-64zM324 255h4q-6 85 -6 196v19q-105 -24 -203 -106zM703 29
q-5 120 -5 169v380h-306v-34q104 -1 159.5 -52.5t55.5 -121.5q0 -103 -93 -154l-45 53q68 40 68 101q0 49 -38 78t-107 29v-313q84 -8 167 -44t144 -91z" />
    <glyph glyph-name="bnG_MA" horiz-adv-x="855" 
d="M688 46q-5 120 -5 169v363h-189v-413q62 -10 113.5 -44t80.5 -75zM754 -77h-68q-26 67 -79.5 115.5t-118.5 62.5q-10 -40 -32.5 -59.5t-50.5 -19.5q-27 0 -43.5 15.5t-16.5 42.5q0 30 21 54t56 31v211q0 83 -46 141.5t-127 58.5q-52 0 -92 -24.5t-59 -59.5q35 16 82 16
q63 0 104 -36.5t41 -98.5q0 -112 -117 -191l-54 49q100 65 100 143q0 35 -25 54t-65 19q-48 0 -95 -20l-53 53q24 72 86 117.5t145 45.5q128 0 186 -101h4q-2 6 -5 25.5t-6.5 56.5t-3.5 74v43h72v-99h380v-64h-120v-655z" />
    <glyph glyph-name="bnNG_MA" horiz-adv-x="882" 
d="M363 463q38 0 58 18t20 47q0 27 -21 45.5t-55 18.5q-72 0 -72 -90v-26q34 -13 70 -13zM782 -203h-68q-50 81 -127 126t-158 55q-9 -41 -31.5 -60.5t-51.5 -19.5q-27 0 -44 15.5t-17 41.5q0 30 20.5 54t56.5 31v34h-12q-142 0 -226 95t-90 231l67 17q6 -128 75.5 -202
t174.5 -74q80 0 128.5 37t48.5 94q0 36 -15 59q-79 -64 -160 -64q-62 0 -96 33t-34 87v55q-83 50 -123 136h-120v64h168q19 -72 78 -125q2 65 38.5 100.5t97.5 35.5q33 0 61 -11h480v-64h-121v-781zM716 -90q-6 96 -6 180v488h-215q12 -24 12 -52q0 -53 -38 -88t-105 -35
q-38 0 -71 9v-20q0 -58 61 -58q68 0 175 90q69 -58 69 -150q0 -71 -43.5 -121.5t-120.5 -69.5v-42q77 -8 152.5 -41.5t129.5 -89.5z" />
    <glyph glyph-name="bnTT_MA" horiz-adv-x="756" 
d="M590 30q-5 122 -5 170v378h-423v-270q0 -38 23.5 -58t64.5 -20q64 0 104.5 39.5t40.5 98.5q0 37 -17.5 59.5t-52.5 22.5q-39 0 -63 -33l-40 58q38 44 103 44t103.5 -40.5t38.5 -110.5q0 -98 -71 -156v-62q63 -10 114.5 -44.5t79.5 -75.5zM464 687q0 -13 -4 -45h315v-64
h-119v-671h-67q-26 67 -80.5 116t-118.5 63q-9 -40 -31.5 -59.5t-50.5 -19.5q-27 0 -44 15.5t-17 41.5q0 31 21 55t56 31v23q-36 -11 -74 -11q-71 0 -115.5 37.5t-44.5 105.5v273h-110v64h407q5 23 5 40q0 42 -27 61t-86 19h-124q-87 0 -124.5 36.5t-37.5 92.5q0 19 2 29
l70 15q-3 -17 -3 -33q0 -75 98 -75h131q77 0 125 -36.5t48 -103.5z" />
    <glyph glyph-name="bnDD_MA" horiz-adv-x="895" 
d="M729 -26q-5 120 -5 170v434h-401v-115q0 -55 50 -55q61 0 158 87q30 -20 53.5 -61t23.5 -97q0 -102 -74 -165v-74q61 -10 113.5 -46t81.5 -78zM915 578h-119v-726h-68q-27 68 -81.5 117t-118.5 65q-9 -39 -31 -58.5t-50 -19.5q-27 0 -44 15.5t-17 41.5q0 31 21 55t57 31
v32q-48 -18 -109 -18q-96 0 -168.5 51t-109.5 131t-42 178l72 16q5 -142 72.5 -224t176.5 -82q80 0 130 43t50 110q0 40 -17 65q-79 -62 -150 -62q-58 0 -88.5 33.5t-30.5 86.5v119h-270v64h935v-64z" />
    <glyph glyph-name="bnNN_MA" horiz-adv-x="824" 
d="M679 76q-6 98 -6 170v332h-188v-382q62 -10 113.5 -44.5t80.5 -75.5zM315 287q-36 -22 -91 -22q-82 0 -136 50t-54 131q0 89 53.5 147t148.5 58q123 0 183 -108h4q-10 63 -10 152v46h72v-99h188v1h72v-1h98v-64h-98v-625h-68q-26 67 -80 116t-118 63q-9 -40 -31.5 -59.5
t-50.5 -19.5q-27 0 -44.5 15.5t-17.5 41.5q0 31 21 55t57 31v135q0 115 -43.5 183.5t-129.5 68.5q-65 0 -98.5 -38.5t-33.5 -99.5q0 -55 34 -84.5t86 -29.5q37 0 69 16z" />
    <glyph glyph-name="bnT_MA" horiz-adv-x="864" 
d="M885 578h-121v-746h-68q-44 74 -122.5 121.5t-161.5 59.5q-18 -81 -83 -81q-27 0 -44 15.5t-17 42.5q0 30 20.5 53.5t55.5 31.5v47h-1q-67 0 -122.5 29t-93 80.5t-63 114t-40.5 138.5l64 29q66 -329 254 -329q73 0 115 45t42 120q0 58 -23 90t-69 32q-32 0 -51.5 -18.5
t-19.5 -50.5q0 -50 39 -72l-50 -41q-59 38 -59 115q0 57 38.5 94.5t101.5 37.5q79 0 120.5 -53t41.5 -135q0 -84 -40.5 -140.5t-110.5 -75.5v-57q76 -9 155 -46.5t126 -89.5q-6 98 -6 169v470h-712v64h905v-64z" />
    <glyph glyph-name="bnD_MA" horiz-adv-x="774" 
d="M608 21q-5 120 -5 169v388h-445v-240q140 135 235 174l62 -35q-35 -108 -35 -238v-89h-1v-9q61 -10 110 -44t79 -76zM794 578h-120v-680h-68q-26 68 -78 116.5t-115 62.5q-9 -40 -31.5 -59.5t-50.5 -19.5q-27 0 -44 15.5t-17 41.5q0 30 21 54t56 32v9v90q0 101 25 188
q-58 -38 -102.5 -78t-110.5 -110l-73 32v306h-106v64h814v-64z" />
    <glyph glyph-name="bnDH_MA" horiz-adv-x="820" 
d="M654 33q-6 96 -6 169v376h-188v-426q62 -10 113.5 -44t80.5 -75zM840 578h-120v-669h-68q-26 68 -80 116.5t-118 62.5q-9 -39 -31.5 -58.5t-50.5 -19.5q-27 0 -44 15.5t-17 41.5q0 45 39 70l-297 114v77l36 20q23 12 46 22.5t35 15.5l11 4v4q-67 4 -104.5 36.5
t-37.5 88.5q0 58 38 94.5t105 36.5q69 0 108 -34l-27 -56q-34 25 -77 25q-34 0 -54 -18.5t-20 -49.5q0 -36 30.5 -53t72.5 -17q73 0 173 66v129h452v-64zM394 195l3 1q-9 94 -9 190v45l-253 -136z" />
    <glyph glyph-name="bnN_MA" horiz-adv-x="805" 
d="M639 109q-6 144 -6 169v300h-188v-350q62 -10 113.5 -44t80.5 -75zM847 578h-142v-592h-68q-26 68 -80 117t-118 62q-9 -40 -31.5 -59.5t-50.5 -19.5q-27 0 -44 15.5t-17 41.5q0 30 20.5 54t56.5 31v78l-60 51q-74 56 -116 56q-40 0 -61.5 -21t-21.5 -51q0 -36 26 -66
l-59 -29q-38 40 -38 97t41.5 96t108.5 39q76 0 159 -67l21 -18v185h-394v64h868v-64z" />
    <glyph glyph-name="bnP_MA" horiz-adv-x="901" 
d="M735 77q-6 96 -6 169v332h-188v-381q62 -10 113.5 -44.5t80.5 -75.5zM112 506q56 -3 102.5 -35.5t65.5 -96.5l157 104q-52 103 -165 103q-56 0 -98 -24t-62 -51zM801 -46h-68q-26 68 -80 116.5t-118 62.5q-9 -40 -31.5 -59.5t-50.5 -19.5q-27 0 -44.5 15.5t-17.5 41.5
q0 31 21 55t58 31v129q0 49 -10 88l-305 -204l-37 56l105 70q-26 96 -120 107q-15 5 -42 5l-41 61q36 56 100 97.5t149 41.5q149 0 212 -120l4 1q-5 10 -10.5 66.5t-5.5 111.5v34h72v-99h380v-64h-120v-624z" />
    <glyph glyph-name="bnM_MA" horiz-adv-x="797" 
d="M385 419q38 0 55.5 23t17.5 55q0 35 -19.5 58t-60.5 23h-215q18 -27 24 -62q32 -4 60.5 -20t45 -33t41 -30.5t51.5 -13.5zM634 93q-6 96 -6 169v316h-126q28 -34 28 -89q0 -45 -22.5 -81.5t-67.5 -50.5v-144q62 -10 113.5 -44.5t80.5 -75.5zM819 578h-119v-608h-68
q-26 68 -80 117t-118 62q-9 -40 -31.5 -59.5t-50.5 -19.5q-27 0 -44.5 15.5t-17.5 41.5q0 31 21 54.5t57 31.5v138q-33 4 -62 20t-46.5 33.5t-41 31.5t-48.5 14q-26 0 -42.5 -16t-16.5 -42q0 -34 25 -63l-61 -27q-35 38 -35 92q0 42 20 72t56 43q-11 41 -34 69h-102v64h839
v-64z" />
    <glyph glyph-name="bnL_MA" horiz-adv-x="973" 
d="M807 21q-5 120 -5 169v388h-189v-437q63 -10 114.5 -45t79.5 -75zM994 578h-121v-680h-67q-27 68 -81 116.5t-118 62.5q-9 -40 -31.5 -59.5t-50.5 -19.5q-27 0 -44 15.5t-17 41.5q0 30 21 54t56 32v230q-8 22 -30.5 39.5t-55.5 17.5q-37 0 -59.5 -26t-22.5 -71v-39h-69
v38q0 46 -24 70t-63 24q-38 0 -64 -29.5t-26 -79.5q0 -61 35.5 -94.5t89.5 -33.5q36 0 67 16l14 -64q-41 -18 -83 -18q-82 0 -138.5 54t-56.5 140q0 79 46 127.5t112 48.5q96 0 124 -72h4q10 33 36.5 54.5t69.5 21.5q58 0 90 -37h4v120h-561v64h1014v-64z" />
    <glyph glyph-name="bnSH_MA" horiz-adv-x="881" 
d="M715 77q-6 96 -6 169v332h-188v-381q62 -10 113.5 -44.5t80.5 -75.5zM781 -46h-68q-26 67 -80 116t-118 63q-9 -40 -31.5 -59.5t-50.5 -19.5q-27 0 -44.5 15.5t-17.5 41.5q0 31 21 55t57 31v243q0 137 -105 137q-44 0 -73.5 -29t-29.5 -81q0 -51 30 -79.5t80 -28.5
q9 0 29 2v-63q-14 -3 -30 -3q-99 0 -145 73q-22 -39 -54 -56.5t-83 -17.5q-20 0 -38 3v66q16 -4 37 -4q54 0 79.5 30t25.5 79q0 50 -29.5 80t-84.5 30h-78v64h82q103 0 145 -73q44 73 133 73q77 0 116 -53h4q-10 60 -10 123v29h71v-99h358v-64h-98v-624z" />
    <glyph glyph-name="bnS_MA" horiz-adv-x="866" 
d="M584 520q0 -108 -78 -145v-147q62 -10 113.5 -44t80.5 -75q-6 144 -6 169v300h-116q6 -29 6 -58zM766 -14h-68q-26 68 -79.5 116t-118.5 62q-9 -39 -31.5 -58.5t-50.5 -19.5q-27 0 -44 15.5t-17 41.5q0 30 20.5 54t56.5 31v132q-56 0 -95 30t-56 76q-35 -105 -129 -105
q-82 0 -135 78l47 45q44 -58 88 -58q76 0 90 152h-264v64h902v-64h-116v-592zM321 578q2 -65 30.5 -109t81.5 -44q80 0 80 98q0 29 -6 55h-186z" />
    <glyph glyph-name="bnSS_MA" horiz-adv-x="747" 
d="M250 578q-41 0 -70 -20l176 -177q20 31 20 72q0 54 -36 89.5t-90 35.5zM767 578h-120v-624h-68q-26 67 -80 116t-119 63q-9 -40 -31.5 -59.5t-50.5 -19.5q-27 0 -44 15.5t-17 41.5q0 30 21 54t56 32v71q-30 -9 -64 -9q-85 0 -140.5 54t-55.5 140q0 74 45 125h-119v64h787
v-64zM250 326q37 0 66 17l-174 176q-17 -29 -17 -66q0 -55 35.5 -91t89.5 -36zM581 77q-6 96 -6 169v332h-173q45 -51 45 -125q0 -90 -61 -145v-111q62 -10 114 -44.5t81 -75.5z" />
    <glyph glyph-name="bnH_MA" horiz-adv-x="840" 
d="M860 578h-304v-137q100 19 169 61l53 -57q-19 -55 -19 -215v-156h-71v156q0 115 9 185q-53 -26 -141 -42v-376h-67q-38 164 -172 178q-12 -40 -34 -58.5t-45 -18.5q-26 0 -40.5 14.5t-14.5 39.5q0 27 20 50t55 32q1 7 1 21q0 52 -29 86t-75 44q-10 -38 -32.5 -57.5
t-46.5 -19.5q-25 0 -40 15t-15 40q0 27 20 50t55 32q-1 79 -60 133h-56v64h880v-64zM490 143q-7 105 -7 177v43q-52 -5 -97 -5q-48 0 -88 4q29 -47 29 -105v-18q62 -5 105 -35.5t58 -60.5zM384 424q47 0 99 5v149h-364q43 -61 43 -129q20 -3 37 -9q94 -16 185 -16z" />
    <glyph glyph-name="bnK_SS_MA" horiz-adv-x="1090" 
d="M551 120q-7 84 -7 200v28h-73q-67 0 -109 41.5t-42 115.5v73h-197q43 -61 43 -129q68 -9 116.5 -61.5t48.5 -130.5v-18q71 -5 133.5 -43t86.5 -76zM470 415h74v163h-153v-74q0 -89 79 -89zM924 -104q-6 96 -6 184v498h-301v-163h41q81 0 128.5 -41t47.5 -109
q0 -109 -97 -159l-47 54q73 31 73 105q0 42 -28 62.5t-75 20.5h-43v-311q92 -8 174 -49.5t133 -91.5zM1141 578h-151v-784h-68q-50 74 -134 123t-176 58q-8 -41 -29.5 -60.5t-50.5 -19.5q-26 0 -43 16.5t-17 42.5q0 27 17 48.5t46 30.5q-27 56 -85 95.5t-129 46.5
q-12 -40 -34 -58.5t-45 -18.5q-26 0 -41 14.5t-15 39.5q0 27 20.5 49.5t55.5 32.5v21q0 52 -29 86t-74 44q-10 -38 -32.5 -57.5t-46.5 -19.5q-25 0 -40 15t-15 40q0 28 20 50t55 32q-1 79 -60 133h-60v64h1161v-64z" />
    <glyph glyph-name="bnK_LA" horiz-adv-x="811" 
d="M477 275h4q-6 85 -6 196v1q-125 -23 -218 -102zM831 578h-286v-36q105 -3 163.5 -51t58.5 -120q0 -114 -99 -164l-46 55q75 36 75 109q0 49 -40 76.5t-112 29.5v-658h-70v240q-8 23 -27.5 41t-50.5 18q-33 0 -53 -25.5t-20 -70.5v-36h-68v35q0 45 -22 69.5t-58 24.5
q-37 0 -59 -28.5t-22 -78.5q0 -60 30.5 -90t81.5 -30q28 0 56 10l15 -64q-34 -13 -70 -13q-82 0 -133 51.5t-51 135.5q0 79 42.5 126t106.5 47q84 0 115 -66h4q26 69 98 69q51 0 81 -35h4v55l-290 125v73q55 52 131 89t159 47v40h-495v64h851v-64z" />
    <glyph glyph-name="bnG_LA" horiz-adv-x="661" 
d="M561 -162h-72v238q-7 22 -27 41t-51 19q-33 0 -53 -26t-20 -71v-36h-68v35q0 46 -22 70t-58 24t-58.5 -28.5t-22.5 -78.5q0 -60 31 -90t82 -30q27 0 55 10l15 -64q-34 -13 -70 -13q-82 0 -133 51.5t-51 135.5q0 79 42.5 126t106.5 47q82 0 116 -65h4q27 68 97 68
q51 0 81 -35h4v209q0 82 -51.5 141.5t-137.5 59.5q-57 0 -98 -29t-62 -67q36 18 89 18q61 0 102 -36.5t41 -99.5q0 -91 -89 -168l-55 49q70 57 70 121q0 37 -24 56.5t-63 19.5q-48 0 -98 -24l-53 53q23 72 89 123t149 51q58 0 104 -22t66 -43t32 -44h4q-15 45 -15 154v53h72
v-99h120v-64h-120v-740z" />
    <glyph glyph-name="bnT_LA" horiz-adv-x="654" 
d="M605 321q0 -90 -55 -151v-470h-72v238q-7 22 -27.5 40.5t-50.5 18.5q-33 0 -53 -25.5t-20 -70.5v-36h-68v35q0 45 -22 69t-59 24q-36 0 -58.5 -28t-22.5 -79q0 -59 31 -89t82 -30q32 0 56 10l15 -64q-32 -13 -70 -13q-82 0 -133 51t-51 135q0 79 42 126t107 47
q85 0 115 -65h4q26 68 98 68q52 0 81 -34h4v91q-45 -21 -104 -21q-72 0 -131 29t-100 81t-68 117.5t-43 146.5l65 31q14 -74 36 -133t54.5 -107.5t80 -75t106.5 -26.5q74 0 117.5 45.5t43.5 116.5q0 60 -26.5 93.5t-72.5 33.5q-35 0 -56 -20t-21 -56q0 -46 42 -70l-50 -40
q-63 37 -63 114q0 60 39.5 98.5t106.5 38.5q77 0 124 -54.5t47 -139.5zM674 578h-694v64h694v-64z" />
    <glyph glyph-name="bnP_LA" horiz-adv-x="671" 
d="M132 506q57 -3 103.5 -35.5t64.5 -97.5l163 110q-59 98 -171 98q-55 0 -97 -24t-63 -51zM572 -85h-71v237q-7 22 -27 41t-49 19q-35 0 -55 -25.5t-20 -71.5v-34h-68v35q0 45 -22.5 69.5t-58.5 24.5t-58.5 -28.5t-22.5 -78.5q0 -59 31 -89.5t82 -30.5q28 0 56 10l15 -64
q-36 -13 -70 -13q-82 0 -133 51.5t-51 135.5q0 111 79 156l114 76q-28 103 -137 110q-10 3 -25 4l-42 58q35 57 99.5 99t150.5 42q84 0 139 -38t83 -91l4 1q-4 13 -9.5 69.5t-5.5 109.5v42h72v-99h119v-64h-119v-663zM318 210q11 28 36 47.5t62 19.5q50 0 81 -34h4v83
q0 50 -12 93l-132 -87l-103 -65q39 -14 60 -57h4z" />
    <glyph glyph-name="bnPH_LA" horiz-adv-x="821" 
d="M541 -241h-72v240q-8 23 -27.5 41t-49.5 18q-33 0 -53.5 -26t-20.5 -71v-35h-68v35q0 45 -22 69t-58 24q-37 0 -59 -28t-22 -79q0 -59 30.5 -89.5t82.5 -30.5q31 0 55 10l15 -64q-30 -13 -70 -13q-82 0 -133 51.5t-51 135.5q0 79 42 126t107 47q84 0 115 -65h4
q11 29 36 48.5t63 19.5q49 0 80 -34h4v54l-319 120v77l142 99l-131 119v20h-181v64h861v-64h-595v-4l121 -109v-58l-142 -98l247 -94h4q-8 96 -8 197v85q52 23 126 23q85 0 140 -43.5t55 -124.5q0 -64 -34 -107t-86 -64l-42 58q41 15 66 44t25 69q0 46 -32 73t-82 27
q-38 0 -63 -7v-686z" />
    <glyph glyph-name="bnB_LA" horiz-adv-x="642" 
d="M475 251l4 1q-8 114 -8 206v30q-124 -47 -233 -133zM662 578h-120v-784h-72v237q-7 23 -26.5 41.5t-50.5 18.5q-33 0 -53.5 -26t-20.5 -71v-35h-68v35q0 45 -22 69t-58 24t-58.5 -28t-22.5 -79q0 -59 31 -89.5t82 -30.5q28 0 55 11l15 -64q-34 -13 -70 -13q-82 0 -133 51
t-51 135q0 79 42 126t107 47q82 0 116 -65h4q11 28 36 48t62 20q47 0 81 -34h3v56l-295 131v86q121 104 296 165v18h-491v64h682v-64z" />
    <glyph glyph-name="bnBH_LA" horiz-adv-x="650" 
d="M551 -94h-72v238q-6 22 -26.5 40.5t-51.5 18.5q-33 0 -53 -25.5t-20 -70.5v-36h-68v35q0 45 -22 69.5t-58 24.5q-37 0 -59 -28.5t-22 -78.5q0 -60 31 -90t82 -30q27 0 55 10l15 -63q-34 -13 -70 -13q-82 0 -133 51t-51 135q0 79 42.5 126.5t106.5 47.5q83 0 116 -66h4
q11 29 35.5 49t61.5 20q51 0 81 -35h4v65q0 84 -31 127h-4q-57 -125 -159 -125q-58 0 -93.5 35.5t-35.5 87.5q0 42 21 71l73 -13q-22 -22 -22 -56q0 -27 15.5 -43.5t44.5 -16.5q34 0 63.5 32.5t61.5 111.5h57q81 -79 81 -211v-394zM670 578h-690v64h690v-64z" />
    <glyph glyph-name="bnM_LA" horiz-adv-x="666" 
d="M686 578h-123q29 -33 29 -89q0 -50 -26 -86v-478h-71v239q-7 22 -27.5 40.5t-50.5 18.5q-33 0 -53 -25.5t-20 -70.5v-36h-68v35q0 45 -22.5 69.5t-58.5 24.5t-58.5 -28.5t-22.5 -78.5q0 -60 31 -90.5t82 -30.5q29 0 57 10l14 -63q-36 -13 -70 -13q-82 0 -133 51.5
t-51 135.5q0 79 42.5 126t106.5 47q84 0 115 -66h4q26 69 98 69q51 0 81 -35h4v101q-22 -5 -45 -5q-40 0 -74.5 15.5t-55 34.5t-47.5 34.5t-53 15.5t-42.5 -16t-16.5 -42q0 -29 18 -56l-60 -26q-29 36 -29 84q0 44 21.5 75.5t61.5 42.5q-9 40 -33 66h-160v64h706v-64z
M446 419q38 0 56 23.5t18 54.5q0 35 -20 58t-60 23h-216q15 -28 21 -63q38 -6 72.5 -30.5l65 -45t63.5 -20.5z" />
    <glyph glyph-name="bnL_LA" horiz-adv-x="724" 
d="M353 192q9 33 35.5 54.5t70.5 21.5q58 0 90 -37h4v151q-7 23 -30 41.5t-57 18.5q-37 0 -59 -26t-22 -71v-36h-69v35q0 46 -24 70.5t-64 24.5q-37 0 -63.5 -29.5t-26.5 -79.5q0 -48 24 -78q31 13 63 13q95 0 123 -73h5zM744 578h-120v-683h-71v246q-7 23 -30 41.5
t-57 18.5q-37 0 -59 -26t-22 -71v-36h-69v35q0 46 -24 70t-64 24q-37 0 -63.5 -29t-26.5 -79q0 -59 34.5 -92t87.5 -33q36 0 64 12l14 -63q-37 -15 -77 -15q-83 0 -139 53t-56 137q0 74 41 123q-41 49 -41 119q0 79 46.5 127.5t112.5 48.5q95 0 123 -72h5q9 32 35.5 53.5
t70.5 21.5q59 0 90 -36h4v105h-573v64h764v-64z" />
    <glyph glyph-name="bnSH_LA" horiz-adv-x="686" 
d="M587 -137h-74v243q-7 23 -28 41.5t-52 18.5q-34 0 -55 -26t-21 -72v-38h-69v38q0 46 -22.5 70t-58.5 24q-37 0 -60 -28.5t-23 -79.5q0 -60 30.5 -90.5t81.5 -30.5q27 0 55 10l14 -63q-36 -13 -71 -13q-79 0 -131 51t-52 135q0 80 43.5 128t109.5 48q86 0 117 -67h4
q10 30 35.5 50.5t65.5 20.5q53 0 83 -35h4v239q0 137 -112 137q-48 0 -77.5 -27t-29.5 -83q0 -54 30 -82t82 -28q35 0 52 9v-67q-29 -8 -53 -8q-101 0 -149 75q-22 -40 -55.5 -58t-85.5 -18q-30 0 -56 7v69q19 -10 55 -10q109 0 109 111q0 114 -114 114h-129v64h129
q106 0 150 -76q44 75 140 75q84 0 122 -61h4q-11 33 -11 125v36h73v-99h119v-64h-119v-715z" />
    <glyph glyph-name="bnS_LA" horiz-adv-x="656" 
d="M611 520q0 -73 -41 -117v-451h-71v239q-7 22 -27.5 40.5t-50.5 18.5q-33 0 -53.5 -26t-20.5 -70v-36h-68v35q0 45 -22 69t-58 24t-58.5 -28t-22.5 -79q0 -59 31 -89.5t82 -30.5q27 0 55 10l16 -63q-32 -13 -70 -13q-82 0 -133.5 51t-51.5 135q0 79 42 126t107 47
q85 0 116 -65h4q26 68 98 68q47 0 81 -34h4v85q-16 -4 -39 -4q-57 0 -96.5 31t-56.5 77q-34 -107 -130 -107q-77 0 -133 76l47 45q43 -58 86 -58q74 0 89 152h-286v64h696v-64h-72q7 -27 7 -58zM345 578q2 -65 32 -108.5t82 -43.5q79 0 79 97q0 25 -7 55h-186z" />
    <glyph glyph-name="bnH_LA" horiz-adv-x="599" 
d="M598 87l-43 -55l-46 18v-335h-71v218q-5 21 -21.5 40t-44.5 19q-32 0 -48.5 -25.5t-16.5 -69.5v-28h-66v27q0 44 -18.5 69.5t-52.5 25.5t-54 -26.5t-20 -73.5q0 -57 29.5 -84t75.5 -27q23 0 47 8l15 -62q-32 -10 -65 -10q-75 0 -123 47t-48 128q0 75 39 119.5t101 44.5
q74 0 106 -66h4q27 66 88 66q40 0 70 -32h3v53q-115 43 -169.5 57t-105.5 18v73h42q115 0 169 40t54 105q0 45 -31 71.5t-80 26.5q-43 0 -70 -23.5t-27 -62.5q0 -44 39 -67l-53 -39q-56 36 -56 107q0 65 47 107.5t119 42.5q80 0 130.5 -45.5t50.5 -120.5q0 -78 -48.5 -124.5
t-131.5 -59.5v-4q58 -7 143 -39zM619 578h-639v64h639v-64z" />
    <glyph glyph-name="bnS_K_LA" horiz-adv-x="769" 
d="M630 520q0 -76 -42 -119q67 -18 102 -64.5t35 -100.5q0 -104 -93 -154l-45 53q68 40 68 101q0 50 -38 79.5t-106 29.5v-642h-70v220q-5 21 -22 40t-45 19q-32 0 -48.5 -25.5t-16.5 -70.5v-27h-67v27q0 44 -19 70t-53 26q-35 0 -55 -27.5t-20 -73.5q0 -57 30 -84.5
t76 -27.5q23 0 47 8l16 -63q-33 -10 -66 -10q-76 0 -124 47.5t-48 129.5q0 76 39 120.5t102 44.5q73 0 107 -66h4q28 66 89 66q43 0 70 -32h4v37l-272 136v76q91 89 213 129q-37 28 -53 74q-35 -104 -129 -104q-82 0 -135 78l47 45q44 -58 88 -58q76 0 90 151h-310v64h809
v-64h-165q6 -29 6 -58zM443 126h4q-6 85 -6 196v16q-106 -24 -203 -107zM367 578q2 -65 31 -109t82 -44q41 0 60 27t19 71q0 29 -6 55h-186z" />
    <glyph glyph-name="bnM_P_LA" horiz-adv-x="1074" 
d="M533 506q57 -3 103.5 -35.5t64.5 -97.5l162 109q-57 99 -170 99q-56 0 -97 -23.5t-63 -51.5zM974 -85h-73v237q-7 22 -27 41t-50 19q-33 0 -53.5 -26t-20.5 -71v-34h-68v35q0 45 -22 69.5t-58 24.5t-58.5 -28.5t-22.5 -78.5q0 -60 31 -90t82 -30q27 0 55 10l15 -63
q-34 -13 -69 -13q-82 0 -133.5 51t-51.5 135q0 56 22.5 97.5t61.5 60.5l110 74q-26 94 -119 108q-13 -42 -47 -67.5t-87 -25.5q-41 0 -74.5 15.5t-52 34.5t-44 34.5t-52.5 15.5q-26 0 -42.5 -15t-16.5 -41q0 -34 25 -64l-60 -26q-36 36 -36 92q0 41 20 71t56 42
q-9 41 -33 69h-101v64h462q46 -22 67 -59q77 65 181 65q84 0 139 -38t83 -91l4 1q-5 13 -10.5 68.5t-5.5 110.5v42h74v-99h120v-64h-120v-663zM719 210q26 67 97 67q48 0 82 -34h3v83q0 50 -12 93l-131 -87q-75 -49 -104 -65q41 -16 61 -57h4zM387 419q38 0 55.5 23t17.5 55
q0 34 -19.5 57.5t-60.5 23.5h-216q15 -28 21 -62q32 -4 61 -20t46.5 -33t42.5 -30.5t52 -13.5z" />
    <glyph glyph-name="bnS_P_LA" horiz-adv-x="1127" 
d="M1027 -91h-72v241q-7 23 -27 41.5t-51 18.5q-33 0 -53 -26t-20 -71v-39h-69v38q0 46 -21.5 70.5t-57.5 24.5t-58 -29t-22 -80q0 -59 29.5 -89.5t79.5 -30.5q21 0 50 9l13 -63q-30 -12 -66 -12q-78 0 -128 50.5t-50 135.5q0 108 71 154l122 84q-26 99 -126 111
q-34 -87 -136 -87q-56 0 -95.5 30t-56.5 76q-35 -105 -129 -105q-82 0 -135 78l47 45q44 -58 88 -58q76 0 90 152h-264v64h578q9 -22 17 -51q75 57 168 57q84 0 139 -38t83 -91l4 1q-5 14 -10.5 70t-5.5 109v42h74v-99h120v-64h-120v-669zM321 578q2 -65 30.5 -109t81.5 -44
q80 0 80 98q0 29 -6 55h-186zM586 506q56 -3 102.5 -35.5t65.5 -95.5l161 111q-59 95 -169 95q-55 0 -97 -24t-63 -51zM772 208q24 70 98 70q46 0 81 -35h4v83q0 52 -14 99l-134 -93q-47 -33 -102 -66q41 -15 63 -58h4z" />
    <glyph glyph-name="bnNG_K_SSA" horiz-adv-x="1428" 
d="M370 463q39 0 60.5 18.5t21.5 49.5q0 27 -19.5 44.5t-52.5 17.5q-75 0 -75 -88v-31q31 -11 65 -11zM613 271q0 -92 -67 -146.5t-184 -54.5q-143 0 -232.5 96t-97.5 235l66 15q9 -133 83 -205t181 -72q85 0 133 36t48 93q0 39 -16 62q-91 -64 -168 -64q-57 0 -89.5 33
t-32.5 87v54q-84 49 -125 138h-132v64h179q22 -78 81 -129q1 68 37.5 104t99.5 36q57 0 99.5 -35.5t42.5 -87.5q0 -60 -42 -93t-108 -33q-32 0 -64 8v-22q0 -57 56 -57q77 0 182 88q24 -19 40 -44q5 23 24 41.5t50 26.5q-1 78 -60 133h-60v64h911v-64h-275v-163h42
q81 0 128 -40.5t47 -109.5q0 -110 -97 -159l-46 54q73 31 73 105q0 42 -28 62.5t-75 20.5h-44v-351h-67q-17 67 -81 118.5t-147 59.5q-12 -40 -34 -58.5t-45 -18.5q-26 0 -41 14.5t-15 39.5q0 27 20.5 49.5t55.5 32.5v21q0 52 -29 86t-74 44q-10 -38 -32.5 -57.5
t-46.5 -19.5q-16 0 -28 6q4 -26 4 -43zM1108 120q-7 84 -7 200v28h-73q-68 0 -110 41.5t-42 115.5v73h-197q44 -60 44 -130q67 -9 116 -61t49 -130v-18q71 -5 133.5 -43t86.5 -76zM1027 415h74v163h-153v-74q0 -89 79 -89z" />
    <glyph glyph-name="bnK_SA" horiz-adv-x="920" 
d="M758 104h4q-14 91 -14 202v272h-344v-44q104 -1 159.5 -54t55.5 -123q0 -104 -93 -156l-45 53q68 41 68 103q0 50 -38 80t-107 30v-324q156 20 202 20q103 0 152 -59zM940 578h-120v-595h-68q-5 113 -150 113q-47 0 -169.5 -16t-197.5 -16q-69 0 -124.5 29t-81.5 87
l56 37q17 -43 59 -65.5t100 -22.5q44 0 90 6v43l-272 133v74q52 51 123.5 90.5t148.5 52.5v50h-354v64h960v-64zM336 253h4q-6 85 -6 196v11q-105 -24 -203 -106z" />
    <glyph glyph-name="bnN_SA" horiz-adv-x="861" 
d="M761 0h-74v270q0 60 -56 60q-28 0 -54 -24.5t-66 -75.5q-79 -105 -160 -105q-80 0 -133 65l47 50q35 -48 88 -48q23 0 45 12l-101 104q-37 37 -66.5 53.5t-63.5 16.5q-29 0 -47 -16t-18 -43q0 -38 25 -66l-61 -28q-37 35 -37 95q0 56 37 90t97 36q52 0 91.5 -21.5
t90.5 -72.5l92 -93q5 22 5 39q0 53 -21 90.5t-73 94.5l-65 75v20h-303v64h901v-64h-120v-578zM503 341q1 -7 1 -23q58 83 123 83q37 0 63 -22q-3 59 -3 126v73h-324v-4l53 -63q41 -47 63 -85t24 -85z" />
    <glyph glyph-name="bnP_SA" horiz-adv-x="973" 
d="M873 0h-73v270q0 60 -57 60q-28 0 -54.5 -25t-64.5 -75q-81 -105 -161 -105q-77 0 -130 55l42 52q36 -40 90 -41h7l-86 131l-274 -168l-37 52l99 60q-37 89 -125 94q-16 2 -22 2l-40 55q81 114 210 114q38 0 71.5 -11.5t56.5 -26t46 -40t35 -42.5t29 -44l97 -146
q22 29 22 77q0 53 -21 91t-72 94l-65 75v20h-70v64h667v-64h-120v-578zM79 416q102 -13 148 -118l125 76q-69 94 -153 94q-71 0 -120 -52zM616 340q1 -6 1 -22q58 83 123 83q36 0 63 -22q-3 59 -3 126v73h-324v-4l53 -63q41 -47 63 -85t24 -86z" />
    <glyph glyph-name="bnK_RA" horiz-adv-x="903" 
d="M563 -46h-66q0 58 -42 86t-151 35q-146 10 -209 53.5t-63 127.5q0 47 26 96l69 -18q-24 -40 -24 -81q0 -53 43 -79t161 -34q67 -5 110 -17t57 -22t30 -28h4q-14 87 -14 198v115q0 73 -64 73q-63 0 -107.5 -38.5t-44.5 -92.5q0 -29 16.5 -45t46.5 -16q39 0 65 23l28 -58
q-36 -30 -97 -30q-60 0 -95 34.5t-35 89.5q0 81 65.5 140t161.5 59q55 0 88.5 -29t39.5 -75q48 57 135 57q73 0 121.5 -45.5t48.5 -117.5q0 -75 -44.5 -119.5t-110.5 -44.5q-55 0 -94 19l18 63q36 -14 70 -14q39 0 64.5 25.5t25.5 70.5q0 43 -27 69t-74 26q-62 0 -97 -44.5
t-35 -124.5v-287zM923 578h-943v64h943v-64z" />
    <glyph glyph-name="bnKH_RA" horiz-adv-x="654" 
d="M555 -50h-68q-5 48 -34 75.5t-83 27.5q-24 0 -76 -1t-68 -1q-89 0 -140 47.5t-54 124.5l71 17q0 -54 31 -88t97 -34q18 0 62.5 1t62.5 1q103 0 137 -56h4q-13 74 -13 105l-389 123v81q122 3 190 30t68 92q0 38 -26 60q-47 -104 -146 -104q-57 0 -90 31.5t-33 80.5
q0 48 21 80h71q-24 -38 -24 -78q0 -52 59 -52q37 0 63 28.5t50 100.5h37q87 -74 87 -150q0 -74 -51.5 -113.5t-152.5 -53.5v-4l268 -80h3q-6 91 -6 214v286h72v-99h107v-64h-107v-628z" />
    <glyph glyph-name="bnG_RA" horiz-adv-x="630" 
d="M365 370q0 -108 -116 -188l-57 48q99 65 99 141q0 36 -24.5 54.5t-65.5 18.5q-50 0 -95 -20l-53 56q24 72 86 117.5t145 45.5q121 0 186 -104h4q-15 50 -15 157v45h71v-99h120v-64h-120v-613h-67q-5 48 -34.5 75.5t-83.5 27.5q-24 0 -70.5 -1t-62.5 -1q-88 0 -138.5 47
t-54.5 124l71 18q0 -54 31.5 -88t97.5 -34q18 0 57 1t58 1q100 0 135 -57h4q-14 59 -14 114v184q0 83 -46 141.5t-127 58.5q-54 0 -94 -25t-59 -61q37 16 84 16q65 0 106.5 -36.5t41.5 -99.5z" />
    <glyph glyph-name="bnGH_RA" horiz-adv-x="623" 
d="M523 -112h-67q-5 48 -34.5 75.5t-83.5 27.5q-24 0 -59 -1t-51 -1q-88 0 -138.5 47t-54.5 124l71 18q0 -54 31.5 -88t97.5 -34q18 0 45.5 1t46.5 1q98 0 134 -56h4q-13 74 -13 113v16l-364 97v75l48 29q22 14 41 23.5t30 14.5t12 6v4q-66 4 -101.5 36t-35.5 87q0 42 23 75
h-125v64h663v-64h-120v-690zM454 201l4 1q-7 95 -7 201v175h-262q-34 -29 -34 -73q0 -38 26 -56.5t65 -18.5q57 0 109 31l31 -60l-209 -126z" />
    <glyph glyph-name="bnNG_RA" horiz-adv-x="668" 
d="M375 464q40 0 61.5 18.5t21.5 49.5q0 27 -20 45t-53 18q-74 0 -74 -89v-31q30 -11 64 -11zM615 276q0 -123 -113 -173v-279h-67q-10 103 -106 103q-24 0 -48.5 -1t-40.5 -1q-84 0 -132.5 44t-51.5 119l70 18q0 -53 29.5 -83.5t90.5 -30.5q13 0 33.5 1t38.5 1
q53 0 79.5 -14t44.5 -43h4q-1 3 -3.5 16t-5 24t-4.5 31.5t-2 42.5v31q-33 -5 -64 -5q-144 0 -232 93.5t-96 231.5l68 17q9 -133 82 -204.5t179 -71.5q84 0 130 36.5t46 94.5q0 40 -15 62q-87 -65 -166 -65q-55 0 -86 32t-31 86v52q-80 47 -123 137h-143v64h190
q21 -79 78 -129q1 68 37 104t97 36t101 -34t40 -88q0 -61 -41 -93t-107 -32q-32 0 -64 8v-22q0 -58 56 -58q71 0 179 93q29 -23 49 -62t20 -89z" />
    <glyph glyph-name="bnC_RA" horiz-adv-x="524" 
d="M194 287q0 -60 63 -60q52 0 97.5 38t45.5 92q0 29 -16 47t-63 35l-52 18q-53 18 -76 48h-4q5 -145 5 -150v-68zM544 578h-344q17 -30 75 -52l69 -25q67 -25 97.5 -57t30.5 -89q0 -44 -23 -84v-363h-67q-10 103 -105 103q-24 0 -49 -1t-41 -1q-84 0 -132 44t-52 119l70 18
q0 -52 30 -83t90 -31q13 0 33.5 1t38.5 1q53 0 79.5 -14t44.5 -43h4q-1 3 -3.5 16t-5 24t-4.5 31.5t-2 42.5v61q-56 -36 -121 -36q-62 0 -98 33.5t-36 89.5v295h-143v64h564v-64z" />
    <glyph glyph-name="bnCH_RA" horiz-adv-x="624" 
d="M177 371q0 -50 52 -50q38 0 63.5 26t25.5 61q0 26 -24 39t-61.5 24t-55.5 26v-126zM386 407q0 -60 -45 -105t-113 -45q-58 0 -89.5 31t-31.5 81v209h-127v64h664v-64h-475q7 -16 26 -26.5t57 -23t52 -18.5q31 12 71 12q79 0 132 -46.5t53 -123.5q0 -194 -273 -206v-4
q51 -15 137 -60l156 -82l-47 -54l-40 22v-177h-67q-5 48 -34 75.5t-82 27.5q-24 0 -57.5 -1t-49.5 -1q-86 0 -135 47t-53 124l70 18q0 -54 30.5 -88t94.5 -34q18 0 44.5 1t44.5 1q97 0 132 -57h4q-12 70 -13 102q-152 82 -207 104t-107 28v63h116q264 0 264 151
q0 51 -31.5 76.5t-82.5 27.5q12 -21 12 -49z" />
    <glyph glyph-name="bnJ_RA" horiz-adv-x="793" 
d="M542 251q0 -72 -50.5 -119.5t-139.5 -47.5q-130 0 -217 105t-92 255l70 20q3 -131 69.5 -220.5t167.5 -89.5q58 0 88.5 26.5t30.5 67.5q0 31 -16 52l-88 7q-120 12 -120 104q0 27 13 51.5t38 46.5t45.5 36t52.5 33h-414v64h833v-64h-322q11 -66 57.5 -113t141.5 -47h18
l33 -52q-48 -86 -48 -208v-312h-67q-9 103 -137 103q-23 0 -130 -1t-123 -1q-96 0 -152 47.5t-60 123.5l70 18q0 -52 38.5 -87t109.5 -35q18 0 118 1t116 1q113 0 155 -65h4q-13 74 -13 116v94q0 111 38 193q-90 6 -148.5 55t-76.5 120q-4 -3 -23 -14.5l-27 -16.5t-23 -17
t-22 -20.5t-13 -20t-6 -23.5q0 -22 16.5 -32.5t50.5 -12.5l105 -9q22 -19 35.5 -50t13.5 -62z" />
    <glyph glyph-name="bnJH_RA" horiz-adv-x="781" 
d="M681 260l-67 -35l-149 78v-323h-67q-3 45 -30.5 74t-79.5 29q-24 0 -48.5 -1t-40.5 -1q-86 0 -131.5 46.5t-49.5 124.5l71 18q0 -122 116 -122q18 0 36 1t36 1q52 0 79.5 -14.5t46.5 -42.5h4q-12 58 -13 92l-281 142v81q136 100 280 151v19h-413v64h485v-260l150 -78l4 2
q-9 67 -9 152v283h71v-99h120v-64h-120v-318zM396 261h5q-8 114 -8 203v23q-96 -38 -213 -117z" />
    <glyph glyph-name="bnNY_RA" horiz-adv-x="856" 
d="M520 144v-285h-67q-5 50 -29 76.5t-76 26.5q-23 0 -61 -1.5t-59 -1.5q-83 0 -128.5 46.5t-48.5 126.5l70 18q2 -124 113 -124q18 0 51.5 2t51.5 2q53 0 79.5 -14t43.5 -43h4q-1 3 -3.5 15.5l-4.5 23t-4 30.5t-2 42v4q0 40 -42.5 60.5t-139.5 32.5q-119 14 -176 55.5
t-57 114.5q0 59 33 108l63 -27q-25 -36 -25 -80t40.5 -67t124.5 -34q85 -11 125 -26.5t62 -41.5h4q-13 104 -13 196v126q0 73 -64 73q-60 0 -100 -42t-40 -98q0 -29 16.5 -45t45.5 -16q37 0 65 22l27 -55q-38 -30 -95 -30q-59 0 -94.5 34.5t-35.5 89.5q0 82 61 144t154 62
q48 0 77.5 -23t39.5 -58q14 29 51 55.5t89 26.5q59 0 96.5 -34.5t37.5 -88.5q0 -37 -18 -64t-49 -40v-4q32 -10 55 -37.5t23 -69.5q0 -57 -38.5 -94t-101.5 -37q-44 0 -83 23t-53 46q5 -22 5 -101zM518 415q0 -78 34 -125t94 -47q36 0 55.5 20t19.5 48q0 34 -22.5 52.5
t-63.5 18.5h-23v61h18q37 0 58.5 20.5t21.5 54.5q0 27 -18.5 44t-53.5 17q-46 0 -83 -42t-37 -122z" />
    <glyph glyph-name="bnTT_RA" horiz-adv-x="551" 
d="M480 687q0 -18 -5 -45h96v-64h-393v-270q0 -38 23 -58t64 -20q65 0 105.5 39.5t40.5 98.5q0 82 -71 82q-39 0 -62 -33l-41 58q38 44 103 44t104.5 -40.5t39.5 -110.5q0 -57 -26 -103v-343h-67q-2 45 -29.5 74.5t-79.5 29.5q-24 0 -49 -1t-41 -1q-85 0 -130.5 46.5
t-49.5 124.5l70 18q0 -122 117 -122q18 0 36 1t35 1q52 0 79.5 -15t47.5 -42h4q0 3 -3 16t-5 24t-4 31.5t-2 41.5v44q-53 -31 -122 -31q-71 0 -115 37.5t-44 105.5v273h-126v64h423q4 28 4 40q0 43 -26.5 61.5t-85.5 18.5h-133q-87 0 -124.5 36.5t-37.5 92.5q0 19 2 29
l70 15l-3 -33q0 -75 98 -75h139q77 0 125.5 -36.5t48.5 -103.5z" />
    <glyph glyph-name="bnTTH_RA" horiz-adv-x="577" 
d="M530 273q0 -73 -40 -127v-325h-67q-2 45 -29.5 74t-79.5 29q-24 0 -49 -0.5t-41 -0.5q-86 0 -131 46t-49 125l70 18q0 -122 117 -122q18 0 36 1t35 1q52 0 79.5 -15t47.5 -42h4q0 3 -3 16t-5 24t-4 31.5t-2 41.5v39q-46 -22 -103 -22q-97 0 -164.5 68.5t-71.5 162.5
q92 24 134.5 72.5t42.5 134.5v64l-10 11h-267v64h222q-59 67 -59 142q0 69 47.5 110.5t121.5 38.5l15 -68q-49 5 -79.5 -18.5t-30.5 -67.5q0 -59 67 -137h327v-64h-275q113 -117 138 -150q54 -79 56 -155zM164 256q4 -42 46 -83t108 -41q64 0 101.5 40.5t37.5 99.5
q0 19 -3.5 37t-12.5 37t-16 31.5t-23.5 32.5l-24 28.5l-29 32t-27.5 29.5q3 -48 -8 -88.5t-27.5 -65.5t-41 -45t-42.5 -29t-38 -16z" />
    <glyph glyph-name="bnDD_RA" horiz-adv-x="668" 
d="M688 578h-358v-109q0 -54 47 -54q58 0 154 86q29 -18 53 -62.5t24 -98.5q0 -91 -51 -148v-325h-67q-10 103 -116 103q-24 0 -73.5 -1t-65.5 -1q-87 0 -135.5 47t-52.5 125l70 18q0 -55 30.5 -89t94.5 -34q17 0 60 1t61 1q96 0 132 -56h4q-13 74 -13 113v48
q-53 -22 -122 -22q-141 0 -224.5 101.5t-91.5 250.5l70 15q7 -139 73.5 -218.5t173.5 -79.5q80 0 125.5 41.5t45.5 108.5q0 41 -18 68q-78 -61 -145 -61q-54 0 -85 33.5t-31 85.5v113h-277v64h708v-64z" />
    <glyph glyph-name="bnDDH_RA" horiz-adv-x="556" 
d="M486 372q0 -56 -25 -100v-353h-67q-2 45 -29.5 74t-79.5 29q-24 0 -49 -0.5t-41 -0.5q-85 0 -130.5 46.5t-49.5 124.5l70 18q0 -122 117 -122q18 0 36 1t36 1q52 0 79 -14.5t47 -42.5h4q-13 74 -13 127v41q-53 -31 -123 -31q-71 0 -115 37.5t-44 105.5v265h-129v64h596
v-64h-395v-262q0 -38 23 -58t64 -20q65 0 105.5 37.5t40.5 96.5q0 79 -73 79q-39 0 -62 -33l-41 58q40 44 103 44q65 0 105 -39t40 -109z" />
    <glyph glyph-name="bnNN_RA" horiz-adv-x="572" 
d="M472 -43h-65q-5 50 -28 76.5t-75 26.5q-23 0 -49 -1t-41 -1q-83 0 -130.5 44t-51.5 120l70 18q0 -53 30 -84t89 -31q13 0 33 1t38 1q53 0 78.5 -14t43.5 -42h4q-1 3 -3.5 15.5l-5 24t-4.5 31.5t-2 42v160q0 110 -42.5 176.5t-124.5 66.5q-64 0 -98.5 -38t-34.5 -98
q0 -53 33 -81.5t82 -28.5q36 0 70 18l20 -58q-36 -23 -90 -23q-79 0 -131.5 48.5t-52.5 125.5q0 85 53.5 141t145.5 56q120 0 176 -104h4q-9 50 -9 147v49h68v-99h120v-64h-120v-621z" />
    <glyph glyph-name="bnT_RA" horiz-adv-x="665" 
d="M565 -46h-66q0 58 -47 87t-163 34q-137 7 -197 52t-60 129q0 47 26 96l70 -18q-23 -41 -23 -81q0 -53 42 -80.5t146 -32.5q163 -9 212 -67h4q-14 87 -14 198v115q0 73 -68 73q-58 0 -102.5 -38.5t-44.5 -92.5q0 -29 16.5 -45t45.5 -16q38 0 66 23l27 -58q-35 -30 -96 -30
q-60 0 -95 34.5t-35 89.5q0 81 65 140t162 59q61 0 95 -36t34 -89v-446zM685 578h-705v64h705v-64z" />
    <glyph glyph-name="bnTH_RA" horiz-adv-x="639" 
d="M539 -97h-67q-2 45 -29.5 74t-79.5 29q-24 0 -73.5 -0.5t-65.5 -0.5q-86 0 -131.5 46.5t-49.5 124.5l71 18q0 -122 116 -122q18 0 61 0.5t61 0.5q52 0 79.5 -14.5t46.5 -41.5h4q-13 74 -13 113v9l-383 133v83q253 4 253 134q0 43 -27 67.5t-74 24.5q-39 0 -65 -22.5
t-26 -60.5q0 -39 33 -69l-59 -31q-46 36 -46 101t46 106.5t116 41.5q72 0 122.5 -41.5t50.5 -117.5q0 -72 -51 -121t-161 -61v-4l272 -93h4q-6 92 -6 194v338h71v-99h120v-64h-120v-675z" />
    <glyph glyph-name="bnD_RA" horiz-adv-x="566" 
d="M586 578h-398v-244q46 47 117.5 99.5t132.5 77.5l62 -36q-35 -108 -35 -240v-296h-67q-2 46 -29.5 75t-79.5 29q-24 0 -49 -1t-41 -1q-85 0 -130.5 46.5t-49.5 124.5l71 18q0 -122 116 -122q18 0 36 1t36 1q52 0 79 -14.5t47 -42.5h4q-13 74 -13 114v74q0 105 24 188
q-134 -88 -230 -194l-73 32v311h-136v64h606v-64z" />
    <glyph glyph-name="bnDH_RA" horiz-adv-x="596" 
d="M496 -107h-67q-3 45 -30 74t-79 29q-24 0 -49 -1t-41 -1q-86 0 -131.5 46.5t-48.5 124.5l70 18q0 -122 117 -122q17 0 35 1t36 1q52 0 80 -14.5t46 -42.5h4q-13 55 -13 118l-336 127v77l36 20q23 12 46 22.5t35 15.5l11 4v4q-67 4 -104.5 36.5t-37.5 88.5q0 58 38 94.5
t105 36.5q69 0 108 -34l-27 -56q-34 25 -77 25q-34 0 -54 -18.5t-20 -49.5q0 -36 30.5 -53t72.5 -17q74 0 173 67v128h192v-64h-120v-685zM429 195l4 1q-9 99 -9 190v45l-253 -136z" />
    <glyph glyph-name="bnN_RA" horiz-adv-x="547" 
d="M566 578h-107v-616h-67q-3 45 -30.5 74t-79.5 29q-24 0 -48.5 -0.5t-40.5 -0.5q-86 0 -131.5 46t-48.5 124l70 18q0 -121 116 -121q18 0 36.5 0.5t35.5 0.5q52 0 79.5 -14.5t46.5 -42.5h4q-13 74 -13 114v70q-28 75 -74 124t-105 49q-41 0 -62 -20t-21 -51q0 -34 25 -64
l-61 -26q-35 39 -35 91q0 60 41 98.5t110 38.5q126 0 187 -117h4q-10 60 -10 194v2h-407v64h586v-64z" />
    <glyph glyph-name="bnP_RA" horiz-adv-x="648" 
d="M119 506q52 -3 97 -32t66 -85l153 105q-53 87 -156 87q-56 0 -98 -24t-62 -51zM548 -39h-68q-2 45 -31 74t-81 29q-24 0 -83.5 -0.5t-75.5 -0.5q-86 0 -133 46.5t-51 124.5l71 18q0 -122 120 -122q18 0 70.5 1t69.5 1q90 0 130 -57h4q0 3 -3 16t-5 24t-4 31.5t-2 41.5
v138q0 56 -14 106l-300 -208l-37 57l101 69q-27 77 -103 92q-24 6 -54 6l-42 61q36 56 100.5 97.5t148.5 41.5q149 0 212 -120l4 1q-4 11 -10 68t-6 110v34h72v-99h120v-64h-120v-617z" />
    <glyph glyph-name="bnPH_RA" horiz-adv-x="774" 
d="M484 -80h-67q-3 45 -30.5 74t-79.5 29q-24 0 -48.5 -0.5t-40.5 -0.5q-86 0 -131.5 46.5t-48.5 124.5l70 18q0 -122 116 -122q18 0 36.5 0.5t35.5 0.5q52 0 79.5 -14.5t46.5 -41.5h4q-13 74 -13 109l-320 120v77l142 99l-131 119v20h-124v64h814v-64h-605v-4l121 -109v-58
l-142 -98l247 -94h4q-8 96 -8 197v85q54 23 126 23q85 0 140 -43.5t55 -124.5q0 -64 -34 -107t-86 -64l-42 58q41 15 66 44t25 69q0 46 -32 73t-82 27q-38 0 -63 -7v-525z" />
    <glyph glyph-name="bnB_RA" horiz-adv-x="556" 
d="M389 261h4q-8 114 -8 203v23q-106 -43 -212 -117zM576 578h-119v-608h-67q-3 46 -30.5 75t-79.5 29q-24 0 -42 -1t-34 -1q-86 0 -131 46.5t-49 124.5l70 18q0 -122 117 -122q17 0 28.5 1t29.5 1q52 0 79 -14.5t47 -42.5h4q-12 66 -13 102l-280 141v81q134 99 279 151v19
h-405v64h596v-64z" />
    <glyph glyph-name="bnBH_RA" horiz-adv-x="592" 
d="M492 -18h-67q-2 45 -29.5 74t-79.5 29q-24 0 -49 -0.5t-41 -0.5q-85 0 -130.5 46.5t-49.5 124.5l70 18q0 -122 117 -122q18 0 36 1t35 1q53 0 80 -14.5t47 -42.5h4q-13 59 -13 131v73q0 85 -32 127h-4q-57 -125 -158 -125q-58 0 -94 35.5t-36 87.5q0 40 21 71l73 -13
q-21 -21 -21 -56q0 -27 15 -43.5t44 -16.5q34 0 64 33t61 111h58q79 -79 79 -211v-318zM612 578h-632v64h632v-64z" />
    <glyph glyph-name="bnM_RA" horiz-adv-x="597" 
d="M393 419q38 0 56 23.5t18 54.5q0 35 -20 58t-60 23h-219q16 -28 22 -62q33 -3 62 -19t46.5 -33t42.5 -31t52 -14zM617 578h-107q29 -33 29 -89q0 -65 -42 -104v-397h-67q-3 46 -30.5 75t-79.5 29q-24 0 -48.5 -1t-40.5 -1q-81 0 -126 41t-53 110l70 20q9 -104 115 -104
q18 0 36 1t36 1q52 0 79 -14.5t47 -42.5h4q-13 58 -13 132v118q-18 -2 -29 -2q-40 0 -73.5 15.5t-52.5 34.5t-44.5 34.5t-51.5 15.5t-42.5 -16t-16.5 -42q0 -29 19 -55l-61 -27q-29 34 -29 84q0 41 19 71t54 43q-9 42 -33 70h-105v64h637v-64z" />
    </font>
</defs>
</svg>
